<svg width="375" height="437" viewBox="0 0 375 437" fill="none" xmlns="http://www.w3.org/2000/svg">
<path fill-rule="evenodd" clip-rule="evenodd" d="M11.8162 67.6465C0 92.2189 0 124.07 0 187.773V249.227C0 312.93 0 344.781 11.8162 369.354C23.5444 393.743 43.1942 413.421 67.548 425.167C92.0846 437 123.89 437 187.5 437C251.11 437 282.915 437 307.452 425.167C331.806 413.421 351.456 393.743 363.184 369.354C375 344.781 375 312.93 375 249.227V187.773C375 124.07 375 92.2189 363.184 67.6465C351.456 43.2572 331.806 23.5787 307.452 11.8334C282.915 0 251.11 0 187.5 0C123.89 0 92.0846 0 67.548 11.8334C43.1942 23.5787 23.5444 43.2572 11.8162 67.6465ZM60 69L148.839 110.957L225.161 72.5316L314 114.642V367L225.237 325.158L148.915 363.545L60 321.319V69ZM217.529 93.5294L156.471 124.239V342.432L217.529 311.722V93.5294ZM141.207 124.393L75.3026 93.1456L75.2644 311.569L141.207 342.816V124.393ZM232.793 311.569L298.812 342.663L298.697 124.393L232.793 93.184V311.569Z" fill="#FF9800"/>
</svg>
