<svg width="631" height="172" viewBox="0 0 631 172" fill="none" xmlns="http://www.w3.org/2000/svg">
<path d="M70.9375 43.5625C77.25 43.5625 82.9688 44.5 88.0938 46.375C93.2188 48.25 97.5625 50.8125 101.125 54.0625C104.75 57.3125 107.531 61.125 109.469 65.5C111.406 69.8125 112.375 74.4062 112.375 79.2812V136.281C112.375 141.156 111.406 145.781 109.469 150.156C107.531 154.469 104.75 158.25 101.125 161.5C97.5625 164.75 93.2188 167.312 88.0938 169.188C82.9688 171.062 77.25 172 70.9375 172H42.0625C35.75 172 30.0312 171.062 24.9062 169.188C19.7812 167.312 15.4062 164.75 11.7812 161.5C8.21875 158.25 5.46875 154.469 3.53125 150.156C1.59375 145.781 0.625 141.156 0.625 136.281V79.2812C0.625 74.4062 1.59375 69.8125 3.53125 65.5C5.46875 61.125 8.21875 57.3125 11.7812 54.0625C15.4062 50.8125 19.7812 48.25 24.9062 46.375C30.0312 44.5 35.75 43.5625 42.0625 43.5625H70.9375ZM56.3125 53.5L51.1562 52H38.875L31 53.3125L25 59.3125V129.531H35.0312V62.7812C35.9062 62.5938 36.6875 62.4688 37.375 62.4062C38.0625 62.3438 38.8125 62.1875 39.625 61.9375H50.3125C51 62.1875 51.6562 62.3438 52.2812 62.4062C52.9688 62.4688 53.6562 62.5938 54.3438 62.7812V102.531H64.375V62.7812L68.4062 61.9375H79.1875C79.9375 62.1875 80.6875 62.3438 81.4375 62.4062C82.1875 62.4688 82.9688 62.5938 83.7812 62.7812V129.531H93.7188V59.3125L87.8125 53.3125L79.9375 52H67.6562L62.5938 53.5L59.4062 59.9688L56.3125 53.5ZM181.938 43.5625C188.25 43.5625 193.969 44.5 199.094 46.375C204.219 48.25 208.562 50.8125 212.125 54.0625C215.75 57.3125 218.531 61.125 220.469 65.5C222.406 69.8125 223.375 74.4062 223.375 79.2812V136.281C223.375 141.156 222.406 145.781 220.469 150.156C218.531 154.469 215.75 158.25 212.125 161.5C208.562 164.75 204.219 167.312 199.094 169.188C193.969 171.062 188.25 172 181.938 172H153.062C146.75 172 141.031 171.062 135.906 169.188C130.781 167.312 126.406 164.75 122.781 161.5C119.219 158.25 116.469 154.469 114.531 150.156C112.594 145.781 111.625 141.156 111.625 136.281V79.2812C111.625 74.4062 112.594 69.8125 114.531 65.5C116.469 61.125 119.219 57.3125 122.781 54.0625C126.406 50.8125 130.781 48.25 135.906 46.375C141.031 44.5 146.75 43.5625 153.062 43.5625H181.938ZM194.219 67L192.812 59.125L186.906 53.125L177.438 52H157.094L147.719 53.125L141.812 59.125L140.406 67V111.531L141.812 119.406L147.719 125.312L157.094 126.531H180.719L191.688 125.125L189.344 115L180.531 116.5H157.75L151.75 115.562L150.438 109.938V90.625H194.219V67ZM150.438 80.7812V68.125L151.188 62.7812L157.75 61.75H176.875L183.25 62.7812L184.188 68.3125V80.7812H150.438ZM284.312 89.0312L316.562 57.1562L309.812 49.2812L271.188 87.5312V52H261.25V129.531H271.188V100.188C272.25 99.3125 273.156 98.5312 273.906 97.8438C274.719 97.0938 275.625 96.2812 276.625 95.4062L307.281 131.312L315.344 124.375L284.312 89.0312ZM292.938 43.5625C299.25 43.5625 304.969 44.5 310.094 46.375C315.219 48.25 319.562 50.8125 323.125 54.0625C326.75 57.3125 329.531 61.125 331.469 65.5C333.406 69.8125 334.375 74.4062 334.375 79.2812V136.281C334.375 141.156 333.406 145.781 331.469 150.156C329.531 154.469 326.75 158.25 323.125 161.5C319.562 164.75 315.219 167.312 310.094 169.188C304.969 171.062 299.25 172 292.938 172H264.062C257.75 172 252.031 171.062 246.906 169.188C241.781 167.312 237.406 164.75 233.781 161.5C230.219 158.25 227.469 154.469 225.531 150.156C223.594 145.781 222.625 141.156 222.625 136.281V79.2812C222.625 74.4062 223.594 69.8125 225.531 65.5C227.469 61.125 230.219 57.3125 233.781 54.0625C237.406 50.8125 241.781 48.25 246.906 46.375C252.031 44.5 257.75 43.5625 264.062 43.5625H292.938ZM427.25 0.75C435.667 0.75 443.292 2 450.125 4.5C456.958 7 462.75 10.4167 467.5 14.75C472.333 19.0833 476.042 24.1667 478.625 30C481.208 35.75 482.5 41.875 482.5 48.375V124.375C482.5 130.875 481.208 137.042 478.625 142.875C476.042 148.625 472.333 153.667 467.5 158C462.75 162.333 456.958 165.75 450.125 168.25C443.292 170.75 435.667 172 427.25 172H388.75C380.333 172 372.708 170.75 365.875 168.25C359.042 165.75 353.208 162.333 348.375 158C343.625 153.667 339.958 148.625 337.375 142.875C334.792 137.042 333.5 130.875 333.5 124.375V48.375C333.5 41.875 334.792 35.75 337.375 30C339.958 24.1667 343.625 19.0833 348.375 14.75C353.208 10.4167 359.042 7 365.875 4.5C372.708 2 380.333 0.75 388.75 0.75H427.25ZM438.75 115.375H453L443.125 22.25L435.375 14.5L418.75 12H405.375L388.75 14.5L381.125 22.25L370.875 115.375H385.75L387.75 88.75L389 77.25H435.125L436.375 88.75L438.75 115.375ZM430 27.125C430.583 33.875 431.25 40.25 432 46.25C432.75 52.25 433.458 58.5833 434.125 65.25H390.125L393.875 27.125C396.208 26.875 398.208 26.5833 399.875 26.25C401.625 25.9167 403.667 25.5833 406 25.25H418.25L430 27.125ZM598.5 32L596.75 21.5L588.75 13.5L576 12H544.75L522.25 15.125V115.375H535.5V26.625L545.25 25H575.25L583.875 26.375L585.125 33.75V115.375H598.5V32ZM575.25 0.75C583.667 0.75 591.292 2 598.125 4.5C604.958 7 610.75 10.4167 615.5 14.75C620.333 19.0833 624.042 24.1667 626.625 30C629.208 35.75 630.5 41.875 630.5 48.375V124.375C630.5 130.875 629.208 137.042 626.625 142.875C624.042 148.625 620.333 153.667 615.5 158C610.75 162.333 604.958 165.75 598.125 168.25C591.292 170.75 583.667 172 575.25 172H536.75C528.333 172 520.708 170.75 513.875 168.25C507.042 165.75 501.208 162.333 496.375 158C491.625 153.667 487.958 148.625 485.375 142.875C482.792 137.042 481.5 130.875 481.5 124.375V48.375C481.5 41.875 482.792 35.75 485.375 30C487.958 24.1667 491.625 19.0833 496.375 14.75C501.208 10.4167 507.042 7 513.875 4.5C520.708 2 528.333 0.75 536.75 0.75H575.25Z" fill="#FF9800"/>
</svg>
