<svg width="309" height="164" viewBox="0 0 309 164" fill="none" xmlns="http://www.w3.org/2000/svg">
<path d="M60.8592 9.32L55.3392 19.952V26H52.6032V19.952L47.0592 9.32H50.1072L53.9712 17.504L57.8352 9.32H60.8592ZM75.1505 19.064C75.1505 19.56 75.1185 20.008 75.0545 20.408H64.9505C65.0305 21.464 65.4225 22.312 66.1265 22.952C66.8305 23.592 67.6945 23.912 68.7185 23.912C70.1905 23.912 71.2305 23.296 71.8385 22.064H74.7905C74.3905 23.28 73.6625 24.28 72.6065 25.064C71.5665 25.832 70.2705 26.216 68.7185 26.216C67.4545 26.216 66.3185 25.936 65.3105 25.376C64.3185 24.8 63.5345 24 62.9585 22.976C62.3985 21.936 62.1185 20.736 62.1185 19.376C62.1185 18.016 62.3905 16.824 62.9345 15.8C63.4945 14.76 64.2705 13.96 65.2625 13.4C66.2705 12.84 67.4225 12.56 68.7185 12.56C69.9665 12.56 71.0785 12.832 72.0545 13.376C73.0305 13.92 73.7905 14.688 74.3345 15.68C74.8785 16.656 75.1505 17.784 75.1505 19.064ZM72.2945 18.2C72.2785 17.192 71.9185 16.384 71.2145 15.776C70.5105 15.168 69.6385 14.864 68.5985 14.864C67.6545 14.864 66.8465 15.168 66.1745 15.776C65.5025 16.368 65.1025 17.176 64.9745 18.2H72.2945ZM84.515 12.56C85.555 12.56 86.483 12.776 87.299 13.208C88.131 13.64 88.779 14.28 89.243 15.128C89.707 15.976 89.939 17 89.939 18.2V26H87.227V18.608C87.227 17.424 86.931 16.52 86.339 15.896C85.747 15.256 84.939 14.936 83.915 14.936C82.891 14.936 82.075 15.256 81.467 15.896C80.875 16.52 80.579 17.424 80.579 18.608V26H77.843V12.776H80.579V14.288C81.027 13.744 81.595 13.32 82.283 13.016C82.987 12.712 83.731 12.56 84.515 12.56ZM94.8209 11.024C94.3249 11.024 93.9089 10.856 93.5729 10.52C93.2369 10.184 93.0689 9.768 93.0689 9.272C93.0689 8.776 93.2369 8.36 93.5729 8.024C93.9089 7.688 94.3249 7.52 94.8209 7.52C95.3009 7.52 95.7089 7.688 96.0449 8.024C96.3809 8.36 96.5489 8.776 96.5489 9.272C96.5489 9.768 96.3809 10.184 96.0449 10.52C95.7089 10.856 95.3009 11.024 94.8209 11.024ZM96.1649 12.776V26H93.4289V12.776H96.1649ZM105.079 19.328C105.079 18 105.351 16.824 105.895 15.8C106.455 14.776 107.207 13.984 108.151 13.424C109.111 12.848 110.175 12.56 111.343 12.56C112.207 12.56 113.055 12.752 113.887 13.136C114.735 13.504 115.407 14 115.903 14.624V8.24H118.663V26H115.903V24.008C115.455 24.648 114.831 25.176 114.031 25.592C113.247 26.008 112.343 26.216 111.319 26.216C110.167 26.216 109.111 25.928 108.151 25.352C107.207 24.76 106.455 23.944 105.895 22.904C105.351 21.848 105.079 20.656 105.079 19.328ZM115.903 19.376C115.903 18.464 115.711 17.672 115.327 17C114.959 16.328 114.471 15.816 113.863 15.464C113.255 15.112 112.599 14.936 111.895 14.936C111.191 14.936 110.535 15.112 109.927 15.464C109.319 15.8 108.823 16.304 108.439 16.976C108.071 17.632 107.887 18.416 107.887 19.328C107.887 20.24 108.071 21.04 108.439 21.728C108.823 22.416 109.319 22.944 109.927 23.312C110.551 23.664 111.207 23.84 111.895 23.84C112.599 23.84 113.255 23.664 113.863 23.312C114.471 22.96 114.959 22.448 115.327 21.776C115.711 21.088 115.903 20.288 115.903 19.376ZM134.377 19.064C134.377 19.56 134.345 20.008 134.281 20.408H124.177C124.257 21.464 124.649 22.312 125.353 22.952C126.057 23.592 126.921 23.912 127.945 23.912C129.417 23.912 130.457 23.296 131.065 22.064H134.017C133.617 23.28 132.889 24.28 131.833 25.064C130.793 25.832 129.497 26.216 127.945 26.216C126.681 26.216 125.545 25.936 124.537 25.376C123.545 24.8 122.761 24 122.185 22.976C121.625 21.936 121.345 20.736 121.345 19.376C121.345 18.016 121.617 16.824 122.161 15.8C122.721 14.76 123.497 13.96 124.489 13.4C125.497 12.84 126.649 12.56 127.945 12.56C129.193 12.56 130.305 12.832 131.281 13.376C132.257 13.92 133.017 14.688 133.561 15.68C134.105 16.656 134.377 17.784 134.377 19.064ZM131.521 18.2C131.505 17.192 131.145 16.384 130.441 15.776C129.737 15.168 128.865 14.864 127.825 14.864C126.881 14.864 126.073 15.168 125.401 15.776C124.729 16.368 124.329 17.176 124.201 18.2H131.521ZM143.742 12.56C144.782 12.56 145.71 12.776 146.526 13.208C147.358 13.64 148.006 14.28 148.47 15.128C148.934 15.976 149.166 17 149.166 18.2V26H146.454V18.608C146.454 17.424 146.158 16.52 145.566 15.896C144.974 15.256 144.166 14.936 143.142 14.936C142.118 14.936 141.302 15.256 140.694 15.896C140.102 16.52 139.806 17.424 139.806 18.608V26H137.07V12.776H139.806V14.288C140.254 13.744 140.822 13.32 141.51 13.016C142.214 12.712 142.958 12.56 143.742 12.56ZM164.775 19.064C164.775 19.56 164.743 20.008 164.679 20.408H154.575C154.655 21.464 155.047 22.312 155.751 22.952C156.455 23.592 157.319 23.912 158.343 23.912C159.815 23.912 160.855 23.296 161.463 22.064H164.415C164.015 23.28 163.287 24.28 162.231 25.064C161.191 25.832 159.895 26.216 158.343 26.216C157.079 26.216 155.943 25.936 154.935 25.376C153.943 24.8 153.159 24 152.583 22.976C152.023 21.936 151.743 20.736 151.743 19.376C151.743 18.016 152.015 16.824 152.559 15.8C153.119 14.76 153.895 13.96 154.887 13.4C155.895 12.84 157.047 12.56 158.343 12.56C159.591 12.56 160.703 12.832 161.679 13.376C162.655 13.92 163.415 14.688 163.959 15.68C164.503 16.656 164.775 17.784 164.775 19.064ZM161.919 18.2C161.903 17.192 161.543 16.384 160.839 15.776C160.135 15.168 159.263 14.864 158.223 14.864C157.279 14.864 156.471 15.168 155.799 15.776C155.127 16.368 154.727 17.176 154.599 18.2H161.919ZM179.372 12.776L171.26 32.216H168.428L171.116 25.784L165.908 12.776H168.956L172.676 22.856L176.54 12.776H179.372ZM182.829 11.024C182.333 11.024 181.917 10.856 181.581 10.52C181.245 10.184 181.077 9.768 181.077 9.272C181.077 8.776 181.245 8.36 181.581 8.024C181.917 7.688 182.333 7.52 182.829 7.52C183.309 7.52 183.717 7.688 184.053 8.024C184.389 8.36 184.557 8.776 184.557 9.272C184.557 9.768 184.389 10.184 184.053 10.52C183.717 10.856 183.309 11.024 182.829 11.024ZM184.173 12.776V26H181.437V12.776H184.173ZM203.773 12.56C204.813 12.56 205.741 12.776 206.557 13.208C207.389 13.64 208.037 14.28 208.501 15.128C208.981 15.976 209.221 17 209.221 18.2V26H206.509V18.608C206.509 17.424 206.213 16.52 205.621 15.896C205.029 15.256 204.221 14.936 203.197 14.936C202.173 14.936 201.357 15.256 200.749 15.896C200.157 16.52 199.861 17.424 199.861 18.608V26H197.149V18.608C197.149 17.424 196.853 16.52 196.261 15.896C195.669 15.256 194.861 14.936 193.837 14.936C192.813 14.936 191.997 15.256 191.389 15.896C190.797 16.52 190.501 17.424 190.501 18.608V26H187.765V12.776H190.501V14.288C190.949 13.744 191.517 13.32 192.205 13.016C192.893 12.712 193.629 12.56 194.413 12.56C195.469 12.56 196.413 12.784 197.245 13.232C198.077 13.68 198.717 14.328 199.165 15.176C199.565 14.376 200.189 13.744 201.037 13.28C201.885 12.8 202.797 12.56 203.773 12.56ZM215.438 8.24V26H212.702V8.24H215.438ZM231.15 19.064C231.15 19.56 231.118 20.008 231.054 20.408H220.95C221.03 21.464 221.422 22.312 222.126 22.952C222.83 23.592 223.694 23.912 224.718 23.912C226.19 23.912 227.23 23.296 227.838 22.064H230.79C230.39 23.28 229.662 24.28 228.606 25.064C227.566 25.832 226.27 26.216 224.718 26.216C223.454 26.216 222.318 25.936 221.31 25.376C220.318 24.8 219.534 24 218.958 22.976C218.398 21.936 218.118 20.736 218.118 19.376C218.118 18.016 218.39 16.824 218.934 15.8C219.494 14.76 220.27 13.96 221.262 13.4C222.27 12.84 223.422 12.56 224.718 12.56C225.966 12.56 227.078 12.832 228.054 13.376C229.03 13.92 229.79 14.688 230.334 15.68C230.878 16.656 231.15 17.784 231.15 19.064ZM228.294 18.2C228.278 17.192 227.918 16.384 227.214 15.776C226.51 15.168 225.638 14.864 224.598 14.864C223.654 14.864 222.846 15.168 222.174 15.776C221.502 16.368 221.102 17.176 220.974 18.2H228.294ZM236.579 14.696C236.979 14.024 237.507 13.504 238.163 13.136C238.835 12.752 239.627 12.56 240.539 12.56V15.392H239.843C238.771 15.392 237.955 15.664 237.395 16.208C236.851 16.752 236.579 17.696 236.579 19.04V26H233.843V12.776H236.579V14.696ZM255.174 19.064C255.174 19.56 255.142 20.008 255.078 20.408H244.974C245.054 21.464 245.446 22.312 246.15 22.952C246.854 23.592 247.718 23.912 248.742 23.912C250.214 23.912 251.254 23.296 251.862 22.064H254.814C254.414 23.28 253.686 24.28 252.63 25.064C251.59 25.832 250.294 26.216 248.742 26.216C247.478 26.216 246.342 25.936 245.334 25.376C244.342 24.8 243.558 24 242.982 22.976C242.422 21.936 242.142 20.736 242.142 19.376C242.142 18.016 242.414 16.824 242.958 15.8C243.518 14.76 244.294 13.96 245.286 13.4C246.294 12.84 247.446 12.56 248.742 12.56C249.99 12.56 251.102 12.832 252.078 13.376C253.054 13.92 253.814 14.688 254.358 15.68C254.902 16.656 255.174 17.784 255.174 19.064ZM252.318 18.2C252.302 17.192 251.942 16.384 251.238 15.776C250.534 15.168 249.662 14.864 248.622 14.864C247.678 14.864 246.87 15.168 246.198 15.776C245.526 16.368 245.126 17.176 244.998 18.2H252.318ZM97.6791 48.56C98.6871 48.56 99.5831 48.776 100.367 49.208C101.167 49.64 101.791 50.28 102.239 51.128C102.703 51.976 102.935 53 102.935 54.2V62H100.223V54.608C100.223 53.424 99.9271 52.52 99.3351 51.896C98.7431 51.256 97.9351 50.936 96.9111 50.936C95.8871 50.936 95.0711 51.256 94.4631 51.896C93.8711 52.52 93.5751 53.424 93.5751 54.608V62H90.8391V44.24H93.5751V50.312C94.0391 49.752 94.6231 49.32 95.3271 49.016C96.0471 48.712 96.8311 48.56 97.6791 48.56ZM105.513 55.328C105.513 54 105.785 52.824 106.329 51.8C106.889 50.776 107.641 49.984 108.585 49.424C109.545 48.848 110.601 48.56 111.753 48.56C112.793 48.56 113.697 48.768 114.465 49.184C115.249 49.584 115.873 50.088 116.337 50.696V48.776H119.097V62H116.337V60.032C115.873 60.656 115.241 61.176 114.441 61.592C113.641 62.008 112.729 62.216 111.705 62.216C110.569 62.216 109.529 61.928 108.585 61.352C107.641 60.76 106.889 59.944 106.329 58.904C105.785 57.848 105.513 56.656 105.513 55.328ZM116.337 55.376C116.337 54.464 116.145 53.672 115.761 53C115.393 52.328 114.905 51.816 114.297 51.464C113.689 51.112 113.033 50.936 112.329 50.936C111.625 50.936 110.969 51.112 110.361 51.464C109.753 51.8 109.257 52.304 108.873 52.976C108.505 53.632 108.321 54.416 108.321 55.328C108.321 56.24 108.505 57.04 108.873 57.728C109.257 58.416 109.753 58.944 110.361 59.312C110.985 59.664 111.641 59.84 112.329 59.84C113.033 59.84 113.689 59.664 114.297 59.312C114.905 58.96 115.393 58.448 115.761 57.776C116.145 57.088 116.337 56.288 116.337 55.376ZM125.115 59.768H131.115V62H121.947V59.768L127.971 51.008H121.947V48.776H131.115V51.008L125.115 59.768ZM136.724 48.776V62H133.988V48.776H136.724ZM143.052 50.696C143.452 50.024 143.98 49.504 144.636 49.136C145.308 48.752 146.1 48.56 147.012 48.56V51.392H146.316C145.244 51.392 144.428 51.664 143.868 52.208C143.324 52.752 143.052 53.696 143.052 55.04V62H140.316V48.776H143.052V50.696ZM171.769 48.56C172.809 48.56 173.737 48.776 174.553 49.208C175.385 49.64 176.033 50.28 176.497 51.128C176.977 51.976 177.217 53 177.217 54.2V62H174.505V54.608C174.505 53.424 174.209 52.52 173.617 51.896C173.025 51.256 172.217 50.936 171.193 50.936C170.169 50.936 169.353 51.256 168.745 51.896C168.153 52.52 167.857 53.424 167.857 54.608V62H165.145V54.608C165.145 53.424 164.849 52.52 164.257 51.896C163.665 51.256 162.857 50.936 161.833 50.936C160.809 50.936 159.993 51.256 159.385 51.896C158.793 52.52 158.497 53.424 158.497 54.608V62H155.761V48.776H158.497V50.288C158.945 49.744 159.513 49.32 160.201 49.016C160.889 48.712 161.625 48.56 162.409 48.56C163.465 48.56 164.409 48.784 165.241 49.232C166.073 49.68 166.713 50.328 167.161 51.176C167.561 50.376 168.185 49.744 169.033 49.28C169.881 48.8 170.793 48.56 171.769 48.56ZM183.434 48.776V62H180.698V48.776H183.434ZM191.827 62.216C190.787 62.216 189.851 62.032 189.019 61.664C188.203 61.28 187.555 60.768 187.075 60.128C186.595 59.472 186.339 58.744 186.307 57.944H189.139C189.187 58.504 189.451 58.976 189.931 59.36C190.427 59.728 191.043 59.912 191.779 59.912C192.547 59.912 193.139 59.768 193.555 59.48C193.987 59.176 194.203 58.792 194.203 58.328C194.203 57.832 193.963 57.464 193.483 57.224C193.019 56.984 192.275 56.72 191.251 56.432C190.259 56.16 189.451 55.896 188.827 55.64C188.203 55.384 187.659 54.992 187.195 54.464C186.747 53.936 186.523 53.24 186.523 52.376C186.523 51.672 186.731 51.032 187.147 50.456C187.563 49.864 188.155 49.4 188.923 49.064C189.707 48.728 190.603 48.56 191.611 48.56C193.115 48.56 194.323 48.944 195.235 49.712C196.163 50.464 196.659 51.496 196.723 52.808H193.987C193.939 52.216 193.699 51.744 193.267 51.392C192.835 51.04 192.251 50.864 191.515 50.864C190.795 50.864 190.243 51 189.859 51.272C189.475 51.544 189.283 51.904 189.283 52.352C189.283 52.704 189.411 53 189.667 53.24C189.923 53.48 190.235 53.672 190.603 53.816C190.971 53.944 191.515 54.112 192.235 54.32C193.195 54.576 193.979 54.84 194.587 55.112C195.211 55.368 195.747 55.752 196.195 56.264C196.643 56.776 196.875 57.456 196.891 58.304C196.891 59.056 196.683 59.728 196.267 60.32C195.851 60.912 195.259 61.376 194.491 61.712C193.739 62.048 192.851 62.216 191.827 62.216ZM202.583 48.776V62H199.847V48.776H202.583ZM212.847 48.56C213.887 48.56 214.815 48.776 215.631 49.208C216.463 49.64 217.111 50.28 217.575 51.128C218.039 51.976 218.271 53 218.271 54.2V62H215.559V54.608C215.559 53.424 215.263 52.52 214.671 51.896C214.079 51.256 213.271 50.936 212.247 50.936C211.223 50.936 210.407 51.256 209.799 51.896C209.207 52.52 208.911 53.424 208.911 54.608V62H206.175V48.776H208.911V50.288C209.359 49.744 209.927 49.32 210.615 49.016C211.319 48.712 212.063 48.56 212.847 48.56Z" fill="#FF7029"/>
<path d="M191.5 81.5C198.293 73.5835 228.84 63.5847 254.419 80.8865C240.267 75.4559 211.335 71.5654 191.5 81.5Z" fill="#FF7029"/>
<path d="M32.9856 103.488C33.6682 103.648 34.1962 103.979 34.5696 104.48C34.9536 104.971 35.1456 105.541 35.1456 106.192C35.1456 107.184 34.8149 107.952 34.1536 108.496C33.5029 109.029 32.5642 109.296 31.3376 109.296H25.4016V97.9681H31.1776C32.3296 97.9681 33.2362 98.2188 33.8976 98.7201C34.5589 99.2215 34.8896 99.9521 34.8896 100.912C34.8896 101.573 34.7136 102.133 34.3616 102.592C34.0202 103.04 33.5616 103.339 32.9856 103.488ZM28.9536 102.384H30.3296C30.6496 102.384 30.8842 102.32 31.0336 102.192C31.1936 102.064 31.2736 101.867 31.2736 101.6C31.2736 101.323 31.1936 101.12 31.0336 100.992C30.8842 100.853 30.6496 100.784 30.3296 100.784H28.9536V102.384ZM30.5696 106.448C30.8896 106.448 31.1242 106.389 31.2736 106.272C31.4336 106.144 31.5136 105.941 31.5136 105.664C31.5136 105.12 31.1989 104.848 30.5696 104.848H28.9536V106.448H30.5696ZM45.0751 104.704C45.0751 104.949 45.0591 105.184 45.0271 105.408H39.3151C39.3684 106.187 39.6937 106.576 40.2911 106.576C40.6751 106.576 40.9524 106.4 41.1231 106.048H44.8831C44.7551 106.688 44.4831 107.264 44.0671 107.776C43.6617 108.277 43.1444 108.677 42.5151 108.976C41.8964 109.264 41.2137 109.408 40.4671 109.408C39.5711 109.408 38.7711 109.221 38.0671 108.848C37.3737 108.475 36.8297 107.941 36.4351 107.248C36.0511 106.544 35.8591 105.723 35.8591 104.784C35.8591 103.845 36.0511 103.029 36.4351 102.336C36.8297 101.632 37.3737 101.093 38.0671 100.72C38.7711 100.347 39.5711 100.16 40.4671 100.16C41.3631 100.16 42.1577 100.347 42.8511 100.72C43.5551 101.083 44.0991 101.605 44.4831 102.288C44.8777 102.971 45.0751 103.776 45.0751 104.704ZM41.4751 103.856C41.4751 103.557 41.3791 103.333 41.1871 103.184C40.9951 103.024 40.7551 102.944 40.4671 102.944C39.8377 102.944 39.4697 103.248 39.3631 103.856H41.4751ZM49.4464 100.16C50.0331 100.16 50.5398 100.283 50.9664 100.528C51.3931 100.763 51.7184 101.088 51.9424 101.504V100.272H55.4784V109.136C55.4784 109.979 55.3238 110.747 55.0144 111.44C54.7051 112.133 54.2038 112.688 53.5104 113.104C52.8278 113.52 51.9478 113.728 50.8704 113.728C49.4198 113.728 48.2678 113.387 47.4144 112.704C46.5718 112.032 46.0918 111.115 45.9744 109.952H49.4624C49.5584 110.421 49.9424 110.656 50.6144 110.656C51.0304 110.656 51.3558 110.549 51.5904 110.336C51.8251 110.123 51.9424 109.723 51.9424 109.136V108.064C51.7184 108.48 51.3931 108.811 50.9664 109.056C50.5398 109.291 50.0331 109.408 49.4464 109.408C48.7424 109.408 48.1078 109.227 47.5424 108.864C46.9771 108.491 46.5291 107.957 46.1984 107.264C45.8784 106.56 45.7184 105.733 45.7184 104.784C45.7184 103.835 45.8784 103.013 46.1984 102.32C46.5291 101.616 46.9771 101.083 47.5424 100.72C48.1078 100.347 48.7424 100.16 49.4464 100.16ZM51.9424 104.784C51.9424 104.304 51.8198 103.931 51.5744 103.664C51.3291 103.397 51.0144 103.264 50.6304 103.264C50.2464 103.264 49.9318 103.397 49.6864 103.664C49.4411 103.931 49.3184 104.304 49.3184 104.784C49.3184 105.264 49.4411 105.637 49.6864 105.904C49.9318 106.171 50.2464 106.304 50.6304 106.304C51.0144 106.304 51.3291 106.171 51.5744 105.904C51.8198 105.637 51.9424 105.264 51.9424 104.784ZM53.9584 96.4481C53.9584 97.5041 53.6758 98.3095 53.1104 98.8641C52.5558 99.4188 51.8358 99.6961 50.9504 99.6961C50.0651 99.6961 49.3398 99.4188 48.7744 98.8641C48.2198 98.3095 47.9424 97.5041 47.9424 96.4481V96.1761H49.5904C49.5904 96.5068 49.6918 96.7575 49.8944 96.9281C50.0971 97.0881 50.4491 97.1681 50.9504 97.1681C51.4518 97.1681 51.8038 97.0881 52.0064 96.9281C52.2091 96.7575 52.3104 96.5068 52.3104 96.1761H53.9584V96.4481ZM65.8094 104.704C65.8094 104.949 65.7934 105.184 65.7614 105.408H60.0494C60.1028 106.187 60.4281 106.576 61.0254 106.576C61.4094 106.576 61.6868 106.4 61.8574 106.048H65.6174C65.4894 106.688 65.2174 107.264 64.8014 107.776C64.3961 108.277 63.8788 108.677 63.2494 108.976C62.6308 109.264 61.9481 109.408 61.2014 109.408C60.3054 109.408 59.5054 109.221 58.8014 108.848C58.1081 108.475 57.5641 107.941 57.1694 107.248C56.7854 106.544 56.5934 105.723 56.5934 104.784C56.5934 103.845 56.7854 103.029 57.1694 102.336C57.5641 101.632 58.1081 101.093 58.8014 100.72C59.5054 100.347 60.3054 100.16 61.2014 100.16C62.0974 100.16 62.8921 100.347 63.5854 100.72C64.2894 101.083 64.8334 101.605 65.2174 102.288C65.6121 102.971 65.8094 103.776 65.8094 104.704ZM62.2094 103.856C62.2094 103.557 62.1134 103.333 61.9214 103.184C61.7294 103.024 61.4894 102.944 61.2014 102.944C60.5721 102.944 60.2041 103.248 60.0974 103.856H62.2094ZM73.2528 100.208C74.2875 100.208 75.0928 100.555 75.6688 101.248C76.2555 101.941 76.5488 102.88 76.5488 104.064V109.296H73.0128V104.512C73.0128 104.085 72.8955 103.749 72.6608 103.504C72.4368 103.248 72.1328 103.12 71.7488 103.12C71.3541 103.12 71.0448 103.248 70.8208 103.504C70.5968 103.749 70.4848 104.085 70.4848 104.512V109.296H66.9328V100.272H70.4848V101.648C70.7621 101.221 71.1301 100.875 71.5888 100.608C72.0581 100.341 72.6128 100.208 73.2528 100.208ZM77.6091 104.784C77.6091 103.835 77.7691 103.013 78.0891 102.32C78.4197 101.616 78.8677 101.083 79.4331 100.72C79.9984 100.347 80.6331 100.16 81.3371 100.16C81.9237 100.16 82.4251 100.283 82.8411 100.528C83.2677 100.763 83.5931 101.088 83.8171 101.504V97.4561H87.3691V109.296H83.8171V108.064C83.5931 108.48 83.2677 108.811 82.8411 109.056C82.4251 109.291 81.9237 109.408 81.3371 109.408C80.6331 109.408 79.9984 109.227 79.4331 108.864C78.8677 108.491 78.4197 107.957 78.0891 107.264C77.7691 106.56 77.6091 105.733 77.6091 104.784ZM83.8331 104.784C83.8331 104.304 83.7104 103.931 83.4651 103.664C83.2197 103.397 82.9051 103.264 82.5211 103.264C82.1371 103.264 81.8224 103.397 81.5771 103.664C81.3317 103.931 81.2091 104.304 81.2091 104.784C81.2091 105.264 81.3317 105.637 81.5771 105.904C81.8224 106.171 82.1371 106.304 82.5211 106.304C82.9051 106.304 83.2197 106.171 83.4651 105.904C83.7104 105.637 83.8331 105.264 83.8331 104.784ZM90.7561 99.5521C90.1374 99.5521 89.6414 99.3868 89.2681 99.0561C88.8947 98.7255 88.7081 98.3095 88.7081 97.8081C88.7081 97.2961 88.8947 96.8748 89.2681 96.5441C89.6414 96.2028 90.1374 96.0321 90.7561 96.0321C91.3641 96.0321 91.8547 96.2028 92.2281 96.5441C92.6014 96.8748 92.7881 97.2961 92.7881 97.8081C92.7881 98.3095 92.6014 98.7255 92.2281 99.0561C91.8547 99.3868 91.3641 99.5521 90.7561 99.5521ZM92.5161 100.272V109.296H88.9641V100.272H92.5161ZM97.3683 100.16C97.955 100.16 98.4616 100.283 98.8883 100.528C99.315 100.763 99.6403 101.088 99.8643 101.504V100.272H103.4V109.136C103.4 109.979 103.246 110.747 102.936 111.44C102.627 112.133 102.126 112.688 101.432 113.104C100.75 113.52 99.8696 113.728 98.7923 113.728C97.3416 113.728 96.1896 113.387 95.3363 112.704C94.4936 112.032 94.0136 111.115 93.8963 109.952H97.3843C97.4803 110.421 97.8643 110.656 98.5363 110.656C98.9523 110.656 99.2776 110.549 99.5123 110.336C99.747 110.123 99.8643 109.723 99.8643 109.136V108.064C99.6403 108.48 99.315 108.811 98.8883 109.056C98.4616 109.291 97.955 109.408 97.3683 109.408C96.6643 109.408 96.0296 109.227 95.4643 108.864C94.899 108.491 94.451 107.957 94.1203 107.264C93.8003 106.56 93.6403 105.733 93.6403 104.784C93.6403 103.835 93.8003 103.013 94.1203 102.32C94.451 101.616 94.899 101.083 95.4643 100.72C96.0296 100.347 96.6643 100.16 97.3683 100.16ZM99.8643 104.784C99.8643 104.304 99.7416 103.931 99.4963 103.664C99.251 103.397 98.9363 103.264 98.5523 103.264C98.1683 103.264 97.8536 103.397 97.6083 103.664C97.363 103.931 97.2403 104.304 97.2403 104.784C97.2403 105.264 97.363 105.637 97.6083 105.904C97.8536 106.171 98.1683 106.304 98.5523 106.304C98.9363 106.304 99.251 106.171 99.4963 105.904C99.7416 105.637 99.8643 105.264 99.8643 104.784ZM101.88 96.4481C101.88 97.5041 101.598 98.3095 101.032 98.8641C100.478 99.4188 99.7576 99.6961 98.8723 99.6961C97.987 99.6961 97.2616 99.4188 96.6963 98.8641C96.1416 98.3095 95.8643 97.5041 95.8643 96.4481V96.1761H97.5123C97.5123 96.5068 97.6136 96.7575 97.8163 96.9281C98.019 97.0881 98.371 97.1681 98.8723 97.1681C99.3736 97.1681 99.7256 97.0881 99.9283 96.9281C100.131 96.7575 100.232 96.5068 100.232 96.1761H101.88V96.4481ZM106.787 99.5521C106.169 99.5521 105.673 99.3868 105.299 99.0561C104.926 98.7255 104.739 98.3095 104.739 97.8081C104.739 97.2961 104.926 96.8748 105.299 96.5441C105.673 96.2028 106.169 96.0321 106.787 96.0321C107.395 96.0321 107.886 96.2028 108.259 96.5441C108.633 96.8748 108.819 97.2961 108.819 97.8081C108.819 98.3095 108.633 98.7255 108.259 99.0561C107.886 99.3868 107.395 99.5521 106.787 99.5521ZM108.547 100.272V109.296H104.995V100.272H108.547ZM116.472 100.208C117.506 100.208 118.312 100.555 118.888 101.248C119.474 101.941 119.768 102.88 119.768 104.064V109.296H116.232V104.512C116.232 104.085 116.114 103.749 115.88 103.504C115.656 103.248 115.352 103.12 114.968 103.12C114.573 103.12 114.264 103.248 114.04 103.504C113.816 103.749 113.704 104.085 113.704 104.512V109.296H110.152V100.272H113.704V101.648C113.981 101.221 114.349 100.875 114.808 100.608C115.277 100.341 115.832 100.208 116.472 100.208ZM127.579 97.4561V109.296H124.027V97.4561H127.579ZM133.471 109.408C132.564 109.408 131.748 109.221 131.023 108.848C130.297 108.475 129.727 107.941 129.311 107.248C128.905 106.544 128.703 105.723 128.703 104.784C128.703 103.845 128.905 103.029 129.311 102.336C129.727 101.632 130.297 101.093 131.023 100.72C131.748 100.347 132.564 100.16 133.471 100.16C134.377 100.16 135.193 100.347 135.919 100.72C136.644 101.093 137.209 101.632 137.615 102.336C138.031 103.029 138.239 103.845 138.239 104.784C138.239 105.723 138.031 106.544 137.615 107.248C137.209 107.941 136.644 108.475 135.919 108.848C135.193 109.221 134.377 109.408 133.471 109.408ZM133.471 106.336C133.801 106.336 134.079 106.208 134.303 105.952C134.527 105.685 134.639 105.296 134.639 104.784C134.639 104.272 134.527 103.888 134.303 103.632C134.079 103.365 133.801 103.232 133.471 103.232C133.14 103.232 132.863 103.365 132.639 103.632C132.415 103.888 132.303 104.272 132.303 104.784C132.303 105.296 132.409 105.685 132.623 105.952C132.847 106.208 133.129 106.336 133.471 106.336ZM145.131 109.296L142.907 105.696V109.296H139.355V97.4561H142.907V103.648L145.163 100.272H149.291L145.915 104.816L149.371 109.296H145.131ZM149.687 104.784C149.687 103.835 149.847 103.013 150.167 102.32C150.498 101.616 150.946 101.083 151.511 100.72C152.077 100.347 152.711 100.16 153.415 100.16C154.002 100.16 154.509 100.283 154.935 100.528C155.362 100.763 155.687 101.088 155.911 101.504V100.272H159.447V109.296H155.911V108.064C155.687 108.48 155.362 108.811 154.935 109.056C154.509 109.291 154.002 109.408 153.415 109.408C152.711 109.408 152.077 109.227 151.511 108.864C150.946 108.491 150.498 107.957 150.167 107.264C149.847 106.56 149.687 105.733 149.687 104.784ZM155.911 104.784C155.911 104.304 155.789 103.931 155.543 103.664C155.298 103.397 154.983 103.264 154.599 103.264C154.215 103.264 153.901 103.397 153.655 103.664C153.41 103.931 153.287 104.304 153.287 104.784C153.287 105.264 153.41 105.637 153.655 105.904C153.901 106.171 154.215 106.304 154.599 106.304C154.983 106.304 155.298 106.171 155.543 105.904C155.789 105.637 155.911 105.264 155.911 104.784ZM165.058 109.408C164.205 109.408 163.448 109.269 162.786 108.992C162.136 108.715 161.618 108.331 161.234 107.84C160.85 107.349 160.632 106.795 160.578 106.176H163.986C164.029 106.443 164.141 106.64 164.322 106.768C164.514 106.896 164.754 106.96 165.042 106.96C165.224 106.96 165.368 106.923 165.474 106.848C165.581 106.763 165.634 106.661 165.634 106.544C165.634 106.341 165.522 106.197 165.298 106.112C165.074 106.027 164.696 105.931 164.162 105.824C163.512 105.696 162.973 105.557 162.546 105.408C162.13 105.259 161.762 105.003 161.442 104.64C161.133 104.277 160.978 103.776 160.978 103.136C160.978 102.581 161.122 102.08 161.41 101.632C161.709 101.173 162.146 100.816 162.722 100.56C163.298 100.293 163.997 100.16 164.818 100.16C166.034 100.16 166.984 100.459 167.666 101.056C168.36 101.653 168.776 102.432 168.914 103.392H165.762C165.709 103.147 165.597 102.96 165.426 102.832C165.256 102.693 165.026 102.624 164.738 102.624C164.557 102.624 164.418 102.661 164.322 102.736C164.226 102.8 164.178 102.901 164.178 103.04C164.178 103.221 164.29 103.36 164.514 103.456C164.738 103.541 165.096 103.632 165.586 103.728C166.237 103.856 166.786 104 167.234 104.16C167.682 104.32 168.072 104.597 168.402 104.992C168.733 105.376 168.898 105.909 168.898 106.592C168.898 107.125 168.744 107.605 168.434 108.032C168.125 108.459 167.677 108.795 167.09 109.04C166.514 109.285 165.837 109.408 165.058 109.408ZM180.5 100.272L174.724 113.616H170.836L173.108 108.848L169.348 100.272H173.3L174.996 104.848L176.58 100.272H180.5ZM185.424 109.408C184.517 109.408 183.701 109.221 182.976 108.848C182.251 108.475 181.68 107.941 181.264 107.248C180.859 106.544 180.656 105.723 180.656 104.784C180.656 103.845 180.859 103.029 181.264 102.336C181.68 101.632 182.251 101.093 182.976 100.72C183.701 100.347 184.517 100.16 185.424 100.16C186.331 100.16 187.147 100.347 187.872 100.72C188.597 101.093 189.163 101.632 189.568 102.336C189.984 103.029 190.192 103.845 190.192 104.784C190.192 105.723 189.984 106.544 189.568 107.248C189.163 107.941 188.597 108.475 187.872 108.848C187.147 109.221 186.331 109.408 185.424 109.408ZM185.424 106.336C185.755 106.336 186.032 106.208 186.256 105.952C186.48 105.685 186.592 105.296 186.592 104.784C186.592 104.272 186.48 103.888 186.256 103.632C186.032 103.365 185.755 103.232 185.424 103.232C185.093 103.232 184.816 103.365 184.592 103.632C184.368 103.888 184.256 104.272 184.256 104.784C184.256 105.296 184.363 105.685 184.576 105.952C184.8 106.208 185.083 106.336 185.424 106.336ZM197.628 100.208C198.662 100.208 199.468 100.555 200.044 101.248C200.63 101.941 200.924 102.88 200.924 104.064V109.296H197.388V104.512C197.388 104.085 197.27 103.749 197.036 103.504C196.812 103.248 196.508 103.12 196.124 103.12C195.729 103.12 195.42 103.248 195.196 103.504C194.972 103.749 194.86 104.085 194.86 104.512V109.296H191.308V100.272H194.86V101.648C195.137 101.221 195.505 100.875 195.964 100.608C196.433 100.341 196.988 100.208 197.628 100.208ZM206.016 97.4561V109.296H202.464V97.4561H206.016ZM207.14 104.784C207.14 103.835 207.3 103.013 207.62 102.32C207.951 101.616 208.399 101.083 208.964 100.72C209.53 100.347 210.164 100.16 210.868 100.16C211.455 100.16 211.962 100.283 212.388 100.528C212.815 100.763 213.14 101.088 213.364 101.504V100.272H216.9V109.296H213.364V108.064C213.14 108.48 212.815 108.811 212.388 109.056C211.962 109.291 211.455 109.408 210.868 109.408C210.164 109.408 209.53 109.227 208.964 108.864C208.399 108.491 207.951 107.957 207.62 107.264C207.3 106.56 207.14 105.733 207.14 104.784ZM213.364 104.784C213.364 104.304 213.242 103.931 212.996 103.664C212.751 103.397 212.436 103.264 212.052 103.264C211.668 103.264 211.354 103.397 211.108 103.664C210.863 103.931 210.74 104.304 210.74 104.784C210.74 105.264 210.863 105.637 211.108 105.904C211.354 106.171 211.668 106.304 212.052 106.304C212.436 106.304 212.751 106.171 212.996 105.904C213.242 105.637 213.364 105.264 213.364 104.784ZM222.047 101.936C222.41 101.413 222.853 100.997 223.375 100.688C223.898 100.368 224.442 100.208 225.007 100.208V104H223.999C223.327 104 222.831 104.117 222.511 104.352C222.202 104.587 222.047 105.003 222.047 105.6V109.296H218.495V100.272H222.047V101.936ZM229.916 100.272V109.296H226.364V100.272H229.916ZM239.836 99.6321C239.644 99.6108 239.511 99.6001 239.436 99.6001C239.169 99.6001 238.967 99.6535 238.828 99.7601C238.689 99.8561 238.593 100.027 238.54 100.272H239.836V103.232H238.508V109.296H234.956V103.232H233.996V100.272H234.956C234.977 99.0988 235.345 98.1921 236.06 97.5521C236.785 96.9015 237.799 96.5761 239.1 96.5761C239.249 96.5761 239.495 96.5868 239.836 96.6081V99.6321ZM240.312 104.784C240.312 103.835 240.472 103.013 240.792 102.32C241.123 101.616 241.571 101.083 242.136 100.72C242.702 100.347 243.336 100.16 244.04 100.16C244.627 100.16 245.134 100.283 245.56 100.528C245.987 100.763 246.312 101.088 246.536 101.504V100.272H250.072V109.296H246.536V108.064C246.312 108.48 245.987 108.811 245.56 109.056C245.134 109.291 244.627 109.408 244.04 109.408C243.336 109.408 242.702 109.227 242.136 108.864C241.571 108.491 241.123 107.957 240.792 107.264C240.472 106.56 240.312 105.733 240.312 104.784ZM246.536 104.784C246.536 104.304 246.414 103.931 246.168 103.664C245.923 103.397 245.608 103.264 245.224 103.264C244.84 103.264 244.526 103.397 244.28 103.664C244.035 103.931 243.912 104.304 243.912 104.784C243.912 105.264 244.035 105.637 244.28 105.904C244.526 106.171 244.84 106.304 245.224 106.304C245.608 106.304 245.923 106.171 246.168 105.904C246.414 105.637 246.536 105.264 246.536 104.784ZM256.243 105.92L257.683 100.272H261.459L258.451 109.296H254.019L251.011 100.272H254.787L256.243 105.92ZM266.69 109.408C265.783 109.408 264.967 109.221 264.242 108.848C263.516 108.475 262.946 107.941 262.53 107.248C262.124 106.544 261.922 105.723 261.922 104.784C261.922 103.845 262.124 103.029 262.53 102.336C262.946 101.632 263.516 101.093 264.242 100.72C264.967 100.347 265.783 100.16 266.69 100.16C267.596 100.16 268.412 100.347 269.138 100.72C269.863 101.093 270.428 101.632 270.834 102.336C271.25 103.029 271.458 103.845 271.458 104.784C271.458 105.723 271.25 106.544 270.834 107.248C270.428 107.941 269.863 108.475 269.138 108.848C268.412 109.221 267.596 109.408 266.69 109.408ZM266.69 106.336C267.02 106.336 267.298 106.208 267.522 105.952C267.746 105.685 267.858 105.296 267.858 104.784C267.858 104.272 267.746 103.888 267.522 103.632C267.298 103.365 267.02 103.232 266.69 103.232C266.359 103.232 266.082 103.365 265.858 103.632C265.634 103.888 265.522 104.272 265.522 104.784C265.522 105.296 265.628 105.685 265.842 105.952C266.066 106.208 266.348 106.336 266.69 106.336ZM276.125 101.936C276.488 101.413 276.931 100.997 277.453 100.688C277.976 100.368 278.52 100.208 279.085 100.208V104H278.077C277.405 104 276.909 104.117 276.589 104.352C276.28 104.587 276.125 105.003 276.125 105.6V109.296H272.573V100.272H276.125V101.936ZM281.834 99.5521C281.216 99.5521 280.72 99.3868 280.346 99.0561C279.973 98.7255 279.786 98.3095 279.786 97.8081C279.786 97.2961 279.973 96.8748 280.346 96.5441C280.72 96.2028 281.216 96.0321 281.834 96.0321C282.442 96.0321 282.933 96.2028 283.306 96.5441C283.68 96.8748 283.866 97.2961 283.866 97.8081C283.866 98.3095 283.68 98.7255 283.306 99.0561C282.933 99.3868 282.442 99.5521 281.834 99.5521ZM283.594 100.272V109.296H280.042V100.272H283.594ZM19.5395 121.456V133.296H15.9875V121.456H19.5395ZM22.9358 123.552C22.3171 123.552 21.8211 123.387 21.4478 123.056C21.0744 122.725 20.8878 122.309 20.8878 121.808C20.8878 121.296 21.0744 120.875 21.4478 120.544C21.8211 120.203 22.3171 120.032 22.9358 120.032C23.5438 120.032 24.0344 120.203 24.4078 120.544C24.7811 120.875 24.9678 121.296 24.9678 121.808C24.9678 122.309 24.7811 122.725 24.4078 123.056C24.0344 123.387 23.5438 123.552 22.9358 123.552ZM24.6958 124.272V133.296H21.1438V124.272H24.6958ZM30.316 133.408C29.4627 133.408 28.7053 133.269 28.044 132.992C27.3933 132.715 26.876 132.331 26.492 131.84C26.108 131.349 25.8893 130.795 25.836 130.176H29.244C29.2867 130.443 29.3987 130.64 29.58 130.768C29.772 130.896 30.012 130.96 30.3 130.96C30.4813 130.96 30.6253 130.923 30.732 130.848C30.8387 130.763 30.892 130.661 30.892 130.544C30.892 130.341 30.78 130.197 30.556 130.112C30.332 130.027 29.9533 129.931 29.42 129.824C28.7693 129.696 28.2307 129.557 27.804 129.408C27.388 129.259 27.02 129.003 26.7 128.64C26.3907 128.277 26.236 127.776 26.236 127.136C26.236 126.581 26.38 126.08 26.668 125.632C26.9667 125.173 27.404 124.816 27.98 124.56C28.556 124.293 29.2547 124.16 30.076 124.16C31.292 124.16 32.2413 124.459 32.924 125.056C33.6173 125.653 34.0333 126.432 34.172 127.392H31.02C30.9667 127.147 30.8547 126.96 30.684 126.832C30.5133 126.693 30.284 126.624 29.996 126.624C29.8147 126.624 29.676 126.661 29.58 126.736C29.484 126.8 29.436 126.901 29.436 127.04C29.436 127.221 29.548 127.36 29.772 127.456C29.996 127.541 30.3533 127.632 30.844 127.728C31.4947 127.856 32.044 128 32.492 128.16C32.94 128.32 33.3293 128.597 33.66 128.992C33.9907 129.376 34.156 129.909 34.156 130.592C34.156 131.125 34.0013 131.605 33.692 132.032C33.3827 132.459 32.9347 132.795 32.348 133.04C31.772 133.285 31.0947 133.408 30.316 133.408ZM41.1816 130.272V133.296H39.8376C37.363 133.296 36.1256 132.064 36.1256 129.6V127.232H35.0056V124.272H36.1256V122.096H39.6776V124.272H41.1496V127.232H39.6776V129.664C39.6776 129.877 39.7256 130.032 39.8216 130.128C39.9283 130.224 40.099 130.272 40.3336 130.272H41.1816ZM51.2704 128.704C51.2704 128.949 51.2544 129.184 51.2224 129.408H45.5104C45.5637 130.187 45.889 130.576 46.4864 130.576C46.8704 130.576 47.1477 130.4 47.3184 130.048H51.0784C50.9504 130.688 50.6784 131.264 50.2624 131.776C49.857 132.277 49.3397 132.677 48.7104 132.976C48.0917 133.264 47.409 133.408 46.6624 133.408C45.7664 133.408 44.9664 133.221 44.2624 132.848C43.569 132.475 43.025 131.941 42.6304 131.248C42.2464 130.544 42.0544 129.723 42.0544 128.784C42.0544 127.845 42.2464 127.029 42.6304 126.336C43.025 125.632 43.569 125.093 44.2624 124.72C44.9664 124.347 45.7664 124.16 46.6624 124.16C47.5584 124.16 48.353 124.347 49.0464 124.72C49.7504 125.083 50.2944 125.605 50.6784 126.288C51.073 126.971 51.2704 127.776 51.2704 128.704ZM47.6704 127.856C47.6704 127.557 47.5744 127.333 47.3824 127.184C47.1904 127.024 46.9504 126.944 46.6624 126.944C46.033 126.944 45.665 127.248 45.5584 127.856H47.6704ZM58.7138 124.208C59.7484 124.208 60.5538 124.555 61.1298 125.248C61.7164 125.941 62.0098 126.88 62.0098 128.064V133.296H58.4738V128.512C58.4738 128.085 58.3564 127.749 58.1218 127.504C57.8978 127.248 57.5938 127.12 57.2098 127.12C56.8151 127.12 56.5058 127.248 56.2818 127.504C56.0578 127.749 55.9458 128.085 55.9458 128.512V133.296H52.3938V124.272H55.9458V125.648C56.2231 125.221 56.5911 124.875 57.0498 124.608C57.5191 124.341 58.0738 124.208 58.7138 124.208ZM72.286 128.704C72.286 128.949 72.27 129.184 72.238 129.408H66.526C66.5793 130.187 66.9047 130.576 67.502 130.576C67.886 130.576 68.1633 130.4 68.334 130.048H72.094C71.966 130.688 71.694 131.264 71.278 131.776C70.8727 132.277 70.3553 132.677 69.726 132.976C69.1073 133.264 68.4247 133.408 67.678 133.408C66.782 133.408 65.982 133.221 65.278 132.848C64.5847 132.475 64.0407 131.941 63.646 131.248C63.262 130.544 63.07 129.723 63.07 128.784C63.07 127.845 63.262 127.029 63.646 126.336C64.0407 125.632 64.5847 125.093 65.278 124.72C65.982 124.347 66.782 124.16 67.678 124.16C68.574 124.16 69.3687 124.347 70.062 124.72C70.766 125.083 71.31 125.605 71.694 126.288C72.0887 126.971 72.286 127.776 72.286 128.704ZM68.686 127.856C68.686 127.557 68.59 127.333 68.398 127.184C68.206 127.024 67.966 126.944 67.678 126.944C67.0487 126.944 66.6807 127.248 66.574 127.856H68.686ZM84.8641 128.704C84.8641 128.949 84.8481 129.184 84.8161 129.408H79.1041C79.1575 130.187 79.4828 130.576 80.0801 130.576C80.4641 130.576 80.7415 130.4 80.9121 130.048H84.6721C84.5441 130.688 84.2721 131.264 83.8561 131.776C83.4508 132.277 82.9335 132.677 82.3041 132.976C81.6855 133.264 81.0028 133.408 80.2561 133.408C79.3601 133.408 78.5601 133.221 77.8561 132.848C77.1628 132.475 76.6188 131.941 76.2241 131.248C75.8401 130.544 75.6481 129.723 75.6481 128.784C75.6481 127.845 75.8401 127.029 76.2241 126.336C76.6188 125.632 77.1628 125.093 77.8561 124.72C78.5601 124.347 79.3601 124.16 80.2561 124.16C81.1521 124.16 81.9468 124.347 82.6401 124.72C83.3441 125.083 83.8881 125.605 84.2721 126.288C84.6668 126.971 84.8641 127.776 84.8641 128.704ZM81.2641 127.856C81.2641 127.557 81.1681 127.333 80.9761 127.184C80.7841 127.024 80.5441 126.944 80.2561 126.944C79.6268 126.944 79.2588 127.248 79.1521 127.856H81.2641ZM91.7635 133.296L89.5395 129.696V133.296H85.9875V121.456H89.5395V127.648L91.7955 124.272H95.9235L92.5475 128.816L96.0035 133.296H91.7635ZM100.352 121.456V133.296H96.8V121.456H100.352ZM110.692 128.704C110.692 128.949 110.676 129.184 110.644 129.408H104.932C104.986 130.187 105.311 130.576 105.908 130.576C106.292 130.576 106.57 130.4 106.74 130.048H110.5C110.372 130.688 110.1 131.264 109.684 131.776C109.279 132.277 108.762 132.677 108.132 132.976C107.514 133.264 106.831 133.408 106.084 133.408C105.188 133.408 104.388 133.221 103.684 132.848C102.991 132.475 102.447 131.941 102.052 131.248C101.668 130.544 101.476 129.723 101.476 128.784C101.476 127.845 101.668 127.029 102.052 126.336C102.447 125.632 102.991 125.093 103.684 124.72C104.388 124.347 105.188 124.16 106.084 124.16C106.98 124.16 107.775 124.347 108.468 124.72C109.172 125.083 109.716 125.605 110.1 126.288C110.495 126.971 110.692 127.776 110.692 128.704ZM107.092 127.856C107.092 127.557 106.996 127.333 106.804 127.184C106.612 127.024 106.372 126.944 106.084 126.944C105.455 126.944 105.087 127.248 104.98 127.856H107.092ZM124.726 124.272L118.95 137.616H115.062L117.334 132.848L113.574 124.272H117.526L119.222 128.848L120.806 124.272H124.726ZM124.883 128.784C124.883 127.835 125.043 127.013 125.363 126.32C125.693 125.616 126.141 125.083 126.707 124.72C127.272 124.347 127.907 124.16 128.611 124.16C129.197 124.16 129.704 124.283 130.131 124.528C130.557 124.763 130.883 125.088 131.107 125.504V124.272H134.643V133.296H131.107V132.064C130.883 132.48 130.557 132.811 130.131 133.056C129.704 133.291 129.197 133.408 128.611 133.408C127.907 133.408 127.272 133.227 126.707 132.864C126.141 132.491 125.693 131.957 125.363 131.264C125.043 130.56 124.883 129.733 124.883 128.784ZM131.107 128.784C131.107 128.304 130.984 127.931 130.739 127.664C130.493 127.397 130.179 127.264 129.795 127.264C129.411 127.264 129.096 127.397 128.851 127.664C128.605 127.931 128.483 128.304 128.483 128.784C128.483 129.264 128.605 129.637 128.851 129.904C129.096 130.171 129.411 130.304 129.795 130.304C130.179 130.304 130.493 130.171 130.739 129.904C130.984 129.637 131.107 129.264 131.107 128.784ZM139.79 125.504C140.014 125.088 140.334 124.763 140.75 124.528C141.176 124.283 141.683 124.16 142.27 124.16C142.974 124.16 143.608 124.347 144.174 124.72C144.739 125.083 145.182 125.616 145.502 126.32C145.832 127.013 145.998 127.835 145.998 128.784C145.998 129.733 145.832 130.56 145.502 131.264C145.182 131.957 144.739 132.491 144.174 132.864C143.608 133.227 142.974 133.408 142.27 133.408C141.683 133.408 141.176 133.291 140.75 133.056C140.334 132.811 140.014 132.48 139.79 132.064V137.616H136.238V124.272H139.79V125.504ZM142.398 128.784C142.398 128.304 142.275 127.931 142.03 127.664C141.784 127.397 141.47 127.264 141.086 127.264C140.702 127.264 140.387 127.397 140.141 127.664C139.896 127.931 139.774 128.304 139.774 128.784C139.774 129.264 139.896 129.637 140.141 129.904C140.387 130.171 140.702 130.304 141.086 130.304C141.47 130.304 141.784 130.171 142.03 129.904C142.275 129.637 142.398 129.264 142.398 128.784ZM146.633 128.784C146.633 127.835 146.793 127.013 147.113 126.32C147.443 125.616 147.891 125.083 148.457 124.72C149.022 124.347 149.657 124.16 150.361 124.16C150.947 124.16 151.454 124.283 151.881 124.528C152.307 124.763 152.633 125.088 152.857 125.504V124.272H156.393V133.296H152.857V132.064C152.633 132.48 152.307 132.811 151.881 133.056C151.454 133.291 150.947 133.408 150.361 133.408C149.657 133.408 149.022 133.227 148.457 132.864C147.891 132.491 147.443 131.957 147.113 131.264C146.793 130.56 146.633 129.733 146.633 128.784ZM152.857 128.784C152.857 128.304 152.734 127.931 152.489 127.664C152.243 127.397 151.929 127.264 151.545 127.264C151.161 127.264 150.846 127.397 150.601 127.664C150.355 127.931 150.233 128.304 150.233 128.784C150.233 129.264 150.355 129.637 150.601 129.904C150.846 130.171 151.161 130.304 151.545 130.304C151.929 130.304 152.243 130.171 152.489 129.904C152.734 129.637 152.857 129.264 152.857 128.784ZM168.18 124.272L162.404 137.616H158.516L160.788 132.848L157.027 124.272H160.98L162.676 128.848L164.26 124.272H168.18ZM174.942 130.352H178.702V133.296H171.054V130.512L174.494 127.216H171.102V124.272H178.542V127.056L174.942 130.352ZM188.552 128.704C188.552 128.949 188.536 129.184 188.504 129.408H182.792C182.845 130.187 183.17 130.576 183.768 130.576C184.152 130.576 184.429 130.4 184.6 130.048H188.36C188.232 130.688 187.96 131.264 187.544 131.776C187.138 132.277 186.621 132.677 185.992 132.976C185.373 133.264 184.69 133.408 183.944 133.408C183.048 133.408 182.248 133.221 181.544 132.848C180.85 132.475 180.306 131.941 179.912 131.248C179.528 130.544 179.336 129.723 179.336 128.784C179.336 127.845 179.528 127.029 179.912 126.336C180.306 125.632 180.85 125.093 181.544 124.72C182.248 124.347 183.048 124.16 183.944 124.16C184.84 124.16 185.634 124.347 186.328 124.72C187.032 125.083 187.576 125.605 187.96 126.288C188.354 126.971 188.552 127.776 188.552 128.704ZM184.952 127.856C184.952 127.557 184.856 127.333 184.664 127.184C184.472 127.024 184.232 126.944 183.944 126.944C183.314 126.944 182.946 127.248 182.84 127.856H184.952ZM195.451 133.296L193.227 129.696V133.296H189.675V121.456H193.227V127.648L195.483 124.272H199.611L196.235 128.816L199.691 133.296H195.451ZM200.008 128.784C200.008 127.835 200.168 127.013 200.488 126.32C200.818 125.616 201.266 125.083 201.832 124.72C202.397 124.347 203.032 124.16 203.736 124.16C204.322 124.16 204.829 124.283 205.256 124.528C205.682 124.763 206.008 125.088 206.232 125.504V124.272H209.768V133.296H206.232V132.064C206.008 132.48 205.682 132.811 205.256 133.056C204.829 133.291 204.322 133.408 203.736 133.408C203.032 133.408 202.397 133.227 201.832 132.864C201.266 132.491 200.818 131.957 200.488 131.264C200.168 130.56 200.008 129.733 200.008 128.784ZM206.232 128.784C206.232 128.304 206.109 127.931 205.864 127.664C205.618 127.397 205.304 127.264 204.92 127.264C204.536 127.264 204.221 127.397 203.976 127.664C203.73 127.931 203.608 128.304 203.608 128.784C203.608 129.264 203.73 129.637 203.976 129.904C204.221 130.171 204.536 130.304 204.92 130.304C205.304 130.304 205.618 130.171 205.864 129.904C206.109 129.637 206.232 129.264 206.232 128.784ZM218.097 133.408C217.244 133.408 216.487 133.269 215.825 132.992C215.175 132.715 214.657 132.331 214.273 131.84C213.889 131.349 213.671 130.795 213.617 130.176H217.025C217.068 130.443 217.18 130.64 217.361 130.768C217.553 130.896 217.793 130.96 218.081 130.96C218.263 130.96 218.407 130.923 218.513 130.848C218.62 130.763 218.673 130.661 218.673 130.544C218.673 130.341 218.561 130.197 218.337 130.112C218.113 130.027 217.735 129.931 217.201 129.824C216.551 129.696 216.012 129.557 215.585 129.408C215.169 129.259 214.801 129.003 214.481 128.64C214.172 128.277 214.017 127.776 214.017 127.136C214.017 126.581 214.161 126.08 214.449 125.632C214.748 125.173 215.185 124.816 215.761 124.56C216.337 124.293 217.036 124.16 217.857 124.16C219.073 124.16 220.023 124.459 220.705 125.056C221.399 125.653 221.815 126.432 221.953 127.392H218.801C218.748 127.147 218.636 126.96 218.465 126.832C218.295 126.693 218.065 126.624 217.777 126.624C217.596 126.624 217.457 126.661 217.361 126.736C217.265 126.8 217.217 126.901 217.217 127.04C217.217 127.221 217.329 127.36 217.553 127.456C217.777 127.541 218.135 127.632 218.625 127.728C219.276 127.856 219.825 128 220.273 128.16C220.721 128.32 221.111 128.597 221.441 128.992C221.772 129.376 221.937 129.909 221.937 130.592C221.937 131.125 221.783 131.605 221.473 132.032C221.164 132.459 220.716 132.795 220.129 133.04C219.553 133.285 218.876 133.408 218.097 133.408ZM232.083 128.704C232.083 128.949 232.067 129.184 232.035 129.408H226.323C226.376 130.187 226.702 130.576 227.299 130.576C227.683 130.576 227.96 130.4 228.131 130.048H231.891C231.763 130.688 231.491 131.264 231.075 131.776C230.67 132.277 230.152 132.677 229.523 132.976C228.904 133.264 228.222 133.408 227.475 133.408C226.579 133.408 225.779 133.221 225.075 132.848C224.382 132.475 223.838 131.941 223.443 131.248C223.059 130.544 222.867 129.723 222.867 128.784C222.867 127.845 223.059 127.029 223.443 126.336C223.838 125.632 224.382 125.093 225.075 124.72C225.779 124.347 226.579 124.16 227.475 124.16C228.371 124.16 229.166 124.347 229.859 124.72C230.563 125.083 231.107 125.605 231.491 126.288C231.886 126.971 232.083 127.776 232.083 128.704ZM228.483 127.856C228.483 127.557 228.387 127.333 228.195 127.184C228.003 127.024 227.763 126.944 227.475 126.944C226.846 126.944 226.478 127.248 226.371 127.856H228.483ZM239.526 124.208C240.561 124.208 241.366 124.555 241.942 125.248C242.529 125.941 242.822 126.88 242.822 128.064V133.296H239.286V128.512C239.286 128.085 239.169 127.749 238.934 127.504C238.71 127.248 238.406 127.12 238.022 127.12C237.628 127.12 237.318 127.248 237.094 127.504C236.87 127.749 236.758 128.085 236.758 128.512V133.296H233.206V124.272H236.758V125.648C237.036 125.221 237.404 124.875 237.862 124.608C238.332 124.341 238.886 124.208 239.526 124.208ZM246.155 123.552C245.536 123.552 245.04 123.387 244.667 123.056C244.293 122.725 244.107 122.309 244.107 121.808C244.107 121.296 244.293 120.875 244.667 120.544C245.04 120.203 245.536 120.032 246.155 120.032C246.763 120.032 247.253 120.203 247.627 120.544C248 120.875 248.187 121.296 248.187 121.808C248.187 122.309 248 122.725 247.627 123.056C247.253 123.387 246.763 123.552 246.155 123.552ZM247.915 124.272V133.296H244.363V124.272H247.915ZM255.839 124.208C256.873 124.208 257.679 124.555 258.255 125.248C258.841 125.941 259.135 126.88 259.135 128.064V133.296H255.599V128.512C255.599 128.085 255.481 127.749 255.247 127.504C255.023 127.248 254.719 127.12 254.335 127.12C253.94 127.12 253.631 127.248 253.407 127.504C253.183 127.749 253.071 128.085 253.071 128.512V133.296H249.519V124.272H253.071V125.648C253.348 125.221 253.716 124.875 254.175 124.608C254.644 124.341 255.199 124.208 255.839 124.208ZM265.186 123.552C264.567 123.552 264.071 123.387 263.698 123.056C263.324 122.725 263.138 122.309 263.138 121.808C263.138 121.296 263.324 120.875 263.698 120.544C264.071 120.203 264.567 120.032 265.186 120.032C265.794 120.032 266.284 120.203 266.658 120.544C267.031 120.875 267.218 121.296 267.218 121.808C267.218 122.309 267.031 122.725 266.658 123.056C266.284 123.387 265.794 123.552 265.186 123.552ZM266.946 124.272V133.296H263.394V124.272H266.946ZM272.598 130.368C273.003 130.368 273.275 130.133 273.414 129.664H277.174C276.993 130.656 276.598 131.467 275.99 132.096C275.382 132.725 274.625 133.131 273.718 133.312V133.84C274.017 133.84 274.326 133.899 274.646 134.016C274.966 134.144 275.238 134.352 275.462 134.64C275.686 134.939 275.798 135.323 275.798 135.792C275.798 136.485 275.558 136.981 275.078 137.28C274.598 137.589 274.038 137.744 273.398 137.744H270.63V135.936H273.03C273.158 135.936 273.259 135.909 273.334 135.856C273.409 135.813 273.446 135.755 273.446 135.68C273.446 135.52 273.307 135.44 273.03 135.44H271.67V133.328C270.571 133.136 269.697 132.64 269.046 131.84C268.395 131.04 268.07 130.021 268.07 128.784C268.07 127.845 268.262 127.029 268.646 126.336C269.041 125.632 269.585 125.093 270.278 124.72C270.982 124.347 271.782 124.16 272.678 124.16C273.851 124.16 274.838 124.491 275.638 125.152C276.449 125.813 276.961 126.731 277.174 127.904H273.414C273.275 127.435 273.003 127.2 272.598 127.2C272.31 127.2 272.081 127.333 271.91 127.6C271.75 127.867 271.67 128.261 271.67 128.784C271.67 129.307 271.75 129.701 271.91 129.968C272.081 130.235 272.31 130.368 272.598 130.368ZM280.092 123.552C279.473 123.552 278.977 123.387 278.604 123.056C278.231 122.725 278.044 122.309 278.044 121.808C278.044 121.296 278.231 120.875 278.604 120.544C278.977 120.203 279.473 120.032 280.092 120.032C280.7 120.032 281.191 120.203 281.564 120.544C281.937 120.875 282.124 121.296 282.124 121.808C282.124 122.309 281.937 122.725 281.564 123.056C281.191 123.387 280.7 123.552 280.092 123.552ZM281.852 124.272V133.296H278.3V124.272H281.852ZM289.776 124.208C290.811 124.208 291.616 124.555 292.192 125.248C292.779 125.941 293.072 126.88 293.072 128.064V133.296H289.536V128.512C289.536 128.085 289.419 127.749 289.184 127.504C288.96 127.248 288.656 127.12 288.272 127.12C287.878 127.12 287.568 127.248 287.344 127.504C287.12 127.749 287.008 128.085 287.008 128.512V133.296H283.456V124.272H287.008V125.648C287.286 125.221 287.654 124.875 288.112 124.608C288.582 124.341 289.136 124.208 289.776 124.208ZM68.367 148.272L62.591 161.616H58.703L60.975 156.848L57.215 148.272H61.167L62.863 152.848L64.447 148.272H68.367ZM77.7391 152.704C77.7391 152.949 77.7231 153.184 77.6911 153.408H71.9791C72.0325 154.187 72.3578 154.576 72.9551 154.576C73.3391 154.576 73.6165 154.4 73.7871 154.048H77.5471C77.4191 154.688 77.1471 155.264 76.7311 155.776C76.3258 156.277 75.8085 156.677 75.1791 156.976C74.5605 157.264 73.8778 157.408 73.1311 157.408C72.2351 157.408 71.4351 157.221 70.7311 156.848C70.0378 156.475 69.4938 155.941 69.0991 155.248C68.7151 154.544 68.5231 153.723 68.5231 152.784C68.5231 151.845 68.7151 151.029 69.0991 150.336C69.4938 149.632 70.0378 149.093 70.7311 148.72C71.4351 148.347 72.2351 148.16 73.1311 148.16C74.0271 148.16 74.8218 148.347 75.5151 148.72C76.2191 149.083 76.7631 149.605 77.1471 150.288C77.5418 150.971 77.7391 151.776 77.7391 152.704ZM74.1391 151.856C74.1391 151.557 74.0431 151.333 73.8511 151.184C73.6591 151.024 73.4191 150.944 73.1311 150.944C72.5018 150.944 72.1338 151.248 72.0271 151.856H74.1391ZM85.1825 148.208C86.2172 148.208 87.0225 148.555 87.5985 149.248C88.1852 149.941 88.4785 150.88 88.4785 152.064V157.296H84.9425V152.512C84.9425 152.085 84.8252 151.749 84.5905 151.504C84.3665 151.248 84.0625 151.12 83.6785 151.12C83.2838 151.12 82.9745 151.248 82.7505 151.504C82.5265 151.749 82.4145 152.085 82.4145 152.512V157.296H78.8625V148.272H82.4145V149.648C82.6918 149.221 83.0598 148.875 83.5185 148.608C83.9878 148.341 84.5425 148.208 85.1825 148.208ZM91.8108 147.552C91.1921 147.552 90.6961 147.387 90.3228 147.056C89.9494 146.725 89.7628 146.309 89.7628 145.808C89.7628 145.296 89.9494 144.875 90.3228 144.544C90.6961 144.203 91.1921 144.032 91.8108 144.032C92.4188 144.032 92.9094 144.203 93.2828 144.544C93.6561 144.875 93.8428 145.296 93.8428 145.808C93.8428 146.309 93.6561 146.725 93.2828 147.056C92.9094 147.387 92.4188 147.552 91.8108 147.552ZM93.5708 148.272V157.296H90.0188V148.272H93.5708ZM101.446 145.456V157.296H97.8938V145.456H101.446ZM104.842 147.552C104.223 147.552 103.727 147.387 103.354 147.056C102.981 146.725 102.794 146.309 102.794 145.808C102.794 145.296 102.981 144.875 103.354 144.544C103.727 144.203 104.223 144.032 104.842 144.032C105.45 144.032 105.941 144.203 106.314 144.544C106.687 144.875 106.874 145.296 106.874 145.808C106.874 146.309 106.687 146.725 106.314 147.056C105.941 147.387 105.45 147.552 104.842 147.552ZM106.602 148.272V157.296H103.05V148.272H106.602ZM112.222 157.408C111.369 157.408 110.612 157.269 109.95 156.992C109.3 156.715 108.782 156.331 108.398 155.84C108.014 155.349 107.796 154.795 107.742 154.176H111.15C111.193 154.443 111.305 154.64 111.486 154.768C111.678 154.896 111.918 154.96 112.206 154.96C112.388 154.96 112.532 154.923 112.638 154.848C112.745 154.763 112.798 154.661 112.798 154.544C112.798 154.341 112.686 154.197 112.462 154.112C112.238 154.027 111.86 153.931 111.326 153.824C110.676 153.696 110.137 153.557 109.71 153.408C109.294 153.259 108.926 153.003 108.606 152.64C108.297 152.277 108.142 151.776 108.142 151.136C108.142 150.581 108.286 150.08 108.574 149.632C108.873 149.173 109.31 148.816 109.886 148.56C110.462 148.293 111.161 148.16 111.982 148.16C113.198 148.16 114.148 148.459 114.83 149.056C115.524 149.653 115.94 150.432 116.078 151.392H112.926C112.873 151.147 112.761 150.96 112.59 150.832C112.42 150.693 112.19 150.624 111.902 150.624C111.721 150.624 111.582 150.661 111.486 150.736C111.39 150.8 111.342 150.901 111.342 151.04C111.342 151.221 111.454 151.36 111.678 151.456C111.902 151.541 112.26 151.632 112.75 151.728C113.401 151.856 113.95 152 114.398 152.16C114.846 152.32 115.236 152.597 115.566 152.992C115.897 153.376 116.062 153.909 116.062 154.592C116.062 155.125 115.908 155.605 115.598 156.032C115.289 156.459 114.841 156.795 114.254 157.04C113.678 157.285 113.001 157.408 112.222 157.408ZM123.088 154.272V157.296H121.744C119.269 157.296 118.032 156.064 118.032 153.6V151.232H116.912V148.272H118.032V146.096H121.584V148.272H123.056V151.232H121.584V153.664C121.584 153.877 121.632 154.032 121.728 154.128C121.835 154.224 122.005 154.272 122.24 154.272H123.088ZM133.177 152.704C133.177 152.949 133.161 153.184 133.129 153.408H127.417C127.47 154.187 127.795 154.576 128.393 154.576C128.777 154.576 129.054 154.4 129.225 154.048H132.985C132.857 154.688 132.585 155.264 132.169 155.776C131.763 156.277 131.246 156.677 130.617 156.976C129.998 157.264 129.315 157.408 128.569 157.408C127.673 157.408 126.873 157.221 126.169 156.848C125.475 156.475 124.931 155.941 124.537 155.248C124.153 154.544 123.961 153.723 123.961 152.784C123.961 151.845 124.153 151.029 124.537 150.336C124.931 149.632 125.475 149.093 126.169 148.72C126.873 148.347 127.673 148.16 128.569 148.16C129.465 148.16 130.259 148.347 130.953 148.72C131.657 149.083 132.201 149.605 132.585 150.288C132.979 150.971 133.177 151.776 133.177 152.704ZM129.577 151.856C129.577 151.557 129.481 151.333 129.289 151.184C129.097 151.024 128.857 150.944 128.569 150.944C127.939 150.944 127.571 151.248 127.465 151.856H129.577ZM137.852 145.456V157.296H134.3V145.456H137.852ZM148.192 152.704C148.192 152.949 148.176 153.184 148.144 153.408H142.432C142.486 154.187 142.811 154.576 143.408 154.576C143.792 154.576 144.07 154.4 144.24 154.048H148C147.872 154.688 147.6 155.264 147.184 155.776C146.779 156.277 146.262 156.677 145.632 156.976C145.014 157.264 144.331 157.408 143.584 157.408C142.688 157.408 141.888 157.221 141.184 156.848C140.491 156.475 139.947 155.941 139.552 155.248C139.168 154.544 138.976 153.723 138.976 152.784C138.976 151.845 139.168 151.029 139.552 150.336C139.947 149.632 140.491 149.093 141.184 148.72C141.888 148.347 142.688 148.16 143.584 148.16C144.48 148.16 145.275 148.347 145.968 148.72C146.672 149.083 147.216 149.605 147.6 150.288C147.995 150.971 148.192 151.776 148.192 152.704ZM144.592 151.856C144.592 151.557 144.496 151.333 144.304 151.184C144.112 151.024 143.872 150.944 143.584 150.944C142.955 150.944 142.587 151.248 142.48 151.856H144.592ZM152.868 149.936C153.23 149.413 153.673 148.997 154.196 148.688C154.718 148.368 155.262 148.208 155.828 148.208V152H154.82C154.148 152 153.652 152.117 153.332 152.352C153.022 152.587 152.868 153.003 152.868 153.6V157.296H149.316V148.272H152.868V149.936ZM163.791 157.408C162.884 157.408 162.068 157.221 161.343 156.848C160.618 156.475 160.047 155.941 159.631 155.248C159.226 154.544 159.023 153.723 159.023 152.784C159.023 151.845 159.226 151.029 159.631 150.336C160.047 149.632 160.618 149.093 161.343 148.72C162.068 148.347 162.884 148.16 163.791 148.16C164.698 148.16 165.514 148.347 166.239 148.72C166.964 149.093 167.53 149.632 167.935 150.336C168.351 151.029 168.559 151.845 168.559 152.784C168.559 153.723 168.351 154.544 167.935 155.248C167.53 155.941 166.964 156.475 166.239 156.848C165.514 157.221 164.698 157.408 163.791 157.408ZM163.791 154.336C164.122 154.336 164.399 154.208 164.623 153.952C164.847 153.685 164.959 153.296 164.959 152.784C164.959 152.272 164.847 151.888 164.623 151.632C164.399 151.365 164.122 151.232 163.791 151.232C163.46 151.232 163.183 151.365 162.959 151.632C162.735 151.888 162.623 152.272 162.623 152.784C162.623 153.296 162.73 153.685 162.943 153.952C163.167 154.208 163.45 154.336 163.791 154.336ZM173.227 145.456V157.296H169.675V145.456H173.227ZM184.383 148.272V157.296H180.831V155.92C180.554 156.347 180.181 156.693 179.711 156.96C179.253 157.227 178.703 157.36 178.063 157.36C177.029 157.36 176.218 157.013 175.631 156.32C175.055 155.627 174.767 154.688 174.767 153.504V148.272H178.303V153.056C178.303 153.483 178.415 153.824 178.639 154.08C178.874 154.325 179.183 154.448 179.567 154.448C179.962 154.448 180.271 154.325 180.495 154.08C180.719 153.824 180.831 153.483 180.831 153.056V148.272H184.383ZM193.844 154.592C193.844 155.253 193.609 155.829 193.14 156.32C192.67 156.8 192.025 157.125 191.204 157.296V157.84C191.502 157.84 191.812 157.899 192.132 158.016C192.452 158.144 192.724 158.352 192.948 158.64C193.172 158.939 193.284 159.323 193.284 159.792C193.284 160.485 193.044 160.981 192.564 161.28C192.084 161.589 191.524 161.744 190.884 161.744H188.116V159.936H190.516C190.644 159.936 190.745 159.909 190.82 159.856C190.894 159.813 190.932 159.755 190.932 159.68C190.932 159.52 190.793 159.44 190.516 159.44H189.156V157.36C188.11 157.221 187.262 156.864 186.612 156.288C185.961 155.712 185.598 155.008 185.524 154.176H188.932C188.974 154.443 189.086 154.64 189.268 154.768C189.46 154.896 189.7 154.96 189.988 154.96C190.169 154.96 190.313 154.923 190.42 154.848C190.526 154.763 190.58 154.661 190.58 154.544C190.58 154.341 190.468 154.197 190.244 154.112C190.02 154.027 189.641 153.931 189.108 153.824C188.457 153.696 187.918 153.557 187.492 153.408C187.076 153.259 186.708 153.003 186.388 152.64C186.078 152.277 185.924 151.776 185.924 151.136C185.924 150.581 186.068 150.08 186.356 149.632C186.654 149.173 187.092 148.816 187.668 148.56C188.244 148.293 188.942 148.16 189.764 148.16C190.98 148.16 191.929 148.459 192.612 149.056C193.305 149.653 193.721 150.432 193.86 151.392H190.708C190.654 151.147 190.542 150.96 190.372 150.832C190.201 150.693 189.972 150.624 189.684 150.624C189.502 150.624 189.364 150.661 189.268 150.736C189.172 150.8 189.124 150.901 189.124 151.04C189.124 151.221 189.236 151.36 189.46 151.456C189.684 151.541 190.041 151.632 190.532 151.728C191.182 151.856 191.732 152 192.18 152.16C192.628 152.32 193.017 152.597 193.348 152.992C193.678 153.376 193.844 153.909 193.844 154.592ZM200.869 154.272V157.296H199.525C197.05 157.296 195.813 156.064 195.813 153.6V151.232H194.693V148.272H195.813V146.096H199.365V148.272H200.837V151.232H199.365V153.664C199.365 153.877 199.413 154.032 199.509 154.128C199.616 154.224 199.786 154.272 200.021 154.272H200.869ZM211.774 148.272V157.296H208.222V155.92C207.945 156.347 207.571 156.693 207.102 156.96C206.643 157.227 206.094 157.36 205.454 157.36C204.419 157.36 203.609 157.013 203.022 156.32C202.446 155.627 202.158 154.688 202.158 153.504V148.272H205.694V153.056C205.694 153.483 205.806 153.824 206.03 154.08C206.265 154.325 206.574 154.448 206.958 154.448C207.353 154.448 207.662 154.325 207.886 154.08C208.11 153.824 208.222 153.483 208.222 153.056V148.272H211.774ZM216.93 149.936C217.293 149.413 217.735 148.997 218.258 148.688C218.781 148.368 219.325 148.208 219.89 148.208V152H218.882C218.21 152 217.714 152.117 217.394 152.352C217.085 152.587 216.93 153.003 216.93 153.6V157.296H213.378V148.272H216.93V149.936ZM224.863 157.408C224.01 157.408 223.252 157.269 222.591 156.992C221.94 156.715 221.423 156.331 221.039 155.84C220.655 155.349 220.436 154.795 220.383 154.176H223.791C223.834 154.443 223.946 154.64 224.127 154.768C224.319 154.896 224.559 154.96 224.847 154.96C225.028 154.96 225.172 154.923 225.279 154.848C225.386 154.763 225.439 154.661 225.439 154.544C225.439 154.341 225.327 154.197 225.103 154.112C224.879 154.027 224.5 153.931 223.967 153.824C223.316 153.696 222.778 153.557 222.351 153.408C221.935 153.259 221.567 153.003 221.247 152.64C220.938 152.277 220.783 151.776 220.783 151.136C220.783 150.581 220.927 150.08 221.215 149.632C221.514 149.173 221.951 148.816 222.527 148.56C223.103 148.293 223.802 148.16 224.623 148.16C225.839 148.16 226.788 148.459 227.471 149.056C228.164 149.653 228.58 150.432 228.719 151.392H225.567C225.514 151.147 225.402 150.96 225.231 150.832C225.06 150.693 224.831 150.624 224.543 150.624C224.362 150.624 224.223 150.661 224.127 150.736C224.031 150.8 223.983 150.901 223.983 151.04C223.983 151.221 224.095 151.36 224.319 151.456C224.543 151.541 224.9 151.632 225.391 151.728C226.042 151.856 226.591 152 227.039 152.16C227.487 152.32 227.876 152.597 228.207 152.992C228.538 153.376 228.703 153.909 228.703 154.592C228.703 155.125 228.548 155.605 228.239 156.032C227.93 156.459 227.482 156.795 226.895 157.04C226.319 157.285 225.642 157.408 224.863 157.408ZM239.665 148.272V157.296H236.113V155.92C235.835 156.347 235.462 156.693 234.993 156.96C234.534 157.227 233.985 157.36 233.345 157.36C232.31 157.36 231.499 157.013 230.913 156.32C230.337 155.627 230.049 154.688 230.049 153.504V148.272H233.585V153.056C233.585 153.483 233.697 153.824 233.921 154.08C234.155 154.325 234.465 154.448 234.849 154.448C235.243 154.448 235.553 154.325 235.777 154.08C236.001 153.824 236.113 153.483 236.113 153.056V148.272H239.665ZM247.589 148.208C248.623 148.208 249.429 148.555 250.005 149.248C250.591 149.941 250.885 150.88 250.885 152.064V157.296H247.349V152.512C247.349 152.085 247.231 151.749 246.997 151.504C246.773 151.248 246.469 151.12 246.085 151.12C245.69 151.12 245.381 151.248 245.157 151.504C244.933 151.749 244.821 152.085 244.821 152.512V157.296H241.269V148.272H244.821V149.648C245.098 149.221 245.466 148.875 245.925 148.608C246.394 148.341 246.949 148.208 247.589 148.208Z" fill="#7D848D"/>
</svg>
