<svg width="330" height="160" viewBox="0 0 330 160" fill="none" xmlns="http://www.w3.org/2000/svg">
<path d="M51.192 59.024C50.696 59.024 50.28 58.856 49.944 58.52C49.608 58.184 49.44 57.768 49.44 57.272C49.44 56.776 49.608 56.36 49.944 56.024C50.28 55.688 50.696 55.52 51.192 55.52C51.672 55.52 52.08 55.688 52.416 56.024C52.752 56.36 52.92 56.776 52.92 57.272C52.92 57.768 52.752 58.184 52.416 58.52C52.08 58.856 51.672 59.024 51.192 59.024ZM52.536 60.776V74H49.8V60.776H52.536ZM58.8641 56.24V74H56.1281V56.24H58.8641ZM74.5763 67.064C74.5763 67.56 74.5443 68.008 74.4803 68.408H64.3763C64.4563 69.464 64.8483 70.312 65.5523 70.952C66.2563 71.592 67.1203 71.912 68.1443 71.912C69.6163 71.912 70.6563 71.296 71.2643 70.064H74.2162C73.8163 71.28 73.0883 72.28 72.0323 73.064C70.9923 73.832 69.6963 74.216 68.1443 74.216C66.8803 74.216 65.7443 73.936 64.7363 73.376C63.7443 72.8 62.9603 72 62.3843 70.976C61.8243 69.936 61.5443 68.736 61.5443 67.376C61.5443 66.016 61.8163 64.824 62.3603 63.8C62.9203 62.76 63.6963 61.96 64.6883 61.4C65.6963 60.84 66.8483 60.56 68.1443 60.56C69.3923 60.56 70.5043 60.832 71.4803 61.376C72.4563 61.92 73.2163 62.688 73.7603 63.68C74.3043 64.656 74.5763 65.784 74.5763 67.064ZM71.7203 66.2C71.7043 65.192 71.3443 64.384 70.6403 63.776C69.9363 63.168 69.0643 62.864 68.0243 62.864C67.0803 62.864 66.2723 63.168 65.6003 63.776C64.9283 64.368 64.5283 65.176 64.4003 66.2H71.7203ZM99.5111 60.56C100.551 60.56 101.479 60.776 102.295 61.208C103.127 61.64 103.775 62.28 104.239 63.128C104.719 63.976 104.959 65 104.959 66.2V74H102.247V66.608C102.247 65.424 101.951 64.52 101.359 63.896C100.767 63.256 99.9591 62.936 98.9351 62.936C97.9111 62.936 97.0951 63.256 96.4871 63.896C95.8951 64.52 95.5991 65.424 95.5991 66.608V74H92.8871V66.608C92.8871 65.424 92.5911 64.52 91.9991 63.896C91.4071 63.256 90.5991 62.936 89.5751 62.936C88.5511 62.936 87.7351 63.256 87.1271 63.896C86.5351 64.52 86.2391 65.424 86.2391 66.608V74H83.5031V60.776H86.2391V62.288C86.6871 61.744 87.2551 61.32 87.9431 61.016C88.6311 60.712 89.3671 60.56 90.1511 60.56C91.2071 60.56 92.1511 60.784 92.9831 61.232C93.8151 61.68 94.4551 62.328 94.9031 63.176C95.3031 62.376 95.9271 61.744 96.7751 61.28C97.6231 60.8 98.5351 60.56 99.5111 60.56ZM107.529 67.328C107.529 66 107.801 64.824 108.345 63.8C108.905 62.776 109.657 61.984 110.601 61.424C111.561 60.848 112.617 60.56 113.769 60.56C114.809 60.56 115.713 60.768 116.481 61.184C117.265 61.584 117.889 62.088 118.353 62.696V60.776H121.113V74H118.353V72.032C117.889 72.656 117.257 73.176 116.457 73.592C115.657 74.008 114.745 74.216 113.721 74.216C112.585 74.216 111.545 73.928 110.601 73.352C109.657 72.76 108.905 71.944 108.345 70.904C107.801 69.848 107.529 68.656 107.529 67.328ZM118.353 67.376C118.353 66.464 118.161 65.672 117.777 65C117.409 64.328 116.921 63.816 116.313 63.464C115.705 63.112 115.049 62.936 114.345 62.936C113.641 62.936 112.985 63.112 112.377 63.464C111.769 63.8 111.273 64.304 110.889 64.976C110.521 65.632 110.337 66.416 110.337 67.328C110.337 68.24 110.521 69.04 110.889 69.728C111.273 70.416 111.769 70.944 112.377 71.312C113.001 71.664 113.657 71.84 114.345 71.84C115.049 71.84 115.705 71.664 116.313 71.312C116.921 70.96 117.409 70.448 117.777 69.776C118.161 69.088 118.353 68.288 118.353 67.376ZM123.794 67.376C123.794 66.016 124.066 64.824 124.61 63.8C125.17 62.76 125.938 61.96 126.914 61.4C127.89 60.84 129.01 60.56 130.274 60.56C131.874 60.56 133.194 60.944 134.234 61.712C135.29 62.464 136.002 63.544 136.37 64.952H133.418C133.178 64.296 132.794 63.784 132.266 63.416C131.738 63.048 131.074 62.864 130.274 62.864C129.154 62.864 128.258 63.264 127.586 64.064C126.93 64.848 126.602 65.952 126.602 67.376C126.602 68.8 126.93 69.912 127.586 70.712C128.258 71.512 129.154 71.912 130.274 71.912C131.858 71.912 132.906 71.216 133.418 69.824H136.37C135.986 71.168 135.266 72.24 134.21 73.04C133.154 73.824 131.842 74.216 130.274 74.216C129.01 74.216 127.89 73.936 126.914 73.376C125.938 72.8 125.17 72 124.61 70.976C124.066 69.936 123.794 68.736 123.794 67.376ZM151.217 67.064C151.217 67.56 151.185 68.008 151.121 68.408H141.017C141.097 69.464 141.489 70.312 142.193 70.952C142.897 71.592 143.761 71.912 144.785 71.912C146.257 71.912 147.297 71.296 147.905 70.064H150.857C150.457 71.28 149.729 72.28 148.673 73.064C147.633 73.832 146.337 74.216 144.785 74.216C143.521 74.216 142.385 73.936 141.377 73.376C140.385 72.8 139.601 72 139.025 70.976C138.465 69.936 138.185 68.736 138.185 67.376C138.185 66.016 138.457 64.824 139.001 63.8C139.561 62.76 140.337 61.96 141.329 61.4C142.337 60.84 143.489 60.56 144.785 60.56C146.033 60.56 147.145 60.832 148.121 61.376C149.097 61.92 149.857 62.688 150.401 63.68C150.945 64.656 151.217 65.784 151.217 67.064ZM148.361 66.2C148.345 65.192 147.985 64.384 147.281 63.776C146.577 63.168 145.705 62.864 144.665 62.864C143.721 62.864 142.913 63.168 142.241 63.776C141.569 64.368 141.169 65.176 141.041 66.2H148.361ZM156.645 62.696C157.045 62.024 157.573 61.504 158.229 61.136C158.901 60.752 159.693 60.56 160.605 60.56V63.392H159.909C158.837 63.392 158.021 63.664 157.461 64.208C156.917 64.752 156.645 65.696 156.645 67.04V74H153.909V60.776H156.645V62.696ZM162.208 67.328C162.208 66 162.48 64.824 163.024 63.8C163.584 62.776 164.336 61.984 165.28 61.424C166.24 60.848 167.296 60.56 168.448 60.56C169.488 60.56 170.392 60.768 171.16 61.184C171.944 61.584 172.568 62.088 173.032 62.696V60.776H175.792V74H173.032V72.032C172.568 72.656 171.936 73.176 171.136 73.592C170.336 74.008 169.424 74.216 168.4 74.216C167.264 74.216 166.224 73.928 165.28 73.352C164.336 72.76 163.584 71.944 163.024 70.904C162.48 69.848 162.208 68.656 162.208 67.328ZM173.032 67.376C173.032 66.464 172.84 65.672 172.456 65C172.088 64.328 171.6 63.816 170.992 63.464C170.384 63.112 169.728 62.936 169.024 62.936C168.32 62.936 167.664 63.112 167.056 63.464C166.448 63.8 165.952 64.304 165.568 64.976C165.2 65.632 165.016 66.416 165.016 67.328C165.016 68.24 165.2 69.04 165.568 69.728C165.952 70.416 166.448 70.944 167.056 71.312C167.68 71.664 168.336 71.84 169.024 71.84C169.728 71.84 170.384 71.664 170.992 71.312C171.6 70.96 172.088 70.448 172.456 69.776C172.84 69.088 173.032 68.288 173.032 67.376ZM191.29 60.776L183.178 80.216H180.346L183.034 73.784L177.826 60.776H180.874L184.594 70.856L188.458 60.776H191.29ZM192.443 67.328C192.443 66 192.715 64.824 193.259 63.8C193.819 62.776 194.571 61.984 195.515 61.424C196.475 60.848 197.531 60.56 198.683 60.56C199.723 60.56 200.627 60.768 201.395 61.184C202.179 61.584 202.803 62.088 203.267 62.696V60.776H206.027V74H203.267V72.032C202.803 72.656 202.171 73.176 201.371 73.592C200.571 74.008 199.659 74.216 198.635 74.216C197.499 74.216 196.459 73.928 195.515 73.352C194.571 72.76 193.819 71.944 193.259 70.904C192.715 69.848 192.443 68.656 192.443 67.328ZM203.267 67.376C203.267 66.464 203.075 65.672 202.691 65C202.323 64.328 201.835 63.816 201.227 63.464C200.619 63.112 199.963 62.936 199.259 62.936C198.555 62.936 197.899 63.112 197.291 63.464C196.683 63.8 196.187 64.304 195.803 64.976C195.435 65.632 195.251 66.416 195.251 67.328C195.251 68.24 195.435 69.04 195.803 69.728C196.187 70.416 196.683 70.944 197.291 71.312C197.915 71.664 198.571 71.84 199.259 71.84C199.963 71.84 200.619 71.664 201.227 71.312C201.835 70.96 202.323 70.448 202.691 69.776C203.075 69.088 203.267 68.288 203.267 67.376ZM218.591 62.744C219.055 62.104 219.687 61.584 220.487 61.184C221.303 60.768 222.207 60.56 223.199 60.56C224.367 60.56 225.423 60.84 226.367 61.4C227.311 61.96 228.055 62.76 228.599 63.8C229.143 64.824 229.415 66 229.415 67.328C229.415 68.656 229.143 69.848 228.599 70.904C228.055 71.944 227.303 72.76 226.343 73.352C225.399 73.928 224.351 74.216 223.199 74.216C222.175 74.216 221.263 74.016 220.463 73.616C219.679 73.216 219.055 72.704 218.591 72.08V74H215.855V56.24H218.591V62.744ZM226.631 67.328C226.631 66.416 226.439 65.632 226.055 64.976C225.687 64.304 225.191 63.8 224.567 63.464C223.959 63.112 223.303 62.936 222.599 62.936C221.911 62.936 221.255 63.112 220.631 63.464C220.023 63.816 219.527 64.328 219.143 65C218.775 65.672 218.591 66.464 218.591 67.376C218.591 68.288 218.775 69.088 219.143 69.776C219.527 70.448 220.023 70.96 220.631 71.312C221.255 71.664 221.911 71.84 222.599 71.84C223.303 71.84 223.959 71.664 224.567 71.312C225.191 70.944 225.687 70.416 226.055 69.728C226.439 69.04 226.631 68.24 226.631 67.328ZM231.208 67.328C231.208 66 231.48 64.824 232.024 63.8C232.584 62.776 233.336 61.984 234.28 61.424C235.24 60.848 236.296 60.56 237.448 60.56C238.488 60.56 239.392 60.768 240.16 61.184C240.944 61.584 241.568 62.088 242.032 62.696V60.776H244.792V74H242.032V72.032C241.568 72.656 240.936 73.176 240.136 73.592C239.336 74.008 238.424 74.216 237.4 74.216C236.264 74.216 235.224 73.928 234.28 73.352C233.336 72.76 232.584 71.944 232.024 70.904C231.48 69.848 231.208 68.656 231.208 67.328ZM242.032 67.376C242.032 66.464 241.84 65.672 241.456 65C241.088 64.328 240.6 63.816 239.992 63.464C239.384 63.112 238.728 62.936 238.024 62.936C237.32 62.936 236.664 63.112 236.056 63.464C235.448 63.8 234.952 64.304 234.568 64.976C234.2 65.632 234.016 66.416 234.016 67.328C234.016 68.24 234.2 69.04 234.568 69.728C234.952 70.416 235.448 70.944 236.056 71.312C236.68 71.664 237.336 71.84 238.024 71.84C238.728 71.84 239.384 71.664 239.992 71.312C240.6 70.96 241.088 70.448 241.456 69.776C241.84 69.088 242.032 68.288 242.032 67.376ZM258.25 70.304C258.25 71.344 257.866 72.224 257.098 72.944C256.33 73.648 255.29 74.056 253.978 74.168V75.152C254.906 75.152 255.658 75.368 256.234 75.8C256.81 76.248 257.098 76.872 257.098 77.672C257.098 78.472 256.81 79.104 256.234 79.568C255.658 80.048 254.93 80.288 254.05 80.288H250.882V78.56H253.498C253.946 78.56 254.282 78.496 254.506 78.368C254.73 78.24 254.842 78.008 254.842 77.672C254.842 77.336 254.73 77.104 254.506 76.976C254.282 76.848 253.946 76.784 253.498 76.784H252.178V74.144C250.882 73.984 249.818 73.512 248.986 72.728C248.154 71.944 247.714 71.016 247.666 69.944H250.498C250.546 70.504 250.81 70.976 251.29 71.36C251.786 71.728 252.402 71.912 253.138 71.912C253.906 71.912 254.498 71.768 254.914 71.48C255.346 71.176 255.562 70.792 255.562 70.328C255.562 69.832 255.322 69.464 254.842 69.224C254.378 68.984 253.634 68.72 252.61 68.432C251.618 68.16 250.81 67.896 250.186 67.64C249.562 67.384 249.018 66.992 248.554 66.464C248.106 65.936 247.882 65.24 247.882 64.376C247.882 63.672 248.09 63.032 248.506 62.456C248.922 61.864 249.514 61.4 250.282 61.064C251.066 60.728 251.962 60.56 252.97 60.56C254.474 60.56 255.682 60.944 256.594 61.712C257.522 62.464 258.018 63.496 258.082 64.808H255.346C255.298 64.216 255.058 63.744 254.626 63.392C254.194 63.04 253.61 62.864 252.874 62.864C252.154 62.864 251.602 63 251.218 63.272C250.834 63.544 250.642 63.904 250.642 64.352C250.642 64.704 250.77 65 251.026 65.24C251.282 65.48 251.594 65.672 251.962 65.816C252.33 65.944 252.874 66.112 253.594 66.32C254.554 66.576 255.338 66.84 255.946 67.112C256.57 67.368 257.106 67.752 257.554 68.264C258.002 68.776 258.234 69.456 258.25 70.304ZM263.942 56.24V74H261.206V56.24H263.942ZM266.622 67.328C266.622 66 266.894 64.824 267.438 63.8C267.998 62.776 268.75 61.984 269.694 61.424C270.654 60.848 271.71 60.56 272.862 60.56C273.902 60.56 274.806 60.768 275.574 61.184C276.358 61.584 276.982 62.088 277.446 62.696V60.776H280.206V74H277.446V72.032C276.982 72.656 276.35 73.176 275.55 73.592C274.75 74.008 273.838 74.216 272.814 74.216C271.678 74.216 270.638 73.928 269.694 73.352C268.75 72.76 267.998 71.944 267.438 70.904C266.894 69.848 266.622 68.656 266.622 67.328ZM277.446 67.376C277.446 66.464 277.254 65.672 276.87 65C276.502 64.328 276.014 63.816 275.406 63.464C274.798 63.112 274.142 62.936 273.438 62.936C272.734 62.936 272.078 63.112 271.47 63.464C270.862 63.8 270.366 64.304 269.982 64.976C269.614 65.632 269.43 66.416 269.43 67.328C269.43 68.24 269.614 69.04 269.982 69.728C270.366 70.416 270.862 70.944 271.47 71.312C272.094 71.664 272.75 71.84 273.438 71.84C274.142 71.84 274.798 71.664 275.406 71.312C276.014 70.96 276.502 70.448 276.87 69.776C277.254 69.088 277.446 68.288 277.446 67.376Z" fill="#FF7029"/>
<path d="M186.842 95.2928C196.405 87.3934 239.458 77.4578 275.562 94.799C255.596 89.3444 214.791 85.401 186.842 95.2928Z" fill="#FF7029"/>
<path d="M42.7519 118.672V130H39.2159V124.352L37.4719 130H34.4319L32.6879 124.352V130H29.1359V118.672H33.4879L35.9839 125.472L38.4159 118.672H42.7519ZM53.0907 125.408C53.0907 125.653 53.0747 125.888 53.0427 126.112H47.3307C47.384 126.891 47.7094 127.28 48.3067 127.28C48.6907 127.28 48.968 127.104 49.1387 126.752H52.8987C52.7707 127.392 52.4987 127.968 52.0827 128.48C51.6774 128.981 51.16 129.381 50.5307 129.68C49.912 129.968 49.2294 130.112 48.4827 130.112C47.5867 130.112 46.7867 129.925 46.0827 129.552C45.3894 129.179 44.8454 128.645 44.4507 127.952C44.0667 127.248 43.8747 126.427 43.8747 125.488C43.8747 124.549 44.0667 123.733 44.4507 123.04C44.8454 122.336 45.3894 121.797 46.0827 121.424C46.7867 121.051 47.5867 120.864 48.4827 120.864C49.3787 120.864 50.1734 121.051 50.8667 121.424C51.5707 121.787 52.1147 122.309 52.4987 122.992C52.8934 123.675 53.0907 124.48 53.0907 125.408ZM49.4907 124.56C49.4907 124.261 49.3947 124.037 49.2027 123.888C49.0107 123.728 48.7707 123.648 48.4827 123.648C47.8534 123.648 47.4854 123.952 47.3787 124.56H49.4907ZM59.9901 130L57.7661 126.4V130H54.2141V118.16H57.7661V124.352L60.0221 120.976H64.1501L60.7741 125.52L64.2301 130H59.9901ZM64.5466 125.488C64.5466 124.539 64.7066 123.717 65.0266 123.024C65.3572 122.32 65.8052 121.787 66.3706 121.424C66.9359 121.051 67.5706 120.864 68.2746 120.864C68.8612 120.864 69.3679 120.987 69.7946 121.232C70.2212 121.467 70.5466 121.792 70.7706 122.208V120.976H74.3066V130H70.7706V128.768C70.5466 129.184 70.2212 129.515 69.7946 129.76C69.3679 129.995 68.8612 130.112 68.2746 130.112C67.5706 130.112 66.9359 129.931 66.3706 129.568C65.8052 129.195 65.3572 128.661 65.0266 127.968C64.7066 127.264 64.5466 126.437 64.5466 125.488ZM70.7706 125.488C70.7706 125.008 70.6479 124.635 70.4026 124.368C70.1572 124.101 69.8426 123.968 69.4586 123.968C69.0746 123.968 68.7599 124.101 68.5146 124.368C68.2692 124.635 68.1466 125.008 68.1466 125.488C68.1466 125.968 68.2692 126.341 68.5146 126.608C68.7599 126.875 69.0746 127.008 69.4586 127.008C69.8426 127.008 70.1572 126.875 70.4026 126.608C70.6479 126.341 70.7706 125.968 70.7706 125.488ZM82.2216 120.912C83.2562 120.912 84.0616 121.259 84.6376 121.952C85.2242 122.645 85.5176 123.584 85.5176 124.768V130H81.9816V125.216C81.9816 124.789 81.8642 124.453 81.6296 124.208C81.4056 123.952 81.1016 123.824 80.7176 123.824C80.3229 123.824 80.0136 123.952 79.7896 124.208C79.5656 124.453 79.4536 124.789 79.4536 125.216V130H75.9016V120.976H79.4536V122.352C79.7309 121.925 80.0989 121.579 80.5576 121.312C81.0269 121.045 81.5816 120.912 82.2216 120.912ZM94.3218 128.288H90.5458L89.9858 130H86.2578L90.4018 118.672H94.4978L98.6258 130H94.8818L94.3218 128.288ZM93.4578 125.616L92.4338 122.464L91.4098 125.616H93.4578ZM102.985 122.208C103.209 121.792 103.529 121.467 103.945 121.232C104.371 120.987 104.878 120.864 105.465 120.864C106.169 120.864 106.803 121.051 107.369 121.424C107.934 121.787 108.377 122.32 108.697 123.024C109.027 123.717 109.193 124.539 109.193 125.488C109.193 126.437 109.027 127.264 108.697 127.968C108.377 128.661 107.934 129.195 107.369 129.568C106.803 129.931 106.169 130.112 105.465 130.112C104.878 130.112 104.371 129.995 103.945 129.76C103.529 129.515 103.209 129.184 102.985 128.768V134.32H99.4328V120.976H102.985V122.208ZM105.593 125.488C105.593 125.008 105.47 124.635 105.225 124.368C104.979 124.101 104.665 123.968 104.281 123.968C103.897 123.968 103.582 124.101 103.337 124.368C103.091 124.635 102.969 125.008 102.969 125.488C102.969 125.968 103.091 126.341 103.337 126.608C103.582 126.875 103.897 127.008 104.281 127.008C104.665 127.008 104.979 126.875 105.225 126.608C105.47 126.341 105.593 125.968 105.593 125.488ZM113.86 122.208C114.084 121.792 114.404 121.467 114.82 121.232C115.246 120.987 115.753 120.864 116.34 120.864C117.044 120.864 117.678 121.051 118.244 121.424C118.809 121.787 119.252 122.32 119.572 123.024C119.902 123.717 120.068 124.539 120.068 125.488C120.068 126.437 119.902 127.264 119.572 127.968C119.252 128.661 118.809 129.195 118.244 129.568C117.678 129.931 117.044 130.112 116.34 130.112C115.753 130.112 115.246 129.995 114.82 129.76C114.404 129.515 114.084 129.184 113.86 128.768V134.32H110.308V120.976H113.86V122.208ZM116.468 125.488C116.468 125.008 116.345 124.635 116.1 124.368C115.854 124.101 115.54 123.968 115.156 123.968C114.772 123.968 114.457 124.101 114.212 124.368C113.966 124.635 113.844 125.008 113.844 125.488C113.844 125.968 113.966 126.341 114.212 126.608C114.457 126.875 114.772 127.008 115.156 127.008C115.54 127.008 115.854 126.875 116.1 126.608C116.345 126.341 116.468 125.968 116.468 125.488ZM125.694 120.256C125.075 120.256 124.579 120.091 124.206 119.76C123.832 119.429 123.646 119.013 123.646 118.512C123.646 118 123.832 117.579 124.206 117.248C124.579 116.907 125.075 116.736 125.694 116.736C126.302 116.736 126.792 116.907 127.166 117.248C127.539 117.579 127.726 118 127.726 118.512C127.726 119.013 127.539 119.429 127.166 119.76C126.792 120.091 126.302 120.256 125.694 120.256ZM127.454 120.976V130H123.902V120.976H127.454ZM132.61 118.16V130H129.058V118.16H132.61ZM142.95 125.408C142.95 125.653 142.934 125.888 142.902 126.112H137.19C137.243 126.891 137.569 127.28 138.166 127.28C138.55 127.28 138.827 127.104 138.998 126.752H142.758C142.63 127.392 142.358 127.968 141.942 128.48C141.537 128.981 141.019 129.381 140.39 129.68C139.771 129.968 139.089 130.112 138.342 130.112C137.446 130.112 136.646 129.925 135.942 129.552C135.249 129.179 134.705 128.645 134.31 127.952C133.926 127.248 133.734 126.427 133.734 125.488C133.734 124.549 133.926 123.733 134.31 123.04C134.705 122.336 135.249 121.797 135.942 121.424C136.646 121.051 137.446 120.864 138.342 120.864C139.238 120.864 140.033 121.051 140.726 121.424C141.43 121.787 141.974 122.309 142.358 122.992C142.753 123.675 142.95 124.48 142.95 125.408ZM139.35 124.56C139.35 124.261 139.254 124.037 139.062 123.888C138.87 123.728 138.63 123.648 138.342 123.648C137.713 123.648 137.345 123.952 137.238 124.56H139.35ZM150.04 120.864C150.627 120.864 151.134 120.987 151.56 121.232C151.987 121.467 152.312 121.792 152.536 122.208V120.976H156.072V129.84C156.072 130.683 155.918 131.451 155.608 132.144C155.299 132.837 154.798 133.392 154.104 133.808C153.422 134.224 152.542 134.432 151.464 134.432C150.014 134.432 148.862 134.091 148.008 133.408C147.166 132.736 146.686 131.819 146.568 130.656H150.056C150.152 131.125 150.536 131.36 151.208 131.36C151.624 131.36 151.95 131.253 152.184 131.04C152.419 130.827 152.536 130.427 152.536 129.84V128.768C152.312 129.184 151.987 129.515 151.56 129.76C151.134 129.995 150.627 130.112 150.04 130.112C149.336 130.112 148.702 129.931 148.136 129.568C147.571 129.195 147.123 128.661 146.792 127.968C146.472 127.264 146.312 126.437 146.312 125.488C146.312 124.539 146.472 123.717 146.792 123.024C147.123 122.32 147.571 121.787 148.136 121.424C148.702 121.051 149.336 120.864 150.04 120.864ZM152.536 125.488C152.536 125.008 152.414 124.635 152.168 124.368C151.923 124.101 151.608 123.968 151.224 123.968C150.84 123.968 150.526 124.101 150.28 124.368C150.035 124.635 149.912 125.008 149.912 125.488C149.912 125.968 150.035 126.341 150.28 126.608C150.526 126.875 150.84 127.008 151.224 127.008C151.608 127.008 151.923 126.875 152.168 126.608C152.414 126.341 152.536 125.968 152.536 125.488ZM166.403 125.408C166.403 125.653 166.387 125.888 166.355 126.112H160.643C160.697 126.891 161.022 127.28 161.619 127.28C162.003 127.28 162.281 127.104 162.451 126.752H166.211C166.083 127.392 165.811 127.968 165.395 128.48C164.99 128.981 164.473 129.381 163.843 129.68C163.225 129.968 162.542 130.112 161.795 130.112C160.899 130.112 160.099 129.925 159.395 129.552C158.702 129.179 158.158 128.645 157.763 127.952C157.379 127.248 157.187 126.427 157.187 125.488C157.187 124.549 157.379 123.733 157.763 123.04C158.158 122.336 158.702 121.797 159.395 121.424C160.099 121.051 160.899 120.864 161.795 120.864C162.691 120.864 163.486 121.051 164.179 121.424C164.883 121.787 165.427 122.309 165.811 122.992C166.206 123.675 166.403 124.48 166.403 125.408ZM162.803 124.56C162.803 124.261 162.707 124.037 162.515 123.888C162.323 123.728 162.083 123.648 161.795 123.648C161.166 123.648 160.798 123.952 160.691 124.56H162.803ZM170.935 127.056H174.695V130H167.047V127.216L170.487 123.92H167.095V120.976H174.535V123.76L170.935 127.056ZM177.6 120.256C176.981 120.256 176.485 120.091 176.112 119.76C175.738 119.429 175.552 119.013 175.552 118.512C175.552 118 175.738 117.579 176.112 117.248C176.485 116.907 176.981 116.736 177.6 116.736C178.208 116.736 178.698 116.907 179.072 117.248C179.445 117.579 179.632 118 179.632 118.512C179.632 119.013 179.445 119.429 179.072 119.76C178.698 120.091 178.208 120.256 177.6 120.256ZM179.36 120.976V130H175.808V120.976H179.36ZM184.516 118.16V130H180.964V118.16H184.516ZM194.856 125.408C194.856 125.653 194.84 125.888 194.808 126.112H189.096C189.15 126.891 189.475 127.28 190.072 127.28C190.456 127.28 190.734 127.104 190.904 126.752H194.664C194.536 127.392 194.264 127.968 193.848 128.48C193.443 128.981 192.926 129.381 192.296 129.68C191.678 129.968 190.995 130.112 190.248 130.112C189.352 130.112 188.552 129.925 187.848 129.552C187.155 129.179 186.611 128.645 186.216 127.952C185.832 127.248 185.64 126.427 185.64 125.488C185.64 124.549 185.832 123.733 186.216 123.04C186.611 122.336 187.155 121.797 187.848 121.424C188.552 121.051 189.352 120.864 190.248 120.864C191.144 120.864 191.939 121.051 192.632 121.424C193.336 121.787 193.88 122.309 194.264 122.992C194.659 123.675 194.856 124.48 194.856 125.408ZM191.256 124.56C191.256 124.261 191.16 124.037 190.968 123.888C190.776 123.728 190.536 123.648 190.248 123.648C189.619 123.648 189.251 123.952 189.144 124.56H191.256ZM199.532 122.64C199.894 122.117 200.337 121.701 200.86 121.392C201.382 121.072 201.926 120.912 202.492 120.912V124.704H201.484C200.812 124.704 200.316 124.821 199.996 125.056C199.686 125.291 199.532 125.707 199.532 126.304V130H195.98V120.976H199.532V122.64ZM205.24 120.256C204.622 120.256 204.126 120.091 203.752 119.76C203.379 119.429 203.192 119.013 203.192 118.512C203.192 118 203.379 117.579 203.752 117.248C204.126 116.907 204.622 116.736 205.24 116.736C205.848 116.736 206.339 116.907 206.712 117.248C207.086 117.579 207.272 118 207.272 118.512C207.272 119.013 207.086 119.429 206.712 119.76C206.339 120.091 205.848 120.256 205.24 120.256ZM207 120.976V130H203.448V120.976H207ZM214.925 120.912C215.959 120.912 216.765 121.259 217.341 121.952C217.927 122.645 218.221 123.584 218.221 124.768V130H214.685V125.216C214.685 124.789 214.567 124.453 214.333 124.208C214.109 123.952 213.805 123.824 213.421 123.824C213.026 123.824 212.717 123.952 212.493 124.208C212.269 124.453 212.157 124.789 212.157 125.216V130H208.605V120.976H212.157V122.352C212.434 121.925 212.802 121.579 213.261 121.312C213.73 121.045 214.285 120.912 214.925 120.912ZM221.553 120.256C220.934 120.256 220.438 120.091 220.065 119.76C219.692 119.429 219.505 119.013 219.505 118.512C219.505 118 219.692 117.579 220.065 117.248C220.438 116.907 220.934 116.736 221.553 116.736C222.161 116.736 222.652 116.907 223.025 117.248C223.398 117.579 223.585 118 223.585 118.512C223.585 119.013 223.398 119.429 223.025 119.76C222.652 120.091 222.161 120.256 221.553 120.256ZM223.313 120.976V130H219.761V120.976H223.313ZM236.372 125.408C236.372 125.653 236.356 125.888 236.324 126.112H230.612C230.665 126.891 230.991 127.28 231.588 127.28C231.972 127.28 232.249 127.104 232.42 126.752H236.18C236.052 127.392 235.78 127.968 235.364 128.48C234.959 128.981 234.441 129.381 233.812 129.68C233.193 129.968 232.511 130.112 231.764 130.112C230.868 130.112 230.068 129.925 229.364 129.552C228.671 129.179 228.127 128.645 227.732 127.952C227.348 127.248 227.156 126.427 227.156 125.488C227.156 124.549 227.348 123.733 227.732 123.04C228.127 122.336 228.671 121.797 229.364 121.424C230.068 121.051 230.868 120.864 231.764 120.864C232.66 120.864 233.455 121.051 234.148 121.424C234.852 121.787 235.396 122.309 235.78 122.992C236.175 123.675 236.372 124.48 236.372 125.408ZM232.772 124.56C232.772 124.261 232.676 124.037 232.484 123.888C232.292 123.728 232.052 123.648 231.764 123.648C231.135 123.648 230.767 123.952 230.66 124.56H232.772ZM240.743 120.864C241.33 120.864 241.837 120.987 242.263 121.232C242.69 121.467 243.015 121.792 243.239 122.208V120.976H246.775V129.84C246.775 130.683 246.621 131.451 246.311 132.144C246.002 132.837 245.501 133.392 244.807 133.808C244.125 134.224 243.245 134.432 242.167 134.432C240.717 134.432 239.565 134.091 238.711 133.408C237.869 132.736 237.389 131.819 237.271 130.656H240.759C240.855 131.125 241.239 131.36 241.911 131.36C242.327 131.36 242.653 131.253 242.887 131.04C243.122 130.827 243.239 130.427 243.239 129.84V128.768C243.015 129.184 242.69 129.515 242.263 129.76C241.837 129.995 241.33 130.112 240.743 130.112C240.039 130.112 239.405 129.931 238.839 129.568C238.274 129.195 237.826 128.661 237.495 127.968C237.175 127.264 237.015 126.437 237.015 125.488C237.015 124.539 237.175 123.717 237.495 123.024C237.826 122.32 238.274 121.787 238.839 121.424C239.405 121.051 240.039 120.864 240.743 120.864ZM243.239 125.488C243.239 125.008 243.117 124.635 242.871 124.368C242.626 124.101 242.311 123.968 241.927 123.968C241.543 123.968 241.229 124.101 240.983 124.368C240.738 124.635 240.615 125.008 240.615 125.488C240.615 125.968 240.738 126.341 240.983 126.608C241.229 126.875 241.543 127.008 241.927 127.008C242.311 127.008 242.626 126.875 242.871 126.608C243.117 126.341 243.239 125.968 243.239 125.488ZM245.255 117.152C245.255 118.208 244.973 119.013 244.407 119.568C243.853 120.123 243.133 120.4 242.247 120.4C241.362 120.4 240.637 120.123 240.071 119.568C239.517 119.013 239.239 118.208 239.239 117.152V116.88H240.887C240.887 117.211 240.989 117.461 241.191 117.632C241.394 117.792 241.746 117.872 242.247 117.872C242.749 117.872 243.101 117.792 243.303 117.632C243.506 117.461 243.607 117.211 243.607 116.88H245.255V117.152ZM251.922 118.16V130H248.37V118.16H251.922ZM262.263 125.408C262.263 125.653 262.247 125.888 262.215 126.112H256.503C256.556 126.891 256.881 127.28 257.479 127.28C257.863 127.28 258.14 127.104 258.311 126.752H262.071C261.943 127.392 261.671 127.968 261.255 128.48C260.849 128.981 260.332 129.381 259.703 129.68C259.084 129.968 258.401 130.112 257.655 130.112C256.759 130.112 255.959 129.925 255.255 129.552C254.561 129.179 254.017 128.645 253.623 127.952C253.239 127.248 253.047 126.427 253.047 125.488C253.047 124.549 253.239 123.733 253.623 123.04C254.017 122.336 254.561 121.797 255.255 121.424C255.959 121.051 256.759 120.864 257.655 120.864C258.551 120.864 259.345 121.051 260.039 121.424C260.743 121.787 261.287 122.309 261.671 122.992C262.065 123.675 262.263 124.48 262.263 125.408ZM258.663 124.56C258.663 124.261 258.567 124.037 258.375 123.888C258.183 123.728 257.943 123.648 257.655 123.648C257.025 123.648 256.657 123.952 256.551 124.56H258.663ZM269.706 120.912C270.741 120.912 271.546 121.259 272.122 121.952C272.709 122.645 273.002 123.584 273.002 124.768V130H269.466V125.216C269.466 124.789 269.349 124.453 269.114 124.208C268.89 123.952 268.586 123.824 268.202 123.824C267.807 123.824 267.498 123.952 267.274 124.208C267.05 124.453 266.938 124.789 266.938 125.216V130H263.386V120.976H266.938V122.352C267.215 121.925 267.583 121.579 268.042 121.312C268.511 121.045 269.066 120.912 269.706 120.912ZM274.062 125.488C274.062 124.549 274.254 123.733 274.638 123.04C275.033 122.336 275.577 121.797 276.27 121.424C276.974 121.051 277.774 120.864 278.67 120.864C279.844 120.864 280.83 121.195 281.63 121.856C282.441 122.517 282.953 123.435 283.166 124.608H279.406C279.268 124.139 278.996 123.904 278.59 123.904C278.302 123.904 278.073 124.037 277.902 124.304C277.742 124.571 277.662 124.965 277.662 125.488C277.662 126.011 277.742 126.405 277.902 126.672C278.073 126.939 278.302 127.072 278.59 127.072C278.996 127.072 279.268 126.837 279.406 126.368H283.166C282.953 127.541 282.441 128.459 281.63 129.12C280.83 129.781 279.844 130.112 278.67 130.112C277.774 130.112 276.974 129.925 276.27 129.552C275.577 129.179 275.033 128.645 274.638 127.952C274.254 127.248 274.062 126.427 274.062 125.488ZM293.028 125.408C293.028 125.653 293.012 125.888 292.98 126.112H287.268C287.322 126.891 287.647 127.28 288.244 127.28C288.628 127.28 288.906 127.104 289.076 126.752H292.836C292.708 127.392 292.436 127.968 292.02 128.48C291.615 128.981 291.098 129.381 290.468 129.68C289.85 129.968 289.167 130.112 288.42 130.112C287.524 130.112 286.724 129.925 286.02 129.552C285.327 129.179 284.783 128.645 284.388 127.952C284.004 127.248 283.812 126.427 283.812 125.488C283.812 124.549 284.004 123.733 284.388 123.04C284.783 122.336 285.327 121.797 286.02 121.424C286.724 121.051 287.524 120.864 288.42 120.864C289.316 120.864 290.111 121.051 290.804 121.424C291.508 121.787 292.052 122.309 292.436 122.992C292.831 123.675 293.028 124.48 293.028 125.408ZM289.428 124.56C289.428 124.261 289.332 124.037 289.14 123.888C288.948 123.728 288.708 123.648 288.42 123.648C287.791 123.648 287.423 123.952 287.316 124.56H289.428ZM297.704 118.16V130H294.152V118.16H297.704ZM301.1 120.256C300.481 120.256 299.985 120.091 299.612 119.76C299.238 119.429 299.052 119.013 299.052 118.512C299.052 118 299.238 117.579 299.612 117.248C299.985 116.907 300.481 116.736 301.1 116.736C301.708 116.736 302.198 116.907 302.572 117.248C302.945 117.579 303.132 118 303.132 118.512C303.132 119.013 302.945 119.429 302.572 119.76C302.198 120.091 301.708 120.256 301.1 120.256ZM302.86 120.976V130H299.308V120.976H302.86ZM68.4794 144.912C69.514 144.912 70.3194 145.259 70.8954 145.952C71.482 146.645 71.7754 147.584 71.7754 148.768V154H68.2394V149.216C68.2394 148.789 68.122 148.453 67.8874 148.208C67.6634 147.952 67.3594 147.824 66.9754 147.824C66.5807 147.824 66.2714 147.952 66.0474 148.208C65.8234 148.453 65.7114 148.789 65.7114 149.216V154H62.1594V142.16H65.7114V146.352C65.9887 145.925 66.3567 145.579 66.8154 145.312C67.2847 145.045 67.8394 144.912 68.4794 144.912ZM72.8356 149.488C72.8356 148.539 72.9956 147.717 73.3156 147.024C73.6463 146.32 74.0943 145.787 74.6596 145.424C75.225 145.051 75.8596 144.864 76.5636 144.864C77.1503 144.864 77.657 144.987 78.0836 145.232C78.5103 145.467 78.8356 145.792 79.0596 146.208V144.976H82.5956V154H79.0596V152.768C78.8356 153.184 78.5103 153.515 78.0836 153.76C77.657 153.995 77.1503 154.112 76.5636 154.112C75.8596 154.112 75.225 153.931 74.6596 153.568C74.0943 153.195 73.6463 152.661 73.3156 151.968C72.9956 151.264 72.8356 150.437 72.8356 149.488ZM79.0596 149.488C79.0596 149.008 78.937 148.635 78.6916 148.368C78.4463 148.101 78.1316 147.968 77.7476 147.968C77.3636 147.968 77.049 148.101 76.8036 148.368C76.5583 148.635 76.4356 149.008 76.4356 149.488C76.4356 149.968 76.5583 150.341 76.8036 150.608C77.049 150.875 77.3636 151.008 77.7476 151.008C78.1316 151.008 78.4463 150.875 78.6916 150.608C78.937 150.341 79.0596 149.968 79.0596 149.488ZM87.7426 142.16V154H84.1906V142.16H87.7426ZM98.0829 149.408C98.0829 149.653 98.0669 149.888 98.0349 150.112H92.3229C92.3762 150.891 92.7015 151.28 93.2989 151.28C93.6829 151.28 93.9602 151.104 94.1309 150.752H97.8909C97.7629 151.392 97.4909 151.968 97.0749 152.48C96.6695 152.981 96.1522 153.381 95.5229 153.68C94.9042 153.968 94.2215 154.112 93.4749 154.112C92.5789 154.112 91.7789 153.925 91.0749 153.552C90.3815 153.179 89.8375 152.645 89.4429 151.952C89.0589 151.248 88.8669 150.427 88.8669 149.488C88.8669 148.549 89.0589 147.733 89.4429 147.04C89.8375 146.336 90.3815 145.797 91.0749 145.424C91.7789 145.051 92.5789 144.864 93.4749 144.864C94.3709 144.864 95.1655 145.051 95.8589 145.424C96.5629 145.787 97.1069 146.309 97.4909 146.992C97.8855 147.675 98.0829 148.48 98.0829 149.408ZM94.4829 148.56C94.4829 148.261 94.3869 148.037 94.1949 147.888C94.0029 147.728 93.7629 147.648 93.4749 147.648C92.8455 147.648 92.4775 147.952 92.3709 148.56H94.4829ZM105.173 144.864C105.76 144.864 106.266 144.987 106.693 145.232C107.12 145.467 107.445 145.792 107.669 146.208V144.976H111.205V153.84C111.205 154.683 111.05 155.451 110.741 156.144C110.432 156.837 109.93 157.392 109.237 157.808C108.554 158.224 107.674 158.432 106.597 158.432C105.146 158.432 103.994 158.091 103.141 157.408C102.298 156.736 101.818 155.819 101.701 154.656H105.189C105.285 155.125 105.669 155.36 106.341 155.36C106.757 155.36 107.082 155.253 107.317 155.04C107.552 154.827 107.669 154.427 107.669 153.84V152.768C107.445 153.184 107.12 153.515 106.693 153.76C106.266 153.995 105.76 154.112 105.173 154.112C104.469 154.112 103.834 153.931 103.269 153.568C102.704 153.195 102.256 152.661 101.925 151.968C101.605 151.264 101.445 150.437 101.445 149.488C101.445 148.539 101.605 147.717 101.925 147.024C102.256 146.32 102.704 145.787 103.269 145.424C103.834 145.051 104.469 144.864 105.173 144.864ZM107.669 149.488C107.669 149.008 107.546 148.635 107.301 148.368C107.056 148.101 106.741 147.968 106.357 147.968C105.973 147.968 105.658 148.101 105.413 148.368C105.168 148.635 105.045 149.008 105.045 149.488C105.045 149.968 105.168 150.341 105.413 150.608C105.658 150.875 105.973 151.008 106.357 151.008C106.741 151.008 107.056 150.875 107.301 150.608C107.546 150.341 107.669 149.968 107.669 149.488ZM121.536 149.408C121.536 149.653 121.52 149.888 121.488 150.112H115.776C115.829 150.891 116.155 151.28 116.752 151.28C117.136 151.28 117.413 151.104 117.584 150.752H121.344C121.216 151.392 120.944 151.968 120.528 152.48C120.123 152.981 119.605 153.381 118.976 153.68C118.357 153.968 117.675 154.112 116.928 154.112C116.032 154.112 115.232 153.925 114.528 153.552C113.835 153.179 113.291 152.645 112.896 151.952C112.512 151.248 112.32 150.427 112.32 149.488C112.32 148.549 112.512 147.733 112.896 147.04C113.291 146.336 113.835 145.797 114.528 145.424C115.232 145.051 116.032 144.864 116.928 144.864C117.824 144.864 118.619 145.051 119.312 145.424C120.016 145.787 120.56 146.309 120.944 146.992C121.339 147.675 121.536 148.48 121.536 149.408ZM117.936 148.56C117.936 148.261 117.84 148.037 117.648 147.888C117.456 147.728 117.216 147.648 116.928 147.648C116.299 147.648 115.931 147.952 115.824 148.56H117.936ZM128.275 150.976V154H126.931C124.457 154 123.219 152.768 123.219 150.304V147.936H122.099V144.976H123.219V142.8H126.771V144.976H128.243V147.936H126.771V150.368C126.771 150.581 126.819 150.736 126.915 150.832C127.022 150.928 127.193 150.976 127.427 150.976H128.275ZM131.42 144.256C130.801 144.256 130.305 144.091 129.932 143.76C129.559 143.429 129.372 143.013 129.372 142.512C129.372 142 129.559 141.579 129.932 141.248C130.305 140.907 130.801 140.736 131.42 140.736C132.028 140.736 132.519 140.907 132.892 141.248C133.265 141.579 133.452 142 133.452 142.512C133.452 143.013 133.265 143.429 132.892 143.76C132.519 144.091 132.028 144.256 131.42 144.256ZM133.18 144.976V154H129.628V144.976H133.18ZM138.336 146.64C138.699 146.117 139.142 145.701 139.664 145.392C140.187 145.072 140.731 144.912 141.296 144.912V148.704H140.288C139.616 148.704 139.12 148.821 138.8 149.056C138.491 149.291 138.336 149.707 138.336 150.304V154H134.784V144.976H138.336V146.64ZM154.301 144.912C155.453 144.912 156.344 145.259 156.973 145.952C157.613 146.645 157.933 147.584 157.933 148.768V154H154.397V149.216C154.397 148.832 154.28 148.533 154.045 148.32C153.821 148.096 153.517 147.984 153.133 147.984C152.738 147.984 152.429 148.096 152.205 148.32C151.981 148.533 151.869 148.832 151.869 149.216V154H148.333V149.216C148.333 148.832 148.216 148.533 147.981 148.32C147.757 148.096 147.453 147.984 147.069 147.984C146.674 147.984 146.365 148.096 146.141 148.32C145.917 148.533 145.805 148.832 145.805 149.216V154H142.253V144.976H145.805V146.192C146.061 145.808 146.408 145.499 146.845 145.264C147.293 145.029 147.816 144.912 148.413 144.912C149.064 144.912 149.64 145.056 150.141 145.344C150.642 145.621 151.042 146.016 151.341 146.528C151.672 146.059 152.093 145.675 152.605 145.376C153.117 145.067 153.682 144.912 154.301 144.912ZM168.208 149.408C168.208 149.653 168.192 149.888 168.16 150.112H162.448C162.501 150.891 162.827 151.28 163.424 151.28C163.808 151.28 164.085 151.104 164.256 150.752H168.016C167.888 151.392 167.616 151.968 167.2 152.48C166.795 152.981 166.277 153.381 165.648 153.68C165.029 153.968 164.347 154.112 163.6 154.112C162.704 154.112 161.904 153.925 161.2 153.552C160.507 153.179 159.963 152.645 159.568 151.952C159.184 151.248 158.992 150.427 158.992 149.488C158.992 148.549 159.184 147.733 159.568 147.04C159.963 146.336 160.507 145.797 161.2 145.424C161.904 145.051 162.704 144.864 163.6 144.864C164.496 144.864 165.291 145.051 165.984 145.424C166.688 145.787 167.232 146.309 167.616 146.992C168.011 147.675 168.208 148.48 168.208 149.408ZM164.608 148.56C164.608 148.261 164.512 148.037 164.32 147.888C164.128 147.728 163.888 147.648 163.6 147.648C162.971 147.648 162.603 147.952 162.496 148.56H164.608ZM175.107 154L172.883 150.4V154H169.331V142.16H172.883V148.352L175.139 144.976H179.267L175.891 149.52L179.347 154H175.107ZM186.911 151.072C187.316 151.072 187.588 150.837 187.727 150.368H191.487C191.305 151.36 190.911 152.171 190.303 152.8C189.695 153.429 188.937 153.835 188.031 154.016V154.544C188.329 154.544 188.639 154.603 188.959 154.72C189.279 154.848 189.551 155.056 189.775 155.344C189.999 155.643 190.111 156.027 190.111 156.496C190.111 157.189 189.871 157.685 189.391 157.984C188.911 158.293 188.351 158.448 187.711 158.448H184.943V156.64H187.343C187.471 156.64 187.572 156.613 187.647 156.56C187.721 156.517 187.759 156.459 187.759 156.384C187.759 156.224 187.62 156.144 187.343 156.144H185.983V154.032C184.884 153.84 184.009 153.344 183.359 152.544C182.708 151.744 182.383 150.725 182.383 149.488C182.383 148.549 182.575 147.733 182.959 147.04C183.353 146.336 183.897 145.797 184.591 145.424C185.295 145.051 186.095 144.864 186.991 144.864C188.164 144.864 189.151 145.195 189.951 145.856C190.761 146.517 191.273 147.435 191.487 148.608H187.727C187.588 148.139 187.316 147.904 186.911 147.904C186.623 147.904 186.393 148.037 186.223 148.304C186.063 148.571 185.983 148.965 185.983 149.488C185.983 150.011 186.063 150.405 186.223 150.672C186.393 150.939 186.623 151.072 186.911 151.072ZM196.901 154.112C195.994 154.112 195.178 153.925 194.453 153.552C193.727 153.179 193.157 152.645 192.741 151.952C192.335 151.248 192.133 150.427 192.133 149.488C192.133 148.549 192.335 147.733 192.741 147.04C193.157 146.336 193.727 145.797 194.453 145.424C195.178 145.051 195.994 144.864 196.901 144.864C197.807 144.864 198.623 145.051 199.349 145.424C200.074 145.797 200.639 146.336 201.045 147.04C201.461 147.733 201.669 148.549 201.669 149.488C201.669 150.427 201.461 151.248 201.045 151.952C200.639 152.645 200.074 153.179 199.349 153.552C198.623 153.925 197.807 154.112 196.901 154.112ZM196.901 151.04C197.231 151.04 197.509 150.912 197.733 150.656C197.957 150.389 198.069 150 198.069 149.488C198.069 148.976 197.957 148.592 197.733 148.336C197.509 148.069 197.231 147.936 196.901 147.936C196.57 147.936 196.293 148.069 196.069 148.336C195.845 148.592 195.733 148.976 195.733 149.488C195.733 150 195.839 150.389 196.053 150.656C196.277 150.912 196.559 151.04 196.901 151.04ZM208.56 154L206.336 150.4V154H202.784V142.16H206.336V148.352L208.592 144.976H212.72L209.344 149.52L212.8 154H208.56ZM222.092 154L219.868 150.4V154H216.316V142.16H219.868V148.352L222.124 144.976H226.252L222.876 149.52L226.332 154H222.092ZM231.416 154.112C230.509 154.112 229.693 153.925 228.968 153.552C228.243 153.179 227.672 152.645 227.256 151.952C226.851 151.248 226.648 150.427 226.648 149.488C226.648 148.549 226.851 147.733 227.256 147.04C227.672 146.336 228.243 145.797 228.968 145.424C229.693 145.051 230.509 144.864 231.416 144.864C232.323 144.864 233.139 145.051 233.864 145.424C234.589 145.797 235.155 146.336 235.56 147.04C235.976 147.733 236.184 148.549 236.184 149.488C236.184 150.427 235.976 151.248 235.56 151.952C235.155 152.645 234.589 153.179 233.864 153.552C233.139 153.925 232.323 154.112 231.416 154.112ZM231.416 151.04C231.747 151.04 232.024 150.912 232.248 150.656C232.472 150.389 232.584 150 232.584 149.488C232.584 148.976 232.472 148.592 232.248 148.336C232.024 148.069 231.747 147.936 231.416 147.936C231.085 147.936 230.808 148.069 230.584 148.336C230.36 148.592 230.248 148.976 230.248 149.488C230.248 150 230.355 150.389 230.568 150.656C230.792 150.912 231.075 151.04 231.416 151.04ZM240.852 142.16V154H237.3V142.16H240.852ZM241.976 149.488C241.976 148.539 242.136 147.717 242.456 147.024C242.787 146.32 243.235 145.787 243.8 145.424C244.366 145.051 245 144.864 245.704 144.864C246.291 144.864 246.798 144.987 247.224 145.232C247.651 145.467 247.976 145.792 248.2 146.208V144.976H251.736V154H248.2V152.768C247.976 153.184 247.651 153.515 247.224 153.76C246.798 153.995 246.291 154.112 245.704 154.112C245 154.112 244.366 153.931 243.8 153.568C243.235 153.195 242.787 152.661 242.456 151.968C242.136 151.264 241.976 150.437 241.976 149.488ZM248.2 149.488C248.2 149.008 248.078 148.635 247.832 148.368C247.587 148.101 247.272 147.968 246.888 147.968C246.504 147.968 246.19 148.101 245.944 148.368C245.699 148.635 245.576 149.008 245.576 149.488C245.576 149.968 245.699 150.341 245.944 150.608C246.19 150.875 246.504 151.008 246.888 151.008C247.272 151.008 247.587 150.875 247.832 150.608C248.078 150.341 248.2 149.968 248.2 149.488ZM263.523 144.976L257.747 158.32H253.859L256.131 153.552L252.371 144.976H256.323L258.019 149.552L259.603 144.976H263.523ZM268.943 141.92L268.527 149.504H265.487L265.071 141.92H268.943ZM267.007 154.128C266.389 154.128 265.893 153.963 265.519 153.632C265.146 153.301 264.959 152.885 264.959 152.384C264.959 151.872 265.146 151.451 265.519 151.12C265.893 150.779 266.389 150.608 267.007 150.608C267.615 150.608 268.106 150.779 268.479 151.12C268.853 151.451 269.039 151.872 269.039 152.384C269.039 152.885 268.853 153.301 268.479 153.632C268.106 153.963 267.615 154.128 267.007 154.128Z" fill="#7D848D"/>
<path d="M103.41 10C104.883 10 106.217 10.219 107.413 10.6569C108.609 11.0949 109.623 11.6934 110.455 12.4526C111.301 13.2117 111.95 14.1022 112.402 15.1241C112.854 16.1314 113.08 17.2044 113.08 18.3431V31.6569C113.08 32.7956 112.854 33.8759 112.402 34.8978C111.95 35.9051 111.301 36.7883 110.455 37.5474C109.623 38.3066 108.609 38.9051 107.413 39.3431C106.217 39.781 104.883 40 103.41 40H96.6707C95.1975 40 93.8628 39.781 92.6667 39.3431C91.4707 38.9051 90.4496 38.3066 89.6036 37.5474C88.7722 36.7883 88.1304 35.9051 87.6783 34.8978C87.2261 33.8759 87 32.7956 87 31.6569V18.3431C87 17.2044 87.2261 16.1314 87.6783 15.1241C88.1304 14.1022 88.7722 13.2117 89.6036 12.4526C90.4496 11.6934 91.4707 11.0949 92.6667 10.6569C93.8628 10.219 95.1975 10 96.6707 10H103.41ZM99.9963 12.3212L98.793 11.9708H95.9268L94.0889 12.2774L92.6886 13.6788V30.0803H95.0297V14.4891C95.2339 14.4453 95.4163 14.4161 95.5767 14.4015C95.7372 14.3869 95.9122 14.3504 96.1018 14.292H98.5961C98.7565 14.3504 98.9097 14.3869 99.0555 14.4015C99.216 14.4161 99.3764 14.4453 99.5369 14.4891V23.7737H101.878V14.4891L102.819 14.292H105.335C105.51 14.3504 105.685 14.3869 105.86 14.4015C106.035 14.4161 106.217 14.4453 106.407 14.4891V30.0803H108.726V13.6788L107.348 12.2774L105.51 11.9708H102.644L101.462 12.3212L100.718 13.8321L99.9963 12.3212Z" fill="#FF7029"/>
<path d="M129.315 10C130.788 10 132.122 10.219 133.319 10.6569C134.515 11.0949 135.528 11.6934 136.36 12.4526C137.206 13.2117 137.855 14.1022 138.307 15.1241C138.759 16.1314 138.985 17.2044 138.985 18.3431V31.6569C138.985 32.7956 138.759 33.8759 138.307 34.8978C137.855 35.9051 137.206 36.7883 136.36 37.5474C135.528 38.3066 134.515 38.9051 133.319 39.3431C132.122 39.781 130.788 40 129.315 40H122.576C121.103 40 119.768 39.781 118.572 39.3431C117.376 38.9051 116.355 38.3066 115.509 37.5474C114.677 36.7883 114.036 35.9051 113.583 34.8978C113.131 33.8759 112.905 32.7956 112.905 31.6569V18.3431C112.905 17.2044 113.131 16.1314 113.583 15.1241C114.036 14.1022 114.677 13.2117 115.509 12.4526C116.355 11.6934 117.376 11.0949 118.572 10.6569C119.768 10.219 121.103 10 122.576 10H129.315ZM132.181 15.4745L131.853 13.635L130.474 12.2336L128.264 11.9708H123.517L121.329 12.2336L119.95 13.635L119.622 15.4745V25.8759L119.95 27.7153L121.329 29.0949L123.517 29.3796H129.03L131.59 29.0511L131.043 26.6861L128.986 27.0365H123.67L122.269 26.8175L121.963 25.5036V20.9927H132.181V15.4745ZM121.963 18.6934V15.7372L122.138 14.4891L123.67 14.2482H128.133L129.621 14.4891L129.84 15.781V18.6934H121.963Z" fill="#FF7029"/>
<path d="M153.207 20.6204L160.733 13.1752L159.158 11.3358L150.144 20.2701V11.9708H147.825V30.0803H150.144V23.2263C150.392 23.0219 150.603 22.8394 150.778 22.6788C150.968 22.5036 151.179 22.3139 151.413 22.1095L158.567 30.4963L160.449 28.8759L153.207 20.6204ZM155.22 10C156.693 10 158.028 10.219 159.224 10.6569C160.42 11.0949 161.434 11.6934 162.265 12.4526C163.111 13.2117 163.76 14.1022 164.212 15.1241C164.664 16.1314 164.89 17.2044 164.89 18.3431V31.6569C164.89 32.7956 164.664 33.8759 164.212 34.8978C163.76 35.9051 163.111 36.7883 162.265 37.5474C161.434 38.3066 160.42 38.9051 159.224 39.3431C158.028 39.781 156.693 40 155.22 40H148.481C147.008 40 145.673 39.781 144.477 39.3431C143.281 38.9051 142.26 38.3066 141.414 37.5474C140.583 36.7883 139.941 35.9051 139.489 34.8978C139.036 33.8759 138.81 32.7956 138.81 31.6569V18.3431C138.81 17.2044 139.036 16.1314 139.489 15.1241C139.941 14.1022 140.583 13.2117 141.414 12.4526C142.26 11.6934 143.281 11.0949 144.477 10.6569C145.673 10.219 147.008 10 148.481 10H155.22Z" fill="#FF7029"/>
<path d="M186.566 0C188.53 0 190.309 0.291971 191.904 0.875912C193.499 1.45985 194.851 2.25791 195.959 3.27007C197.087 4.28224 197.953 5.46959 198.555 6.83212C199.158 8.17518 199.46 9.60584 199.46 11.1241V28.8759C199.46 30.3942 199.158 31.8345 198.555 33.1971C197.953 34.5401 197.087 35.7178 195.959 36.7299C194.851 37.7421 193.499 38.5401 191.904 39.1241C190.309 39.708 188.53 40 186.566 40H177.58C175.616 40 173.837 39.708 172.242 39.1241C170.647 38.5401 169.286 37.7421 168.158 36.7299C167.049 35.7178 166.193 34.5401 165.591 33.1971C164.988 31.8345 164.686 30.3942 164.686 28.8759V11.1241C164.686 9.60584 164.988 8.17518 165.591 6.83212C166.193 5.46959 167.049 4.28224 168.158 3.27007C169.286 2.25791 170.647 1.45985 172.242 0.875912C173.837 0.291971 175.616 0 177.58 0H186.566ZM189.249 26.7737H192.575L190.27 5.0219L188.462 3.21168L184.582 2.62774H181.46L177.58 3.21168L175.801 5.0219L173.409 26.7737H176.88L177.347 20.5547L177.639 17.8686H188.403L188.695 20.5547L189.249 26.7737ZM187.207 6.16058C187.344 7.73723 187.499 9.22628 187.674 10.6277C187.849 12.0292 188.014 13.5085 188.17 15.0657H177.901L178.777 6.16058C179.321 6.10219 179.788 6.03406 180.177 5.9562C180.585 5.87835 181.062 5.80049 181.606 5.72263H184.465L187.207 6.16058Z" fill="#FF7029"/>
<path d="M226.532 7.29927L226.123 4.84672L224.256 2.9781L221.281 2.62774H213.988L208.737 3.35766V26.7737H211.829V6.0438L214.104 5.66423H221.106L223.119 5.9854L223.41 7.70803V26.7737H226.532V7.29927ZM221.106 0C223.07 0 224.85 0.291971 226.444 0.875912C228.039 1.45985 229.391 2.25791 230.499 3.27007C231.627 4.28224 232.493 5.46959 233.096 6.83212C233.699 8.17518 234 9.60584 234 11.1241V28.8759C234 30.3942 233.699 31.8345 233.096 33.1971C232.493 34.5401 231.627 35.7178 230.499 36.7299C229.391 37.7421 228.039 38.5401 226.444 39.1241C224.85 39.708 223.07 40 221.106 40H212.121C210.156 40 208.377 39.708 206.782 39.1241C205.187 38.5401 203.826 37.7421 202.698 36.7299C201.589 35.7178 200.734 34.5401 200.131 33.1971C199.528 31.8345 199.226 30.3942 199.226 28.8759V11.1241C199.226 9.60584 199.528 8.17518 200.131 6.83212C200.734 5.46959 201.589 4.28224 202.698 3.27007C203.826 2.25791 205.187 1.45985 206.782 0.875912C208.377 0.291971 210.156 0 212.121 0H221.106Z" fill="#FF7029"/>
</svg>
