<svg width="321" height="164" viewBox="0 0 321 164" fill="none" xmlns="http://www.w3.org/2000/svg">
<path d="M34.6053 26L28.1493 18.536V26H25.4133V9.32H28.1493V16.928L34.6293 9.32H38.0613L30.8133 17.672L38.1813 26H34.6053ZM52.7208 19.064C52.7208 19.56 52.6888 20.008 52.6248 20.408H42.5208C42.6008 21.464 42.9928 22.312 43.6968 22.952C44.4008 23.592 45.2648 23.912 46.2888 23.912C47.7608 23.912 48.8008 23.296 49.4088 22.064H52.3608C51.9608 23.28 51.2328 24.28 50.1768 25.064C49.1368 25.832 47.8408 26.216 46.2888 26.216C45.0248 26.216 43.8888 25.936 42.8808 25.376C41.8888 24.8 41.1048 24 40.5288 22.976C39.9688 21.936 39.6888 20.736 39.6888 19.376C39.6888 18.016 39.9608 16.824 40.5048 15.8C41.0648 14.76 41.8408 13.96 42.8328 13.4C43.8408 12.84 44.9928 12.56 46.2888 12.56C47.5368 12.56 48.6488 12.832 49.6248 13.376C50.6008 13.92 51.3608 14.688 51.9048 15.68C52.4488 16.656 52.7208 17.784 52.7208 19.064ZM49.8648 18.2C49.8488 17.192 49.4888 16.384 48.7848 15.776C48.0808 15.168 47.2088 14.864 46.1688 14.864C45.2248 14.864 44.4168 15.168 43.7448 15.776C43.0728 16.368 42.6728 17.176 42.5448 18.2H49.8648ZM65.2773 22.304C65.2773 23.344 64.8933 24.224 64.1253 24.944C63.3573 25.648 62.3173 26.056 61.0053 26.168V27.152C61.9333 27.152 62.6853 27.368 63.2613 27.8C63.8373 28.248 64.1253 28.872 64.1253 29.672C64.1253 30.472 63.8373 31.104 63.2613 31.568C62.6853 32.048 61.9573 32.288 61.0773 32.288H57.9093V30.56H60.5253C60.9733 30.56 61.3093 30.496 61.5333 30.368C61.7573 30.24 61.8693 30.008 61.8693 29.672C61.8693 29.336 61.7573 29.104 61.5333 28.976C61.3093 28.848 60.9733 28.784 60.5253 28.784H59.2053V26.144C57.9093 25.984 56.8453 25.512 56.0133 24.728C55.1813 23.944 54.7413 23.016 54.6933 21.944H57.5253C57.5733 22.504 57.8373 22.976 58.3173 23.36C58.8133 23.728 59.4293 23.912 60.1653 23.912C60.9333 23.912 61.5253 23.768 61.9413 23.48C62.3733 23.176 62.5893 22.792 62.5893 22.328C62.5893 21.832 62.3493 21.464 61.8693 21.224C61.4053 20.984 60.6613 20.72 59.6373 20.432C58.6453 20.16 57.8373 19.896 57.2133 19.64C56.5893 19.384 56.0453 18.992 55.5813 18.464C55.1333 17.936 54.9093 17.24 54.9093 16.376C54.9093 15.672 55.1173 15.032 55.5333 14.456C55.9493 13.864 56.5413 13.4 57.3093 13.064C58.0933 12.728 58.9893 12.56 59.9973 12.56C61.5013 12.56 62.7093 12.944 63.6213 13.712C64.5493 14.464 65.0453 15.496 65.1093 16.808H62.3733C62.3253 16.216 62.0853 15.744 61.6533 15.392C61.2213 15.04 60.6373 14.864 59.9013 14.864C59.1813 14.864 58.6293 15 58.2453 15.272C57.8613 15.544 57.6693 15.904 57.6693 16.352C57.6693 16.704 57.7973 17 58.0533 17.24C58.3093 17.48 58.6213 17.672 58.9893 17.816C59.3573 17.944 59.9013 18.112 60.6213 18.32C61.5813 18.576 62.3653 18.84 62.9733 19.112C63.5973 19.368 64.1333 19.752 64.5813 20.264C65.0293 20.776 65.2613 21.456 65.2773 22.304ZM73.7776 15.008H71.3296V26H68.5696V15.008H67.0096V12.776H68.5696V11.84C68.5696 10.32 68.9696 9.216 69.7696 8.528C70.5856 7.824 71.8576 7.472 73.5856 7.472V9.752C72.7536 9.752 72.1696 9.912 71.8336 10.232C71.4976 10.536 71.3296 11.072 71.3296 11.84V12.776H73.7776V15.008ZM88.3223 19.064C88.3223 19.56 88.2903 20.008 88.2263 20.408H78.1223C78.2023 21.464 78.5943 22.312 79.2983 22.952C80.0023 23.592 80.8663 23.912 81.8903 23.912C83.3623 23.912 84.4023 23.296 85.0103 22.064H87.9623C87.5623 23.28 86.8343 24.28 85.7783 25.064C84.7383 25.832 83.4423 26.216 81.8903 26.216C80.6263 26.216 79.4903 25.936 78.4823 25.376C77.4903 24.8 76.7063 24 76.1303 22.976C75.5703 21.936 75.2903 20.736 75.2903 19.376C75.2903 18.016 75.5623 16.824 76.1063 15.8C76.6663 14.76 77.4423 13.96 78.4343 13.4C79.4423 12.84 80.5943 12.56 81.8903 12.56C83.1383 12.56 84.2503 12.832 85.2263 13.376C86.2023 13.92 86.9623 14.688 87.5063 15.68C88.0503 16.656 88.3223 17.784 88.3223 19.064ZM85.4663 18.2C85.4503 17.192 85.0903 16.384 84.3863 15.776C83.6823 15.168 82.8103 14.864 81.7703 14.864C80.8263 14.864 80.0183 15.168 79.3463 15.776C78.6743 16.368 78.2743 17.176 78.1463 18.2H85.4663ZM90.1028 19.328C90.1028 18 90.3748 16.824 90.9188 15.8C91.4788 14.776 92.2308 13.984 93.1748 13.424C94.1348 12.848 95.1988 12.56 96.3668 12.56C97.2308 12.56 98.0788 12.752 98.9108 13.136C99.7588 13.504 100.431 14 100.927 14.624V8.24H103.687V26H100.927V24.008C100.479 24.648 99.8548 25.176 99.0548 25.592C98.2708 26.008 97.3668 26.216 96.3428 26.216C95.1908 26.216 94.1348 25.928 93.1748 25.352C92.2308 24.76 91.4788 23.944 90.9188 22.904C90.3748 21.848 90.1028 20.656 90.1028 19.328ZM100.927 19.376C100.927 18.464 100.735 17.672 100.351 17C99.9828 16.328 99.4948 15.816 98.8868 15.464C98.2788 15.112 97.6228 14.936 96.9188 14.936C96.2148 14.936 95.5588 15.112 94.9508 15.464C94.3428 15.8 93.8468 16.304 93.4628 16.976C93.0948 17.632 92.9108 18.416 92.9108 19.328C92.9108 20.24 93.0948 21.04 93.4628 21.728C93.8468 22.416 94.3428 22.944 94.9508 23.312C95.5748 23.664 96.2308 23.84 96.9188 23.84C97.6228 23.84 98.2788 23.664 98.8868 23.312C99.4948 22.96 99.9828 22.448 100.351 21.776C100.735 21.088 100.927 20.288 100.927 19.376ZM108.672 11.024C108.176 11.024 107.76 10.856 107.424 10.52C107.088 10.184 106.92 9.768 106.92 9.272C106.92 8.776 107.088 8.36 107.424 8.024C107.76 7.688 108.176 7.52 108.672 7.52C109.152 7.52 109.56 7.688 109.896 8.024C110.232 8.36 110.4 8.776 110.4 9.272C110.4 9.768 110.232 10.184 109.896 10.52C109.56 10.856 109.152 11.024 108.672 11.024ZM110.016 12.776V26H107.28V12.776H110.016ZM116.345 8.24V26H113.609V8.24H116.345ZM132.057 19.064C132.057 19.56 132.025 20.008 131.961 20.408H121.857C121.937 21.464 122.329 22.312 123.033 22.952C123.737 23.592 124.601 23.912 125.625 23.912C127.097 23.912 128.137 23.296 128.745 22.064H131.697C131.297 23.28 130.569 24.28 129.513 25.064C128.473 25.832 127.177 26.216 125.625 26.216C124.361 26.216 123.225 25.936 122.217 25.376C121.225 24.8 120.441 24 119.865 22.976C119.305 21.936 119.025 20.736 119.025 19.376C119.025 18.016 119.297 16.824 119.841 15.8C120.401 14.76 121.177 13.96 122.169 13.4C123.177 12.84 124.329 12.56 125.625 12.56C126.873 12.56 127.985 12.832 128.961 13.376C129.937 13.92 130.697 14.688 131.241 15.68C131.785 16.656 132.057 17.784 132.057 19.064ZM129.201 18.2C129.185 17.192 128.825 16.384 128.121 15.776C127.417 15.168 126.545 14.864 125.505 14.864C124.561 14.864 123.753 15.168 123.081 15.776C122.409 16.368 122.009 17.176 121.881 18.2H129.201ZM133.837 19.376C133.837 18.016 134.109 16.824 134.653 15.8C135.213 14.76 135.981 13.96 136.957 13.4C137.933 12.84 139.053 12.56 140.317 12.56C141.917 12.56 143.237 12.944 144.277 13.712C145.333 14.464 146.045 15.544 146.413 16.952H143.461C143.221 16.296 142.837 15.784 142.309 15.416C141.781 15.048 141.117 14.864 140.317 14.864C139.197 14.864 138.301 15.264 137.629 16.064C136.973 16.848 136.645 17.952 136.645 19.376C136.645 20.8 136.973 21.912 137.629 22.712C138.301 23.512 139.197 23.912 140.317 23.912C141.901 23.912 142.949 23.216 143.461 21.824H146.413C146.029 23.168 145.309 24.24 144.253 25.04C143.197 25.824 141.885 26.216 140.317 26.216C139.053 26.216 137.933 25.936 136.957 25.376C135.981 24.8 135.213 24 134.653 22.976C134.109 21.936 133.837 20.736 133.837 19.376ZM161.26 19.064C161.26 19.56 161.228 20.008 161.164 20.408H151.06C151.14 21.464 151.532 22.312 152.236 22.952C152.94 23.592 153.804 23.912 154.828 23.912C156.3 23.912 157.34 23.296 157.948 22.064H160.9C160.5 23.28 159.772 24.28 158.716 25.064C157.676 25.832 156.38 26.216 154.828 26.216C153.564 26.216 152.428 25.936 151.42 25.376C150.428 24.8 149.644 24 149.068 22.976C148.508 21.936 148.228 20.736 148.228 19.376C148.228 18.016 148.5 16.824 149.044 15.8C149.604 14.76 150.38 13.96 151.372 13.4C152.38 12.84 153.532 12.56 154.828 12.56C156.076 12.56 157.188 12.832 158.164 13.376C159.14 13.92 159.9 14.688 160.444 15.68C160.988 16.656 161.26 17.784 161.26 19.064ZM158.404 18.2C158.388 17.192 158.028 16.384 157.324 15.776C156.62 15.168 155.748 14.864 154.708 14.864C153.764 14.864 152.956 15.168 152.284 15.776C151.612 16.368 151.212 17.176 151.084 18.2H158.404ZM169.184 19.4L175.28 26H171.584L166.688 20.312V26H163.952V8.24H166.688V18.56L171.488 12.776H175.28L169.184 19.4ZM186.212 14.744C186.676 14.104 187.308 13.584 188.108 13.184C188.924 12.768 189.828 12.56 190.82 12.56C191.988 12.56 193.044 12.84 193.988 13.4C194.932 13.96 195.676 14.76 196.22 15.8C196.764 16.824 197.036 18 197.036 19.328C197.036 20.656 196.764 21.848 196.22 22.904C195.676 23.944 194.924 24.76 193.964 25.352C193.02 25.928 191.972 26.216 190.82 26.216C189.796 26.216 188.884 26.016 188.084 25.616C187.3 25.216 186.676 24.704 186.212 24.08V26H183.476V8.24H186.212V14.744ZM194.252 19.328C194.252 18.416 194.06 17.632 193.676 16.976C193.308 16.304 192.812 15.8 192.188 15.464C191.58 15.112 190.924 14.936 190.22 14.936C189.532 14.936 188.876 15.112 188.252 15.464C187.644 15.816 187.148 16.328 186.764 17C186.396 17.672 186.212 18.464 186.212 19.376C186.212 20.288 186.396 21.088 186.764 21.776C187.148 22.448 187.644 22.96 188.252 23.312C188.876 23.664 189.532 23.84 190.22 23.84C190.924 23.84 191.58 23.664 192.188 23.312C192.812 22.944 193.308 22.416 193.676 21.728C194.06 21.04 194.252 20.24 194.252 19.328ZM201.133 11.024C200.637 11.024 200.221 10.856 199.885 10.52C199.549 10.184 199.381 9.768 199.381 9.272C199.381 8.776 199.549 8.36 199.885 8.024C200.221 7.688 200.637 7.52 201.133 7.52C201.613 7.52 202.021 7.688 202.357 8.024C202.693 8.36 202.861 8.776 202.861 9.272C202.861 9.768 202.693 10.184 202.357 10.52C202.021 10.856 201.613 11.024 201.133 11.024ZM202.477 12.776V26H199.741V12.776H202.477ZM208.806 14.696C209.206 14.024 209.734 13.504 210.39 13.136C211.062 12.752 211.854 12.56 212.766 12.56V15.392H212.07C210.998 15.392 210.182 15.664 209.622 16.208C209.078 16.752 208.806 17.696 208.806 19.04V26H206.07V12.776H208.806V14.696ZM220.603 19.328C220.603 18 220.875 16.824 221.419 15.8C221.979 14.776 222.731 13.984 223.675 13.424C224.635 12.848 225.699 12.56 226.867 12.56C227.731 12.56 228.579 12.752 229.411 13.136C230.259 13.504 230.931 14 231.427 14.624V8.24H234.187V26H231.427V24.008C230.979 24.648 230.355 25.176 229.555 25.592C228.771 26.008 227.867 26.216 226.843 26.216C225.691 26.216 224.635 25.928 223.675 25.352C222.731 24.76 221.979 23.944 221.419 22.904C220.875 21.848 220.603 20.656 220.603 19.328ZM231.427 19.376C231.427 18.464 231.235 17.672 230.851 17C230.483 16.328 229.995 15.816 229.387 15.464C228.779 15.112 228.123 14.936 227.419 14.936C226.715 14.936 226.059 15.112 225.451 15.464C224.843 15.8 224.347 16.304 223.963 16.976C223.595 17.632 223.411 18.416 223.411 19.328C223.411 20.24 223.595 21.04 223.963 21.728C224.347 22.416 224.843 22.944 225.451 23.312C226.075 23.664 226.731 23.84 227.419 23.84C228.123 23.84 228.779 23.664 229.387 23.312C229.995 22.96 230.483 22.448 230.851 21.776C231.235 21.088 231.427 20.288 231.427 19.376ZM249.756 12.776V26H247.02V24.44C246.588 24.984 246.02 25.416 245.316 25.736C244.628 26.04 243.892 26.192 243.108 26.192C242.068 26.192 241.132 25.976 240.3 25.544C239.484 25.112 238.836 24.472 238.356 23.624C237.892 22.776 237.66 21.752 237.66 20.552V12.776H240.372V20.144C240.372 21.328 240.668 22.24 241.26 22.88C241.852 23.504 242.66 23.816 243.684 23.816C244.708 23.816 245.516 23.504 246.108 22.88C246.716 22.24 247.02 21.328 247.02 20.144V12.776H249.756ZM241.716 11.12C241.316 11.12 240.972 10.984 240.684 10.712C240.412 10.424 240.276 10.08 240.276 9.68C240.276 9.28 240.412 8.944 240.684 8.672C240.972 8.384 241.316 8.24 241.716 8.24C242.116 8.24 242.452 8.384 242.724 8.672C243.012 8.944 243.156 9.28 243.156 9.68C243.156 10.08 243.012 10.424 242.724 10.712C242.452 10.984 242.116 11.12 241.716 11.12ZM245.844 11.12C245.444 11.12 245.1 10.984 244.812 10.712C244.54 10.424 244.404 10.08 244.404 9.68C244.404 9.28 244.54 8.944 244.812 8.672C245.1 8.384 245.444 8.24 245.844 8.24C246.244 8.24 246.58 8.384 246.852 8.672C247.14 8.944 247.284 9.28 247.284 9.68C247.284 10.08 247.14 10.424 246.852 10.712C246.58 10.984 246.244 11.12 245.844 11.12ZM260.038 12.56C261.078 12.56 262.006 12.776 262.822 13.208C263.654 13.64 264.302 14.28 264.766 15.128C265.23 15.976 265.462 17 265.462 18.2V26H262.75V18.608C262.75 17.424 262.454 16.52 261.862 15.896C261.27 15.256 260.462 14.936 259.438 14.936C258.414 14.936 257.598 15.256 256.99 15.896C256.398 16.52 256.102 17.424 256.102 18.608V26H253.366V12.776H256.102V14.288C256.55 13.744 257.118 13.32 257.806 13.016C258.51 12.712 259.254 12.56 260.038 12.56ZM280.856 12.776L272.744 32.216H269.912L272.6 25.784L267.392 12.776H270.44L274.16 22.856L278.024 12.776H280.856ZM282.009 19.328C282.009 18 282.281 16.824 282.825 15.8C283.385 14.776 284.137 13.984 285.081 13.424C286.041 12.848 287.097 12.56 288.249 12.56C289.289 12.56 290.193 12.768 290.961 13.184C291.745 13.584 292.369 14.088 292.833 14.696V12.776H295.593V26H292.833V24.032C292.369 24.656 291.737 25.176 290.937 25.592C290.137 26.008 289.225 26.216 288.201 26.216C287.065 26.216 286.025 25.928 285.081 25.352C284.137 24.76 283.385 23.944 282.825 22.904C282.281 21.848 282.009 20.656 282.009 19.328ZM292.833 19.376C292.833 18.464 292.641 17.672 292.257 17C291.889 16.328 291.401 15.816 290.793 15.464C290.185 15.112 289.529 14.936 288.825 14.936C288.121 14.936 287.465 15.112 286.857 15.464C286.249 15.8 285.753 16.304 285.369 16.976C285.001 17.632 284.817 18.416 284.817 19.328C284.817 20.24 285.001 21.04 285.369 21.728C285.753 22.416 286.249 22.944 286.857 23.312C287.481 23.664 288.137 23.84 288.825 23.84C289.529 23.84 290.185 23.664 290.793 23.312C291.401 22.96 291.889 22.448 292.257 21.776C292.641 21.088 292.833 20.288 292.833 19.376ZM91.4555 62.216C90.4155 62.216 89.4795 62.032 88.6475 61.664C87.8315 61.28 87.1835 60.768 86.7035 60.128C86.2235 59.472 85.9675 58.744 85.9355 57.944H88.7675C88.8155 58.504 89.0795 58.976 89.5595 59.36C90.0555 59.728 90.6715 59.912 91.4075 59.912C92.1755 59.912 92.7675 59.768 93.1835 59.48C93.6155 59.176 93.8315 58.792 93.8315 58.328C93.8315 57.832 93.5915 57.464 93.1115 57.224C92.6475 56.984 91.9035 56.72 90.8795 56.432C89.8875 56.16 89.0795 55.896 88.4555 55.64C87.8315 55.384 87.2875 54.992 86.8235 54.464C86.3755 53.936 86.1515 53.24 86.1515 52.376C86.1515 51.672 86.3595 51.032 86.7755 50.456C87.1915 49.864 87.7835 49.4 88.5515 49.064C89.3355 48.728 90.2315 48.56 91.2395 48.56C92.7435 48.56 93.9515 48.944 94.8635 49.712C95.7915 50.464 96.2875 51.496 96.3515 52.808H93.6155C93.5675 52.216 93.3275 51.744 92.8955 51.392C92.4635 51.04 91.8795 50.864 91.1435 50.864C90.4235 50.864 89.8715 51 89.4875 51.272C89.1035 51.544 88.9115 51.904 88.9115 52.352C88.9115 52.704 89.0395 53 89.2955 53.24C89.5515 53.48 89.8635 53.672 90.2315 53.816C90.5995 53.944 91.1435 54.112 91.8635 54.32C92.8235 54.576 93.6075 54.84 94.2155 55.112C94.8395 55.368 95.3755 55.752 95.8235 56.264C96.2715 56.776 96.5035 57.456 96.5195 58.304C96.5195 59.056 96.3115 59.728 95.8955 60.32C95.4795 60.912 94.8875 61.376 94.1195 61.712C93.3675 62.048 92.4795 62.216 91.4555 62.216ZM111.596 55.064C111.596 55.56 111.564 56.008 111.5 56.408H101.396C101.476 57.464 101.868 58.312 102.572 58.952C103.276 59.592 104.14 59.912 105.164 59.912C106.636 59.912 107.676 59.296 108.284 58.064H111.236C110.836 59.28 110.108 60.28 109.052 61.064C108.012 61.832 106.716 62.216 105.164 62.216C103.9 62.216 102.764 61.936 101.756 61.376C100.764 60.8 99.9798 60 99.4038 58.976C98.8438 57.936 98.5638 56.736 98.5638 55.376C98.5638 54.016 98.8358 52.824 99.3798 51.8C99.9398 50.76 100.716 49.96 101.708 49.4C102.716 48.84 103.868 48.56 105.164 48.56C106.412 48.56 107.524 48.832 108.5 49.376C109.476 49.92 110.236 50.688 110.78 51.68C111.324 52.656 111.596 53.784 111.596 55.064ZM108.74 54.2C108.724 53.192 108.364 52.384 107.66 51.776C106.956 51.168 106.084 50.864 105.044 50.864C104.1 50.864 103.292 51.168 102.62 51.776C101.948 52.368 101.548 53.176 101.42 54.2H108.74ZM120.96 48.56C122 48.56 122.928 48.776 123.744 49.208C124.576 49.64 125.224 50.28 125.688 51.128C126.152 51.976 126.384 53 126.384 54.2V62H123.672V54.608C123.672 53.424 123.376 52.52 122.784 51.896C122.192 51.256 121.384 50.936 120.36 50.936C119.336 50.936 118.52 51.256 117.912 51.896C117.32 52.52 117.024 53.424 117.024 54.608V62H114.288V48.776H117.024V50.288C117.472 49.744 118.04 49.32 118.728 49.016C119.432 48.712 120.176 48.56 120.96 48.56ZM131.266 47.024C130.77 47.024 130.354 46.856 130.018 46.52C129.682 46.184 129.514 45.768 129.514 45.272C129.514 44.776 129.682 44.36 130.018 44.024C130.354 43.688 130.77 43.52 131.266 43.52C131.746 43.52 132.154 43.688 132.49 44.024C132.826 44.36 132.994 44.776 132.994 45.272C132.994 45.768 132.826 46.184 132.49 46.52C132.154 46.856 131.746 47.024 131.266 47.024ZM132.61 48.776V62H129.874V48.776H132.61ZM145.173 50.744C145.637 50.104 146.269 49.584 147.069 49.184C147.885 48.768 148.789 48.56 149.781 48.56C150.949 48.56 152.005 48.84 152.949 49.4C153.893 49.96 154.637 50.76 155.181 51.8C155.725 52.824 155.997 54 155.997 55.328C155.997 56.656 155.725 57.848 155.181 58.904C154.637 59.944 153.885 60.76 152.925 61.352C151.981 61.928 150.933 62.216 149.781 62.216C148.757 62.216 147.845 62.016 147.045 61.616C146.261 61.216 145.637 60.704 145.173 60.08V62H142.437V44.24H145.173V50.744ZM153.213 55.328C153.213 54.416 153.021 53.632 152.637 52.976C152.269 52.304 151.773 51.8 151.149 51.464C150.541 51.112 149.885 50.936 149.181 50.936C148.493 50.936 147.837 51.112 147.213 51.464C146.605 51.816 146.109 52.328 145.725 53C145.357 53.672 145.173 54.464 145.173 55.376C145.173 56.288 145.357 57.088 145.725 57.776C146.109 58.448 146.605 58.96 147.213 59.312C147.837 59.664 148.493 59.84 149.181 59.84C149.885 59.84 150.541 59.664 151.149 59.312C151.773 58.944 152.269 58.416 152.637 57.728C153.021 57.04 153.213 56.24 153.213 55.328ZM170.822 55.064C170.822 55.56 170.79 56.008 170.726 56.408H160.622C160.702 57.464 161.094 58.312 161.798 58.952C162.502 59.592 163.366 59.912 164.39 59.912C165.862 59.912 166.902 59.296 167.51 58.064H170.462C170.062 59.28 169.334 60.28 168.278 61.064C167.238 61.832 165.942 62.216 164.39 62.216C163.126 62.216 161.99 61.936 160.982 61.376C159.99 60.8 159.206 60 158.63 58.976C158.07 57.936 157.79 56.736 157.79 55.376C157.79 54.016 158.062 52.824 158.606 51.8C159.166 50.76 159.942 49.96 160.934 49.4C161.942 48.84 163.094 48.56 164.39 48.56C165.638 48.56 166.75 48.832 167.726 49.376C168.702 49.92 169.462 50.688 170.006 51.68C170.55 52.656 170.822 53.784 170.822 55.064ZM167.966 54.2C167.95 53.192 167.59 52.384 166.886 51.776C166.182 51.168 165.31 50.864 164.27 50.864C163.326 50.864 162.518 51.168 161.846 51.776C161.174 52.368 160.774 53.176 160.646 54.2H167.966ZM178.747 55.4L184.843 62H181.147L176.251 56.312V62H173.515V44.24H176.251V54.56L181.051 48.776H184.843L178.747 55.4ZM189.54 44.24V62H186.804V44.24H189.54ZM194.524 47.024C194.028 47.024 193.612 46.856 193.276 46.52C192.94 46.184 192.772 45.768 192.772 45.272C192.772 44.776 192.94 44.36 193.276 44.024C193.612 43.688 194.028 43.52 194.524 43.52C195.004 43.52 195.412 43.688 195.748 44.024C196.084 44.36 196.252 44.776 196.252 45.272C196.252 45.768 196.084 46.184 195.748 46.52C195.412 46.856 195.004 47.024 194.524 47.024ZM195.868 48.776V62H193.132V48.776H195.868ZM211.364 48.776L203.252 68.216H200.42L203.108 61.784L197.9 48.776H200.948L204.668 58.856L208.532 48.776H211.364ZM219.165 62.216C217.917 62.216 216.789 61.936 215.781 61.376C214.773 60.8 213.981 60 213.405 58.976C212.829 57.936 212.541 56.736 212.541 55.376C212.541 54.032 212.837 52.84 213.429 51.8C214.021 50.76 214.829 49.96 215.853 49.4C216.877 48.84 218.021 48.56 219.285 48.56C220.549 48.56 221.693 48.84 222.717 49.4C223.741 49.96 224.549 50.76 225.141 51.8C225.733 52.84 226.029 54.032 226.029 55.376C226.029 56.72 225.725 57.912 225.117 58.952C224.509 59.992 223.677 60.8 222.621 61.376C221.581 61.936 220.429 62.216 219.165 62.216ZM219.165 59.84C219.869 59.84 220.525 59.672 221.133 59.336C221.757 59 222.261 58.496 222.645 57.824C223.029 57.152 223.221 56.336 223.221 55.376C223.221 54.416 223.037 53.608 222.669 52.952C222.301 52.28 221.813 51.776 221.205 51.44C220.597 51.104 219.941 50.936 219.237 50.936C218.533 50.936 217.877 51.104 217.269 51.44C216.677 51.776 216.205 52.28 215.853 52.952C215.501 53.608 215.325 54.416 215.325 55.376C215.325 56.8 215.685 57.904 216.405 58.688C217.141 59.456 218.061 59.84 219.165 59.84ZM231.47 50.696C231.87 50.024 232.398 49.504 233.054 49.136C233.726 48.752 234.518 48.56 235.43 48.56V51.392H234.734C233.662 51.392 232.846 51.664 232.286 52.208C231.742 52.752 231.47 53.696 231.47 55.04V62H228.734V48.776H231.47V50.696Z" fill="#FF7029"/>
<path d="M169.573 83.3516C180.567 75.4137 230.081 65.4515 271.62 82.9169C248.65 77.4172 201.713 73.4228 169.573 83.3516Z" fill="#FF7029"/>
<path d="M39.0758 110.034C37.7211 110.034 36.6011 109.719 35.7158 109.09C34.8411 108.45 34.3664 107.517 34.2918 106.29H38.0677C38.1211 106.941 38.4091 107.266 38.9318 107.266C39.1238 107.266 39.2838 107.223 39.4118 107.138C39.5504 107.042 39.6198 106.898 39.6198 106.706C39.6198 106.439 39.4758 106.226 39.1878 106.066C38.8998 105.895 38.4518 105.703 37.8438 105.49C37.1184 105.234 36.5158 104.983 36.0358 104.738C35.5664 104.493 35.1611 104.135 34.8198 103.666C34.4784 103.197 34.3131 102.594 34.3238 101.858C34.3238 101.122 34.5104 100.498 34.8838 99.9859C35.2678 99.4632 35.7851 99.0685 36.4358 98.8019C37.0971 98.5352 37.8384 98.4019 38.6598 98.4019C40.0464 98.4019 41.1451 98.7219 41.9558 99.3619C42.7771 100.002 43.2091 100.903 43.2517 102.066H39.4278C39.4171 101.746 39.3371 101.517 39.1878 101.378C39.0384 101.239 38.8571 101.17 38.6438 101.17C38.4944 101.17 38.3718 101.223 38.2758 101.33C38.1798 101.426 38.1318 101.565 38.1318 101.746C38.1318 102.002 38.2704 102.215 38.5477 102.386C38.8358 102.546 39.2891 102.743 39.9078 102.978C40.6224 103.245 41.2091 103.501 41.6678 103.746C42.1371 103.991 42.5424 104.333 42.8837 104.77C43.2251 105.207 43.3958 105.757 43.3958 106.418C43.3958 107.111 43.2251 107.735 42.8837 108.29C42.5424 108.834 42.0464 109.261 41.3958 109.57C40.7451 109.879 39.9718 110.034 39.0758 110.034ZM46.4358 100.178C45.8171 100.178 45.3211 100.013 44.9478 99.6819C44.5744 99.3512 44.3878 98.9352 44.3878 98.4339C44.3878 97.9219 44.5744 97.5005 44.9478 97.1699C45.3211 96.8285 45.8171 96.6579 46.4358 96.6579C47.0438 96.6579 47.5344 96.8285 47.9078 97.1699C48.2811 97.5005 48.4678 97.9219 48.4678 98.4339C48.4678 98.9352 48.2811 99.3512 47.9078 99.6819C47.5344 100.013 47.0438 100.178 46.4358 100.178ZM48.1958 100.898V109.922H44.6438V100.898H48.1958ZM53.208 106.978H56.968V109.922H49.32V107.138L52.76 103.842H49.368V100.898H56.808V103.682L53.208 106.978ZM59.8733 100.178C59.2546 100.178 58.7586 100.013 58.3853 99.6819C58.0119 99.3512 57.8253 98.9352 57.8253 98.4339C57.8253 97.9219 58.0119 97.5005 58.3853 97.1699C58.7586 96.8285 59.2546 96.6579 59.8733 96.6579C60.4813 96.6579 60.9719 96.8285 61.3453 97.1699C61.7186 97.5005 61.9053 97.9219 61.9053 98.4339C61.9053 98.9352 61.7186 99.3512 61.3453 99.6819C60.9719 100.013 60.4813 100.178 59.8733 100.178ZM61.6333 100.898V109.922H58.0813V100.898H61.6333ZM69.5575 100.834C70.5922 100.834 71.3975 101.181 71.9735 101.874C72.5602 102.567 72.8535 103.506 72.8535 104.69V109.922H69.3175V105.138C69.3175 104.711 69.2002 104.375 68.9655 104.13C68.7415 103.874 68.4375 103.746 68.0535 103.746C67.6588 103.746 67.3495 103.874 67.1255 104.13C66.9015 104.375 66.7895 104.711 66.7895 105.138V109.922H63.2375V100.898H66.7895V102.274C67.0668 101.847 67.4348 101.501 67.8935 101.234C68.3628 100.967 68.9175 100.834 69.5575 100.834ZM78.9045 100.178C78.2858 100.178 77.7898 100.013 77.4165 99.6819C77.0432 99.3512 76.8565 98.9352 76.8565 98.4339C76.8565 97.9219 77.0432 97.5005 77.4165 97.1699C77.7898 96.8285 78.2858 96.6579 78.9045 96.6579C79.5125 96.6579 80.0032 96.8285 80.3765 97.1699C80.7498 97.5005 80.9365 97.9219 80.9365 98.4339C80.9365 98.9352 80.7498 99.3512 80.3765 99.6819C80.0032 100.013 79.5125 100.178 78.9045 100.178ZM80.6645 100.898V109.922H77.1125V100.898H80.6645ZM86.3168 106.994C86.7221 106.994 86.9941 106.759 87.1328 106.29H90.8928C90.7114 107.282 90.3168 108.093 89.7088 108.722C89.1008 109.351 88.3434 109.757 87.4368 109.938V110.466C87.7354 110.466 88.0448 110.525 88.3648 110.642C88.6848 110.77 88.9568 110.978 89.1808 111.266C89.4048 111.565 89.5168 111.949 89.5168 112.418C89.5168 113.111 89.2768 113.607 88.7968 113.906C88.3168 114.215 87.7568 114.37 87.1168 114.37H84.3488V112.562H86.7488C86.8768 112.562 86.9781 112.535 87.0528 112.482C87.1274 112.439 87.1648 112.381 87.1648 112.306C87.1648 112.146 87.0261 112.066 86.7488 112.066H85.3888V109.954C84.2901 109.762 83.4154 109.266 82.7648 108.466C82.1141 107.666 81.7888 106.647 81.7888 105.41C81.7888 104.471 81.9808 103.655 82.3648 102.962C82.7594 102.258 83.3034 101.719 83.9968 101.346C84.7008 100.973 85.5008 100.786 86.3968 100.786C87.5701 100.786 88.5568 101.117 89.3568 101.778C90.1674 102.439 90.6794 103.357 90.8928 104.53H87.1328C86.9941 104.061 86.7221 103.826 86.3168 103.826C86.0288 103.826 85.7994 103.959 85.6288 104.226C85.4688 104.493 85.3888 104.887 85.3888 105.41C85.3888 105.933 85.4688 106.327 85.6288 106.594C85.7994 106.861 86.0288 106.994 86.3168 106.994ZM93.8108 100.178C93.1921 100.178 92.6961 100.013 92.3228 99.6819C91.9494 99.3512 91.7628 98.9352 91.7628 98.4339C91.7628 97.9219 91.9494 97.5005 92.3228 97.1699C92.6961 96.8285 93.1921 96.6579 93.8108 96.6579C94.4188 96.6579 94.9094 96.8285 95.2828 97.1699C95.6561 97.5005 95.8428 97.9219 95.8428 98.4339C95.8428 98.9352 95.6561 99.3512 95.2828 99.6819C94.9094 100.013 94.4188 100.178 93.8108 100.178ZM95.5708 100.898V109.922H92.0188V100.898H95.5708ZM103.495 100.834C104.53 100.834 105.335 101.181 105.911 101.874C106.498 102.567 106.791 103.506 106.791 104.69V109.922H103.255V105.138C103.255 104.711 103.138 104.375 102.903 104.13C102.679 103.874 102.375 103.746 101.991 103.746C101.596 103.746 101.287 103.874 101.063 104.13C100.839 104.375 100.727 104.711 100.727 105.138V109.922H97.175V100.898H100.727V102.274C101.004 101.847 101.372 101.501 101.831 101.234C102.3 100.967 102.855 100.834 103.495 100.834ZM117.37 100.834C118.405 100.834 119.21 101.181 119.786 101.874C120.373 102.567 120.666 103.506 120.666 104.69V109.922H117.13V105.138C117.13 104.711 117.013 104.375 116.778 104.13C116.554 103.874 116.25 103.746 115.866 103.746C115.471 103.746 115.162 103.874 114.938 104.13C114.714 104.375 114.602 104.711 114.602 105.138V109.922H111.05V98.0819H114.602V102.274C114.879 101.847 115.247 101.501 115.706 101.234C116.175 100.967 116.73 100.834 117.37 100.834ZM121.726 105.41C121.726 104.461 121.886 103.639 122.206 102.946C122.537 102.242 122.985 101.709 123.55 101.346C124.116 100.973 124.75 100.786 125.454 100.786C126.041 100.786 126.548 100.909 126.974 101.154C127.401 101.389 127.726 101.714 127.95 102.13V100.898H131.486V109.922H127.95V108.69C127.726 109.106 127.401 109.437 126.974 109.682C126.548 109.917 126.041 110.034 125.454 110.034C124.75 110.034 124.116 109.853 123.55 109.49C122.985 109.117 122.537 108.583 122.206 107.89C121.886 107.186 121.726 106.359 121.726 105.41ZM127.95 105.41C127.95 104.93 127.828 104.557 127.582 104.29C127.337 104.023 127.022 103.89 126.638 103.89C126.254 103.89 125.94 104.023 125.694 104.29C125.449 104.557 125.326 104.93 125.326 105.41C125.326 105.89 125.449 106.263 125.694 106.53C125.94 106.797 126.254 106.93 126.638 106.93C127.022 106.93 127.337 106.797 127.582 106.53C127.828 106.263 127.95 105.89 127.95 105.41ZM136.489 106.978H140.249V109.922H132.601V107.138L136.041 103.842H132.649V100.898H140.089V103.682L136.489 106.978ZM145.315 100.898V109.922H141.763V100.898H145.315ZM150.868 102.562C151.23 102.039 151.673 101.623 152.196 101.314C152.718 100.994 153.262 100.834 153.828 100.834V104.626H152.82C152.148 104.626 151.652 104.743 151.332 104.978C151.022 105.213 150.868 105.629 150.868 106.226V109.922H147.316V100.898H150.868V102.562ZM158.336 98.0819V109.922H154.784V98.0819H158.336ZM159.461 105.41C159.461 104.461 159.621 103.639 159.941 102.946C160.271 102.242 160.719 101.709 161.285 101.346C161.85 100.973 162.485 100.786 163.189 100.786C163.775 100.786 164.282 100.909 164.709 101.154C165.135 101.389 165.461 101.714 165.685 102.13V100.898H169.221V109.922H165.685V108.69C165.461 109.106 165.135 109.437 164.709 109.682C164.282 109.917 163.775 110.034 163.189 110.034C162.485 110.034 161.85 109.853 161.285 109.49C160.719 109.117 160.271 108.583 159.941 107.89C159.621 107.186 159.461 106.359 159.461 105.41ZM165.685 105.41C165.685 104.93 165.562 104.557 165.317 104.29C165.071 104.023 164.757 103.89 164.373 103.89C163.989 103.89 163.674 104.023 163.429 104.29C163.183 104.557 163.061 104.93 163.061 105.41C163.061 105.89 163.183 106.263 163.429 106.53C163.674 106.797 163.989 106.93 164.373 106.93C164.757 106.93 165.071 106.797 165.317 106.53C165.562 106.263 165.685 105.89 165.685 105.41ZM177.136 100.834C178.17 100.834 178.976 101.181 179.552 101.874C180.138 102.567 180.432 103.506 180.432 104.69V109.922H176.896V105.138C176.896 104.711 176.778 104.375 176.544 104.13C176.32 103.874 176.016 103.746 175.632 103.746C175.237 103.746 174.928 103.874 174.704 104.13C174.48 104.375 174.368 104.711 174.368 105.138V109.922H170.816V100.898H174.368V102.274C174.645 101.847 175.013 101.501 175.472 101.234C175.941 100.967 176.496 100.834 177.136 100.834ZM194.02 100.834C195.172 100.834 196.063 101.181 196.692 101.874C197.332 102.567 197.652 103.506 197.652 104.69V109.922H194.116V105.138C194.116 104.754 193.999 104.455 193.764 104.242C193.54 104.018 193.236 103.906 192.852 103.906C192.457 103.906 192.148 104.018 191.924 104.242C191.7 104.455 191.588 104.754 191.588 105.138V109.922H188.052V105.138C188.052 104.754 187.935 104.455 187.7 104.242C187.476 104.018 187.172 103.906 186.788 103.906C186.393 103.906 186.084 104.018 185.86 104.242C185.636 104.455 185.524 104.754 185.524 105.138V109.922H181.972V100.898H185.524V102.114C185.78 101.73 186.127 101.421 186.564 101.186C187.012 100.951 187.535 100.834 188.132 100.834C188.783 100.834 189.359 100.978 189.86 101.266C190.361 101.543 190.761 101.938 191.06 102.45C191.391 101.981 191.812 101.597 192.324 101.298C192.836 100.989 193.401 100.834 194.02 100.834ZM203.143 100.898V109.922H199.591V100.898H203.143ZM213 107.218C213 107.879 212.765 108.455 212.296 108.946C211.826 109.426 211.181 109.751 210.36 109.922V110.466C210.658 110.466 210.968 110.525 211.288 110.642C211.608 110.77 211.88 110.978 212.104 111.266C212.328 111.565 212.44 111.949 212.44 112.418C212.44 113.111 212.2 113.607 211.72 113.906C211.24 114.215 210.68 114.37 210.04 114.37H207.272V112.562H209.672C209.8 112.562 209.901 112.535 209.976 112.482C210.05 112.439 210.088 112.381 210.088 112.306C210.088 112.146 209.949 112.066 209.672 112.066H208.312V109.986C207.266 109.847 206.418 109.49 205.768 108.914C205.117 108.338 204.754 107.634 204.68 106.802H208.088C208.13 107.069 208.242 107.266 208.424 107.394C208.616 107.522 208.856 107.586 209.144 107.586C209.325 107.586 209.469 107.549 209.576 107.474C209.682 107.389 209.736 107.287 209.736 107.17C209.736 106.967 209.624 106.823 209.4 106.738C209.176 106.653 208.797 106.557 208.264 106.45C207.613 106.322 207.074 106.183 206.648 106.034C206.232 105.885 205.864 105.629 205.544 105.266C205.234 104.903 205.08 104.402 205.08 103.762C205.08 103.207 205.224 102.706 205.512 102.258C205.81 101.799 206.248 101.442 206.824 101.186C207.4 100.919 208.098 100.786 208.92 100.786C210.136 100.786 211.085 101.085 211.768 101.682C212.461 102.279 212.877 103.058 213.016 104.018H209.864C209.81 103.773 209.698 103.586 209.528 103.458C209.357 103.319 209.128 103.25 208.84 103.25C208.658 103.25 208.52 103.287 208.424 103.362C208.328 103.426 208.28 103.527 208.28 103.666C208.28 103.847 208.392 103.986 208.616 104.082C208.84 104.167 209.197 104.258 209.688 104.354C210.338 104.482 210.888 104.626 211.336 104.786C211.784 104.946 212.173 105.223 212.504 105.618C212.834 106.002 213 106.535 213 107.218ZM221.144 110.034C220.291 110.034 219.533 109.895 218.872 109.618C218.221 109.341 217.704 108.957 217.32 108.466C216.936 107.975 216.717 107.421 216.664 106.802H220.072C220.115 107.069 220.227 107.266 220.408 107.394C220.6 107.522 220.84 107.586 221.128 107.586C221.309 107.586 221.453 107.549 221.56 107.474C221.667 107.389 221.72 107.287 221.72 107.17C221.72 106.967 221.608 106.823 221.384 106.738C221.16 106.653 220.781 106.557 220.248 106.45C219.597 106.322 219.059 106.183 218.632 106.034C218.216 105.885 217.848 105.629 217.528 105.266C217.219 104.903 217.064 104.402 217.064 103.762C217.064 103.207 217.208 102.706 217.496 102.258C217.795 101.799 218.232 101.442 218.808 101.186C219.384 100.919 220.083 100.786 220.904 100.786C222.12 100.786 223.069 101.085 223.752 101.682C224.445 102.279 224.861 103.058 225 104.018H221.848C221.795 103.773 221.683 103.586 221.512 103.458C221.341 103.319 221.112 103.25 220.824 103.25C220.643 103.25 220.504 103.287 220.408 103.362C220.312 103.426 220.264 103.527 220.264 103.666C220.264 103.847 220.376 103.986 220.6 104.082C220.824 104.167 221.181 104.258 221.672 104.354C222.323 104.482 222.872 104.626 223.32 104.786C223.768 104.946 224.157 105.223 224.488 105.618C224.819 106.002 224.984 106.535 224.984 107.218C224.984 107.751 224.829 108.231 224.52 108.658C224.211 109.085 223.763 109.421 223.176 109.666C222.6 109.911 221.923 110.034 221.144 110.034ZM235.13 105.33C235.13 105.575 235.114 105.81 235.082 106.034H229.37C229.423 106.813 229.748 107.202 230.346 107.202C230.73 107.202 231.007 107.026 231.178 106.674H234.938C234.81 107.314 234.538 107.89 234.122 108.402C233.716 108.903 233.199 109.303 232.57 109.602C231.951 109.89 231.268 110.034 230.522 110.034C229.626 110.034 228.826 109.847 228.122 109.474C227.428 109.101 226.884 108.567 226.49 107.874C226.106 107.17 225.914 106.349 225.914 105.41C225.914 104.471 226.106 103.655 226.49 102.962C226.884 102.258 227.428 101.719 228.122 101.346C228.826 100.973 229.626 100.786 230.522 100.786C231.418 100.786 232.212 100.973 232.906 101.346C233.61 101.709 234.154 102.231 234.538 102.914C234.932 103.597 235.13 104.402 235.13 105.33ZM231.53 104.482C231.53 104.183 231.434 103.959 231.242 103.81C231.05 103.65 230.81 103.57 230.522 103.57C229.892 103.57 229.524 103.874 229.418 104.482H231.53ZM246.445 100.898L240.669 114.242H236.781L239.053 109.474L235.293 100.898H239.245L240.941 105.474L242.525 100.898H246.445ZM246.601 105.41C246.601 104.461 246.761 103.639 247.081 102.946C247.412 102.242 247.86 101.709 248.425 101.346C248.991 100.973 249.625 100.786 250.329 100.786C250.916 100.786 251.423 100.909 251.849 101.154C252.276 101.389 252.601 101.714 252.825 102.13V100.898H256.361V109.922H252.825V108.69C252.601 109.106 252.276 109.437 251.849 109.682C251.423 109.917 250.916 110.034 250.329 110.034C249.625 110.034 248.991 109.853 248.425 109.49C247.86 109.117 247.412 108.583 247.081 107.89C246.761 107.186 246.601 106.359 246.601 105.41ZM252.825 105.41C252.825 104.93 252.703 104.557 252.457 104.29C252.212 104.023 251.897 103.89 251.513 103.89C251.129 103.89 250.815 104.023 250.569 104.29C250.324 104.557 250.201 104.93 250.201 105.41C250.201 105.89 250.324 106.263 250.569 106.53C250.815 106.797 251.129 106.93 251.513 106.93C251.897 106.93 252.212 106.797 252.457 106.53C252.703 106.263 252.825 105.89 252.825 105.41ZM264.276 100.834C265.311 100.834 266.116 101.181 266.692 101.874C267.279 102.567 267.572 103.506 267.572 104.69V109.922H264.036V105.138C264.036 104.711 263.919 104.375 263.684 104.13C263.46 103.874 263.156 103.746 262.772 103.746C262.378 103.746 262.068 103.874 261.844 104.13C261.62 104.375 261.508 104.711 261.508 105.138V109.922H257.956V98.0819H261.508V102.274C261.786 101.847 262.154 101.501 262.612 101.234C263.082 100.967 263.636 100.834 264.276 100.834ZM268.633 105.41C268.633 104.461 268.793 103.639 269.113 102.946C269.443 102.242 269.891 101.709 270.457 101.346C271.022 100.973 271.657 100.786 272.361 100.786C272.947 100.786 273.454 100.909 273.881 101.154C274.307 101.389 274.633 101.714 274.857 102.13V100.898H278.393V109.922H274.857V108.69C274.633 109.106 274.307 109.437 273.881 109.682C273.454 109.917 272.947 110.034 272.361 110.034C271.657 110.034 271.022 109.853 270.457 109.49C269.891 109.117 269.443 108.583 269.113 107.89C268.793 107.186 268.633 106.359 268.633 105.41ZM274.857 105.41C274.857 104.93 274.734 104.557 274.489 104.29C274.243 104.023 273.929 103.89 273.545 103.89C273.161 103.89 272.846 104.023 272.601 104.29C272.355 104.557 272.233 104.93 272.233 105.41C272.233 105.89 272.355 106.263 272.601 106.53C272.846 106.797 273.161 106.93 273.545 106.93C273.929 106.93 274.243 106.797 274.489 106.53C274.734 106.263 274.857 105.89 274.857 105.41ZM285.604 106.898V109.922H284.26C281.785 109.922 280.548 108.69 280.548 106.226V103.858H279.428V100.898H280.548V98.7219H284.1V100.898H285.572V103.858H284.1V106.29C284.1 106.503 284.148 106.658 284.244 106.754C284.35 106.85 284.521 106.898 284.756 106.898H285.604ZM49.4614 122.082V133.922H45.9094V122.082H49.4614ZM55.3536 134.034C54.447 134.034 53.631 133.847 52.9056 133.474C52.1803 133.101 51.6096 132.567 51.1936 131.874C50.7883 131.17 50.5856 130.349 50.5856 129.41C50.5856 128.471 50.7883 127.655 51.1936 126.962C51.6096 126.258 52.1803 125.719 52.9056 125.346C53.631 124.973 54.447 124.786 55.3536 124.786C56.2603 124.786 57.0763 124.973 57.8016 125.346C58.527 125.719 59.0923 126.258 59.4976 126.962C59.9136 127.655 60.1216 128.471 60.1216 129.41C60.1216 130.349 59.9136 131.17 59.4976 131.874C59.0923 132.567 58.527 133.101 57.8016 133.474C57.0763 133.847 56.2603 134.034 55.3536 134.034ZM55.3536 130.962C55.6843 130.962 55.9616 130.834 56.1856 130.578C56.4096 130.311 56.5216 129.922 56.5216 129.41C56.5216 128.898 56.4096 128.514 56.1856 128.258C55.9616 127.991 55.6843 127.858 55.3536 127.858C55.023 127.858 54.7456 127.991 54.5216 128.258C54.2976 128.514 54.1856 128.898 54.1856 129.41C54.1856 129.922 54.2923 130.311 54.5056 130.578C54.7296 130.834 55.0123 130.962 55.3536 130.962ZM67.0135 133.922L64.7895 130.322V133.922H61.2375V122.082H64.7895V128.274L67.0455 124.898H71.1735L67.7975 129.442L71.2535 133.922H67.0135ZM71.57 129.41C71.57 128.461 71.73 127.639 72.05 126.946C72.3807 126.242 72.8287 125.709 73.394 125.346C73.9593 124.973 74.594 124.786 75.298 124.786C75.8847 124.786 76.3913 124.909 76.818 125.154C77.2447 125.389 77.57 125.714 77.794 126.13V124.898H81.33V133.922H77.794V132.69C77.57 133.106 77.2447 133.437 76.818 133.682C76.3913 133.917 75.8847 134.034 75.298 134.034C74.594 134.034 73.9593 133.853 73.394 133.49C72.8287 133.117 72.3807 132.583 72.05 131.89C71.73 131.186 71.57 130.359 71.57 129.41ZM77.794 129.41C77.794 128.93 77.6713 128.557 77.426 128.29C77.1807 128.023 76.866 127.89 76.482 127.89C76.098 127.89 75.7833 128.023 75.538 128.29C75.2927 128.557 75.17 128.93 75.17 129.41C75.17 129.89 75.2927 130.263 75.538 130.53C75.7833 130.797 76.098 130.93 76.482 130.93C76.866 130.93 77.1807 130.797 77.426 130.53C77.6713 130.263 77.794 129.89 77.794 129.41ZM86.941 134.034C86.0877 134.034 85.3303 133.895 84.669 133.618C84.0183 133.341 83.501 132.957 83.117 132.466C82.733 131.975 82.5143 131.421 82.461 130.802H85.869C85.9117 131.069 86.0237 131.266 86.205 131.394C86.397 131.522 86.637 131.586 86.925 131.586C87.1063 131.586 87.2503 131.549 87.357 131.474C87.4637 131.389 87.517 131.287 87.517 131.17C87.517 130.967 87.405 130.823 87.181 130.738C86.957 130.653 86.5783 130.557 86.045 130.45C85.3943 130.322 84.8557 130.183 84.429 130.034C84.013 129.885 83.645 129.629 83.325 129.266C83.0157 128.903 82.861 128.402 82.861 127.762C82.861 127.207 83.005 126.706 83.293 126.258C83.5917 125.799 84.029 125.442 84.605 125.186C85.181 124.919 85.8797 124.786 86.701 124.786C87.917 124.786 88.8663 125.085 89.549 125.682C90.2423 126.279 90.6583 127.058 90.797 128.018H87.645C87.5917 127.773 87.4797 127.586 87.309 127.458C87.1383 127.319 86.909 127.25 86.621 127.25C86.4397 127.25 86.301 127.287 86.205 127.362C86.109 127.426 86.061 127.527 86.061 127.666C86.061 127.847 86.173 127.986 86.397 128.082C86.621 128.167 86.9783 128.258 87.469 128.354C88.1197 128.482 88.669 128.626 89.117 128.786C89.565 128.946 89.9543 129.223 90.285 129.618C90.6157 130.002 90.781 130.535 90.781 131.218C90.781 131.751 90.6263 132.231 90.317 132.658C90.0077 133.085 89.5597 133.421 88.973 133.666C88.397 133.911 87.7197 134.034 86.941 134.034ZM102.383 124.898L96.6066 138.242H92.7186L94.9906 133.474L91.2306 124.898H95.1826L96.8786 129.474L98.4626 124.898H102.383ZM107.307 134.034C106.4 134.034 105.584 133.847 104.859 133.474C104.133 133.101 103.563 132.567 103.147 131.874C102.741 131.17 102.539 130.349 102.539 129.41C102.539 128.471 102.741 127.655 103.147 126.962C103.563 126.258 104.133 125.719 104.859 125.346C105.584 124.973 106.4 124.786 107.307 124.786C108.213 124.786 109.029 124.973 109.755 125.346C110.48 125.719 111.045 126.258 111.451 126.962C111.867 127.655 112.075 128.471 112.075 129.41C112.075 130.349 111.867 131.17 111.451 131.874C111.045 132.567 110.48 133.101 109.755 133.474C109.029 133.847 108.213 134.034 107.307 134.034ZM107.307 130.962C107.637 130.962 107.915 130.834 108.139 130.578C108.363 130.311 108.475 129.922 108.475 129.41C108.475 128.898 108.363 128.514 108.139 128.258C107.915 127.991 107.637 127.858 107.307 127.858C106.976 127.858 106.699 127.991 106.475 128.258C106.251 128.514 106.139 128.898 106.139 129.41C106.139 129.922 106.245 130.311 106.459 130.578C106.683 130.834 106.965 130.962 107.307 130.962ZM119.511 124.834C120.545 124.834 121.351 125.181 121.927 125.874C122.513 126.567 122.807 127.506 122.807 128.69V133.922H119.271V129.138C119.271 128.711 119.153 128.375 118.919 128.13C118.695 127.874 118.391 127.746 118.007 127.746C117.612 127.746 117.303 127.874 117.079 128.13C116.855 128.375 116.743 128.711 116.743 129.138V133.922H113.191V124.898H116.743V126.274C117.02 125.847 117.388 125.501 117.847 125.234C118.316 124.967 118.871 124.834 119.511 124.834ZM127.899 122.082V133.922H124.347V122.082H127.899ZM129.023 129.41C129.023 128.461 129.183 127.639 129.503 126.946C129.834 126.242 130.282 125.709 130.847 125.346C131.412 124.973 132.047 124.786 132.751 124.786C133.338 124.786 133.844 124.909 134.271 125.154C134.698 125.389 135.023 125.714 135.247 126.13V124.898H138.783V133.922H135.247V132.69C135.023 133.106 134.698 133.437 134.271 133.682C133.844 133.917 133.338 134.034 132.751 134.034C132.047 134.034 131.412 133.853 130.847 133.49C130.282 133.117 129.834 132.583 129.503 131.89C129.183 131.186 129.023 130.359 129.023 129.41ZM135.247 129.41C135.247 128.93 135.124 128.557 134.879 128.29C134.634 128.023 134.319 127.89 133.935 127.89C133.551 127.89 133.236 128.023 132.991 128.29C132.746 128.557 132.623 128.93 132.623 129.41C132.623 129.89 132.746 130.263 132.991 130.53C133.236 130.797 133.551 130.93 133.935 130.93C134.319 130.93 134.634 130.797 134.879 130.53C135.124 130.263 135.247 129.89 135.247 129.41ZM143.93 126.562C144.293 126.039 144.735 125.623 145.258 125.314C145.781 124.994 146.325 124.834 146.89 124.834V128.626H145.882C145.21 128.626 144.714 128.743 144.394 128.978C144.085 129.213 143.93 129.629 143.93 130.226V133.922H140.378V124.898H143.93V126.562ZM151.799 124.898V133.922H148.247V124.898H151.799ZM158.311 124.178C157.692 124.178 157.196 124.013 156.823 123.682C156.449 123.351 156.263 122.935 156.263 122.434C156.263 121.922 156.449 121.501 156.823 121.17C157.196 120.829 157.692 120.658 158.311 120.658C158.919 120.658 159.409 120.829 159.783 121.17C160.156 121.501 160.343 121.922 160.343 122.434C160.343 122.935 160.156 123.351 159.783 123.682C159.409 124.013 158.919 124.178 158.311 124.178ZM160.071 124.898V133.922H156.519V124.898H160.071ZM165.227 122.082V133.922H161.675V122.082H165.227ZM175.567 129.33C175.567 129.575 175.551 129.81 175.519 130.034H169.807C169.861 130.813 170.186 131.202 170.783 131.202C171.167 131.202 171.445 131.026 171.615 130.674H175.375C175.247 131.314 174.975 131.89 174.559 132.402C174.154 132.903 173.637 133.303 173.007 133.602C172.389 133.89 171.706 134.034 170.959 134.034C170.063 134.034 169.263 133.847 168.559 133.474C167.866 133.101 167.322 132.567 166.927 131.874C166.543 131.17 166.351 130.349 166.351 129.41C166.351 128.471 166.543 127.655 166.927 126.962C167.322 126.258 167.866 125.719 168.559 125.346C169.263 124.973 170.063 124.786 170.959 124.786C171.855 124.786 172.65 124.973 173.343 125.346C174.047 125.709 174.591 126.231 174.975 126.914C175.37 127.597 175.567 128.402 175.567 129.33ZM171.967 128.482C171.967 128.183 171.871 127.959 171.679 127.81C171.487 127.65 171.247 127.57 170.959 127.57C170.33 127.57 169.962 127.874 169.855 128.482H171.967ZM182.961 126.562C183.324 126.039 183.767 125.623 184.289 125.314C184.812 124.994 185.356 124.834 185.921 124.834V128.626H184.913C184.241 128.626 183.745 128.743 183.425 128.978C183.116 129.213 182.961 129.629 182.961 130.226V133.922H179.409V124.898H182.961V126.562ZM191.166 134.034C190.259 134.034 189.443 133.847 188.718 133.474C187.993 133.101 187.422 132.567 187.006 131.874C186.601 131.17 186.398 130.349 186.398 129.41C186.398 128.471 186.601 127.655 187.006 126.962C187.422 126.258 187.993 125.719 188.718 125.346C189.443 124.973 190.259 124.786 191.166 124.786C192.073 124.786 192.889 124.973 193.614 125.346C194.339 125.719 194.905 126.258 195.31 126.962C195.726 127.655 195.934 128.471 195.934 129.41C195.934 130.349 195.726 131.17 195.31 131.874C194.905 132.567 194.339 133.101 193.614 133.474C192.889 133.847 192.073 134.034 191.166 134.034ZM191.166 130.962C191.497 130.962 191.774 130.834 191.998 130.578C192.222 130.311 192.334 129.922 192.334 129.41C192.334 128.898 192.222 128.514 191.998 128.258C191.774 127.991 191.497 127.858 191.166 127.858C190.835 127.858 190.558 127.991 190.334 128.258C190.11 128.514 189.998 128.898 189.998 129.41C189.998 129.922 190.105 130.311 190.318 130.578C190.542 130.834 190.825 130.962 191.166 130.962ZM202.666 130.898V133.922H201.322C198.847 133.922 197.61 132.69 197.61 130.226V127.858H196.49V124.898H197.61V122.722H201.162V124.898H202.634V127.858H201.162V130.29C201.162 130.503 201.21 130.658 201.306 130.754C201.413 130.85 201.583 130.898 201.818 130.898H202.666ZM203.539 129.41C203.539 128.461 203.699 127.639 204.019 126.946C204.349 126.242 204.797 125.709 205.363 125.346C205.928 124.973 206.563 124.786 207.267 124.786C207.853 124.786 208.36 124.909 208.787 125.154C209.213 125.389 209.539 125.714 209.763 126.13V124.898H213.299V133.922H209.763V132.69C209.539 133.106 209.213 133.437 208.787 133.682C208.36 133.917 207.853 134.034 207.267 134.034C206.563 134.034 205.928 133.853 205.363 133.49C204.797 133.117 204.349 132.583 204.019 131.89C203.699 131.186 203.539 130.359 203.539 129.41ZM209.763 129.41C209.763 128.93 209.64 128.557 209.395 128.29C209.149 128.023 208.835 127.89 208.451 127.89C208.067 127.89 207.752 128.023 207.507 128.29C207.261 128.557 207.139 128.93 207.139 129.41C207.139 129.89 207.261 130.263 207.507 130.53C207.752 130.797 208.067 130.93 208.451 130.93C208.835 130.93 209.149 130.797 209.395 130.53C209.64 130.263 209.763 129.89 209.763 129.41ZM218.446 122.082V133.922H214.894V122.082H218.446ZM219.57 129.41C219.57 128.461 219.73 127.639 220.05 126.946C220.381 126.242 220.829 125.709 221.394 125.346C221.959 124.973 222.594 124.786 223.298 124.786C223.885 124.786 224.391 124.909 224.818 125.154C225.245 125.389 225.57 125.714 225.794 126.13V124.898H229.33V133.922H225.794V132.69C225.57 133.106 225.245 133.437 224.818 133.682C224.391 133.917 223.885 134.034 223.298 134.034C222.594 134.034 221.959 133.853 221.394 133.49C220.829 133.117 220.381 132.583 220.05 131.89C219.73 131.186 219.57 130.359 219.57 129.41ZM225.794 129.41C225.794 128.93 225.671 128.557 225.426 128.29C225.181 128.023 224.866 127.89 224.482 127.89C224.098 127.89 223.783 128.023 223.538 128.29C223.293 128.557 223.17 128.93 223.17 129.41C223.17 129.89 223.293 130.263 223.538 130.53C223.783 130.797 224.098 130.93 224.482 130.93C224.866 130.93 225.181 130.797 225.426 130.53C225.671 130.263 225.794 129.89 225.794 129.41ZM234.477 126.562C234.84 126.039 235.282 125.623 235.805 125.314C236.328 124.994 236.872 124.834 237.437 124.834V128.626H236.429C235.757 128.626 235.261 128.743 234.941 128.978C234.632 129.213 234.477 129.629 234.477 130.226V133.922H230.925V124.898H234.477V126.562ZM242.346 124.898V133.922H238.794V124.898H242.346ZM250.667 124.834C251.702 124.834 252.507 125.181 253.083 125.874C253.67 126.567 253.963 127.506 253.963 128.69V133.922H250.427V129.138C250.427 128.711 250.31 128.375 250.075 128.13C249.851 127.874 249.547 127.746 249.163 127.746C248.768 127.746 248.459 127.874 248.235 128.13C248.011 128.375 247.899 128.711 247.899 129.138V133.922H244.347V124.898H247.899V126.274C248.176 125.847 248.544 125.501 249.003 125.234C249.472 124.967 250.027 124.834 250.667 124.834ZM259.455 124.898V133.922H255.903V124.898H259.455ZM264.864 130.978H268.624V133.922H260.976V131.138L264.416 127.842H261.024V124.898H268.464V127.682L264.864 130.978ZM273.69 124.898V133.922H270.138V124.898H273.69ZM92.5646 158.034C91.6579 158.034 90.8419 157.847 90.1166 157.474C89.3912 157.101 88.8206 156.567 88.4046 155.874C87.9992 155.17 87.7966 154.349 87.7966 153.41C87.7966 152.471 87.9992 151.655 88.4046 150.962C88.8206 150.258 89.3912 149.719 90.1166 149.346C90.8419 148.973 91.6579 148.786 92.5646 148.786C93.4712 148.786 94.2872 148.973 95.0126 149.346C95.7379 149.719 96.3032 150.258 96.7086 150.962C97.1246 151.655 97.3326 152.471 97.3326 153.41C97.3326 154.349 97.1246 155.17 96.7086 155.874C96.3032 156.567 95.7379 157.101 95.0126 157.474C94.2872 157.847 93.4712 158.034 92.5646 158.034ZM92.5646 154.962C92.8952 154.962 93.1726 154.834 93.3966 154.578C93.6206 154.311 93.7326 153.922 93.7326 153.41C93.7326 152.898 93.6206 152.514 93.3966 152.258C93.1726 151.991 92.8952 151.858 92.5646 151.858C92.2339 151.858 91.9566 151.991 91.7326 152.258C91.5086 152.514 91.3966 152.898 91.3966 153.41C91.3966 153.922 91.5032 154.311 91.7166 154.578C91.9406 154.834 92.2232 154.962 92.5646 154.962ZM102 146.082V157.922H98.4484V146.082H102ZM113.157 148.898V157.922H109.605V156.546C109.327 156.973 108.954 157.319 108.485 157.586C108.026 157.853 107.477 157.986 106.837 157.986C105.802 157.986 104.991 157.639 104.405 156.946C103.829 156.253 103.541 155.314 103.541 154.13V148.898H107.077V153.682C107.077 154.109 107.189 154.45 107.413 154.706C107.647 154.951 107.957 155.074 108.341 155.074C108.735 155.074 109.045 154.951 109.269 154.706C109.493 154.45 109.605 154.109 109.605 153.682V148.898H113.157ZM122.617 155.218C122.617 155.879 122.382 156.455 121.913 156.946C121.444 157.426 120.798 157.751 119.977 157.922V158.466C120.276 158.466 120.585 158.525 120.905 158.642C121.225 158.77 121.497 158.978 121.721 159.266C121.945 159.565 122.057 159.949 122.057 160.418C122.057 161.111 121.817 161.607 121.337 161.906C120.857 162.215 120.297 162.37 119.657 162.37H116.889V160.562H119.289C119.417 160.562 119.518 160.535 119.593 160.482C119.668 160.439 119.705 160.381 119.705 160.306C119.705 160.146 119.566 160.066 119.289 160.066H117.929V157.986C116.884 157.847 116.036 157.49 115.385 156.914C114.734 156.338 114.372 155.634 114.297 154.802H117.705C117.748 155.069 117.86 155.266 118.041 155.394C118.233 155.522 118.473 155.586 118.761 155.586C118.942 155.586 119.086 155.549 119.193 155.474C119.3 155.389 119.353 155.287 119.353 155.17C119.353 154.967 119.241 154.823 119.017 154.738C118.793 154.653 118.414 154.557 117.881 154.45C117.23 154.322 116.692 154.183 116.265 154.034C115.849 153.885 115.481 153.629 115.161 153.266C114.852 152.903 114.697 152.402 114.697 151.762C114.697 151.207 114.841 150.706 115.129 150.258C115.428 149.799 115.865 149.442 116.441 149.186C117.017 148.919 117.716 148.786 118.537 148.786C119.753 148.786 120.702 149.085 121.385 149.682C122.078 150.279 122.494 151.058 122.633 152.018H119.481C119.428 151.773 119.316 151.586 119.145 151.458C118.974 151.319 118.745 151.25 118.457 151.25C118.276 151.25 118.137 151.287 118.041 151.362C117.945 151.426 117.897 151.527 117.897 151.666C117.897 151.847 118.009 151.986 118.233 152.082C118.457 152.167 118.814 152.258 119.305 152.354C119.956 152.482 120.505 152.626 120.953 152.786C121.401 152.946 121.79 153.223 122.121 153.618C122.452 154.002 122.617 154.535 122.617 155.218ZM129.643 154.898V157.922H128.299C125.824 157.922 124.587 156.69 124.587 154.226V151.858H123.467V148.898H124.587V146.722H128.139V148.898H129.611V151.858H128.139V154.29C128.139 154.503 128.187 154.658 128.283 154.754C128.389 154.85 128.56 154.898 128.795 154.898H129.643ZM140.547 148.898V157.922H136.995V156.546C136.718 156.973 136.345 157.319 135.875 157.586C135.417 157.853 134.867 157.986 134.227 157.986C133.193 157.986 132.382 157.639 131.795 156.946C131.219 156.253 130.931 155.314 130.931 154.13V148.898H134.467V153.682C134.467 154.109 134.579 154.45 134.803 154.706C135.038 154.951 135.347 155.074 135.731 155.074C136.126 155.074 136.435 154.951 136.659 154.706C136.883 154.45 136.995 154.109 136.995 153.682V148.898H140.547ZM145.704 150.562C146.066 150.039 146.509 149.623 147.032 149.314C147.554 148.994 148.098 148.834 148.664 148.834V152.626H147.656C146.984 152.626 146.488 152.743 146.168 152.978C145.858 153.213 145.704 153.629 145.704 154.226V157.922H142.152V148.898H145.704V150.562ZM149.14 153.41C149.14 152.461 149.3 151.639 149.62 150.946C149.951 150.242 150.399 149.709 150.964 149.346C151.53 148.973 152.164 148.786 152.868 148.786C153.455 148.786 153.962 148.909 154.388 149.154C154.815 149.389 155.14 149.714 155.364 150.13V148.898H158.9V157.922H155.364V156.69C155.14 157.106 154.815 157.437 154.388 157.682C153.962 157.917 153.455 158.034 152.868 158.034C152.164 158.034 151.53 157.853 150.964 157.49C150.399 157.117 149.951 156.583 149.62 155.89C149.3 155.186 149.14 154.359 149.14 153.41ZM155.364 153.41C155.364 152.93 155.242 152.557 154.996 152.29C154.751 152.023 154.436 151.89 154.052 151.89C153.668 151.89 153.354 152.023 153.108 152.29C152.863 152.557 152.74 152.93 152.74 153.41C152.74 153.89 152.863 154.263 153.108 154.53C153.354 154.797 153.668 154.93 154.052 154.93C154.436 154.93 154.751 154.797 154.996 154.53C155.242 154.263 155.364 153.89 155.364 153.41ZM164.047 150.13C164.271 149.714 164.591 149.389 165.007 149.154C165.434 148.909 165.941 148.786 166.527 148.786C167.231 148.786 167.866 148.973 168.431 149.346C168.997 149.709 169.439 150.242 169.759 150.946C170.09 151.639 170.255 152.461 170.255 153.41C170.255 154.359 170.09 155.186 169.759 155.89C169.439 156.583 168.997 157.117 168.431 157.49C167.866 157.853 167.231 158.034 166.527 158.034C165.941 158.034 165.434 157.917 165.007 157.682C164.591 157.437 164.271 157.106 164.047 156.69V157.922H160.495V146.082H164.047V150.13ZM166.655 153.41C166.655 152.93 166.533 152.557 166.287 152.29C166.042 152.023 165.727 151.89 165.343 151.89C164.959 151.89 164.645 152.023 164.399 152.29C164.154 152.557 164.031 152.93 164.031 153.41C164.031 153.89 164.154 154.263 164.399 154.53C164.645 154.797 164.959 154.93 165.343 154.93C165.727 154.93 166.042 154.797 166.287 154.53C166.533 154.263 166.655 153.89 166.655 153.41ZM173.162 148.178C172.544 148.178 172.048 148.013 171.674 147.682C171.301 147.351 171.114 146.935 171.114 146.434C171.114 145.922 171.301 145.501 171.674 145.17C172.048 144.829 172.544 144.658 173.162 144.658C173.77 144.658 174.261 144.829 174.634 145.17C175.008 145.501 175.194 145.922 175.194 146.434C175.194 146.935 175.008 147.351 174.634 147.682C174.261 148.013 173.77 148.178 173.162 148.178ZM174.922 148.898V157.922H171.37V148.898H174.922ZM180.079 146.082V157.922H176.527V146.082H180.079ZM183.475 148.178C182.856 148.178 182.36 148.013 181.987 147.682C181.613 147.351 181.427 146.935 181.427 146.434C181.427 145.922 181.613 145.501 181.987 145.17C182.36 144.829 182.856 144.658 183.475 144.658C184.083 144.658 184.573 144.829 184.947 145.17C185.32 145.501 185.507 145.922 185.507 146.434C185.507 146.935 185.32 147.351 184.947 147.682C184.573 148.013 184.083 148.178 183.475 148.178ZM185.235 148.898V157.922H181.683V148.898H185.235ZM190.391 150.562C190.754 150.039 191.196 149.623 191.719 149.314C192.242 148.994 192.786 148.834 193.351 148.834V152.626H192.343C191.671 152.626 191.175 152.743 190.855 152.978C190.546 153.213 190.391 153.629 190.391 154.226V157.922H186.839V148.898H190.391V150.562ZM198.324 158.034C197.47 158.034 196.713 157.895 196.052 157.618C195.401 157.341 194.884 156.957 194.5 156.466C194.116 155.975 193.897 155.421 193.844 154.802H197.252C197.294 155.069 197.406 155.266 197.588 155.394C197.78 155.522 198.02 155.586 198.308 155.586C198.489 155.586 198.633 155.549 198.74 155.474C198.846 155.389 198.9 155.287 198.9 155.17C198.9 154.967 198.788 154.823 198.564 154.738C198.34 154.653 197.961 154.557 197.428 154.45C196.777 154.322 196.238 154.183 195.812 154.034C195.396 153.885 195.028 153.629 194.708 153.266C194.398 152.903 194.244 152.402 194.244 151.762C194.244 151.207 194.388 150.706 194.676 150.258C194.974 149.799 195.412 149.442 195.988 149.186C196.564 148.919 197.262 148.786 198.084 148.786C199.3 148.786 200.249 149.085 200.932 149.682C201.625 150.279 202.041 151.058 202.18 152.018H199.028C198.974 151.773 198.862 151.586 198.692 151.458C198.521 151.319 198.292 151.25 198.004 151.25C197.822 151.25 197.684 151.287 197.588 151.362C197.492 151.426 197.444 151.527 197.444 151.666C197.444 151.847 197.556 151.986 197.78 152.082C198.004 152.167 198.361 152.258 198.852 152.354C199.502 152.482 200.052 152.626 200.5 152.786C200.948 152.946 201.337 153.223 201.668 153.618C201.998 154.002 202.164 154.535 202.164 155.218C202.164 155.751 202.009 156.231 201.7 156.658C201.39 157.085 200.942 157.421 200.356 157.666C199.78 157.911 199.102 158.034 198.324 158.034ZM205.365 148.178C204.747 148.178 204.251 148.013 203.877 147.682C203.504 147.351 203.317 146.935 203.317 146.434C203.317 145.922 203.504 145.501 203.877 145.17C204.251 144.829 204.747 144.658 205.365 144.658C205.973 144.658 206.464 144.829 206.837 145.17C207.211 145.501 207.397 145.922 207.397 146.434C207.397 146.935 207.211 147.351 206.837 147.682C206.464 148.013 205.973 148.178 205.365 148.178ZM207.125 148.898V157.922H203.573V148.898H207.125ZM215.05 148.834C216.084 148.834 216.89 149.181 217.466 149.874C218.052 150.567 218.346 151.506 218.346 152.69V157.922H214.81V153.138C214.81 152.711 214.692 152.375 214.458 152.13C214.234 151.874 213.93 151.746 213.546 151.746C213.151 151.746 212.842 151.874 212.618 152.13C212.394 152.375 212.282 152.711 212.282 153.138V157.922H208.73V148.898H212.282V150.274C212.559 149.847 212.927 149.501 213.386 149.234C213.855 148.967 214.41 148.834 215.05 148.834ZM221.678 148.178C221.059 148.178 220.563 148.013 220.19 147.682C219.817 147.351 219.63 146.935 219.63 146.434C219.63 145.922 219.817 145.501 220.19 145.17C220.563 144.829 221.059 144.658 221.678 144.658C222.286 144.658 222.777 144.829 223.15 145.17C223.523 145.501 223.71 145.922 223.71 146.434C223.71 146.935 223.523 147.351 223.15 147.682C222.777 148.013 222.286 148.178 221.678 148.178ZM223.438 148.898V157.922H219.886V148.898H223.438ZM228.45 154.978H232.21V157.922H224.562V155.138L228.002 151.842H224.61V148.898H232.05V151.682L228.45 154.978Z" fill="#7D848D"/>
</svg>
